SplineFontDB: 1.0
FontName: URWGothicL-Demi
FullName: URW Gothic L Demi
FamilyName: URW Gothic L
Weight: DemiBold
Copyright: Copyright (URW)++,Copyright 1999 by (URW)++ Design & Development; Cyrillic glyphs added by Valek Filippov (C) 2001-2004
Version: 1.06
ItalicAngle: 0
UnderlinePosition: -93
UnderlineWidth: 90
Ascent: 800
Descent: 200
NeedsXUIDChange: 1
UniqueID: 4033224
FSType: 0
OS2WinAscent: 0
OS2WinAOffset: 1
OS2WinDescent: 0
OS2WinDOffset: 1
HheadAscent: 0
HheadAOffset: 1
HheadDescent: 0
HheadDOffset: 1
ScriptLang: 2
 1 latn 1 dflt 
 1 DFLT 1 dflt 
Encoding: adobestandard
UnicodeInterp: none
DisplaySize: -36
AntiAlias: 1
FitToEm: 1
WinInfo: 315 21 14
BeginPrivate: 7
BlueValues 23 [-20 0 554 574 739 759]
BlueScale 8 0.039625
StdHW 5 [123]
StdVW 5 [134]
StemSnapH 200 [113 123 129 133] 
systemdict /internaldict known
{1183615869 systemdict /internaldict get exec
/StemSnapLength 2 copy known { get 4 lt } { pop pop true } ifelse }
{ true } ifelse { pop [123 133] } if
StemSnapV 9 [134 138]
ForceBold 5 false
EndPrivate
BeginChars: 767 661
StartChar: exclam
Encoding: 33 33 2
Width: 280
Flags: W
HStem: 0 128<72 205> 719 20G<72 205>
VStem: 72 133<0 128 188 739>
Fore
72 188 m 1
 72 739 l 1
 205 739 l 1
 205 188 l 1
 72 188 l 1
72 0 m 1
 72 128 l 1
 205 128 l 1
 205 0 l 1
 72 0 l 1
EndSplineSet
EndChar
StartChar: quotedbl
Encoding: 34 34 3
Width: 360
Flags: W
HStem: 719 20G<74 150 207 283>
VStem: 74 76<513 739> 207 76<513 739>
Fore
283 513 m 1
 207 513 l 1
 207 739 l 1
 283 739 l 1
 283 513 l 1
150 513 m 1
 74 513 l 1
 74 739 l 1
 150 739 l 1
 150 513 l 1
EndSplineSet
EndChar
StartChar: numbersign
Encoding: 35 35 4
Width: 560
Flags: W
HStem: 0 21G<99 190 276 366> 233 100<34 131 234 308 411 500> 422 99<60 156 260 333 437 526> 719 20G<199 289 376 466>
DStem: 131 233 221 233 99 0 190 0 199 739 289 739 170 521 260 521 308 233 398 233 276 0 366 0 333 422 423 422 321 333 411 333 376 739 466 739 347 521 437 521
Fore
199 739 m 1
 289 739 l 1
 260 521 l 1
 347 521 l 1
 376 739 l 1
 466 739 l 1
 437 521 l 1
 526 521 l 1
 526 422 l 1
 423 422 l 1
 411 333 l 1
 500 333 l 1
 500 233 l 1
 398 233 l 1
 366 0 l 1
 276 0 l 1
 308 233 l 1
 221 233 l 1
 190 0 l 1
 99 0 l 1
 131 233 l 1
 34 233 l 1
 34 333 l 1
 144 333 l 1
 156 422 l 1
 60 422 l 1
 60 521 l 1
 170 521 l 1
 199 739 l 1
247 422 m 1
 234 333 l 1
 321 333 l 1
 333 422 l 1
 247 422 l 1
EndSplineSet
EndChar
StartChar: dollar
Encoding: 36 36 5
Width: 560
Flags: W
HStem: -86 249<266 347> 613 243<220 284>
VStem: 88 133<537 555> 220 127<-86 46 722 856> 361 133<233 253>
Fore
59 249 m 1xd8
 193 249 l 1
 196 197 229 163 277 163 c 0
 325 163 361 199 361 246 c 0
 361 278 350 298 322 316 c 0
 304 328 304 328 217 361 c 0
 132 392 88 454 88 541 c 0xe8
 88 597 108 649 144 685 c 0
 165 705 185 715 220 723 c 1
 220 856 l 1
 347 856 l 1
 347 723 l 1xd8
 415 710 468 636 471 551 c 1
 345 551 l 1
 337 591 314 613 280 613 c 0
 246 613 221 586 221 549 c 0xe8
 221 525 232 502 250 489 c 0
 266 476 284 468 335 449 c 0
 393 429 416 417 439 397 c 0
 474 366 494 314 494 251 c 0
 494 148 440 72 347 46 c 1
 347 -86 l 1
 220 -86 l 1
 220 46 l 1
 181 57 159 68 134 88 c 0
 87 125 59 181 59 236 c 2
 59 249 l 1xd8
EndSplineSet
EndChar
StartChar: percent
Encoding: 37 37 6
Width: 860
Flags: W
HStem: -13 107<654 662> 242 106<644 662> 391 107<202 214> 646 106<196 214>
VStem: 21 108<562 580> 276 107<572 580> 473 108<162 180> 728 107<168 180>
DStem: 528 739 631 739 223 0 325 0
Fore
528 739 m 1
 631 739 l 1
 325 0 l 1
 223 0 l 1
 528 739 l 1
655 348 m 0
 753 348 835 266 835 168 c 0
 835 68 754 -13 654 -13 c 0
 554 -13 473 68 473 167 c 0
 473 268 553 348 655 348 c 0
654 242 m 0
 614 242 581 209 581 168 c 0
 581 127 614 94 654 94 c 0
 694 94 728 128 728 168 c 0
 728 208 694 242 654 242 c 0
203 752 m 0
 301 752 383 670 383 572 c 0
 383 472 302 391 202 391 c 0
 102 391 21 472 21 571 c 0
 21 672 101 752 203 752 c 0
202 646 m 0
 162 646 129 613 129 572 c 0
 129 531 162 498 202 498 c 0
 242 498 276 532 276 572 c 0
 276 612 242 646 202 646 c 0
EndSplineSet
EndChar
StartChar: ampersand
Encoding: 38 38 7
Width: 680
Flags: W
HStem: -13 132<255 278> 627 125<288 308>
VStem: 35 133<210 228> 111 127<562 573> 361 127<562 572>
DStem: 464 98 532 214 569 -13 664 73 511 433 660 433 439 314 532 214
Fore
511 433 m 1xd8
 660 433 l 1
 532 214 l 1
 664 73 l 1
 569 -13 l 1
 464 98 l 1
 401 14 355 -13 276 -13 c 0
 141 -13 35 91 35 223 c 0xe8
 35 313 77 376 173 433 c 1
 125 487 111 516 111 569 c 0
 111 672 192 752 298 752 c 0
 406 752 488 674 488 570 c 0
 488 522 472 477 443 444 c 0
 427 426 411 414 372 389 c 1
 439 314 l 1
 511 433 l 1xd8
289 481 m 1
 345 511 361 529 361 566 c 0
 361 602 336 627 300 627 c 0
 265 627 238 601 238 567 c 0xd8
 238 540 250 519 289 481 c 1
372 198 m 1
 257 322 l 1
 195 294 168 262 168 215 c 0xe8
 168 160 210 119 268 119 c 0
 312 119 338 138 372 198 c 1
EndSplineSet
EndChar
StartChar: quoteright
Encoding: 39 8217 8
Width: 280
Flags: W
HStem: 719 20G<72 205>
Fore
72 611 m 1
 72 739 l 1
 205 739 l 1
 205 599 l 2
 205 542 185 505 141 482 c 1
 119 469 102 466 72 466 c 1
 72 533 l 1
 114 541 131 558 131 593 c 0
 131 597 131 604 130 611 c 1
 72 611 l 1
EndSplineSet
KernsSLIF: 121 4 1 0 119 4 1 0 118 6 1 0 116 12 1 0 115 -9 1 0 114 -1 1 0 46 -38 1 0 111 -31 1 0 100 -24 1 0 44 -38 1 0 262 -79 1 0 256 -79 1 0 257 -79 1 0 225 -151 1 0 65 -79 1 0
EndChar
StartChar: parenleft
Encoding: 40 40 9
Width: 380
Flags: W
Fore
349 8 m 1
 349 -137 l 1
 289 -116 250 -90 202 -38 c 1
 121 53 74 176 74 300 c 0
 74 441 132 578 228 664 c 0
 267 699 296 717 349 739 c 1
 349 595 l 1
 258 525 209 421 209 300 c 0
 209 183 267 61 349 8 c 1
EndSplineSet
EndChar
StartChar: parenright
Encoding: 41 41 10
Width: 380
Flags: W
Fore
37 594 m 1
 37 739 l 1
 97 718 136 692 184 640 c 1
 265 549 312 426 312 302 c 0
 312 161 254 24 158 -62 c 0
 119 -97 90 -115 37 -137 c 1
 37 7 l 1
 128 77 177 181 177 302 c 0
 177 419 119 541 37 594 c 1
EndSplineSet
EndChar
StartChar: asterisk
Encoding: 42 42 11
Width: 440
Flags: W
DStem: 116 706 179 738 169 620 223 652 168 561 223 529 116 472 180 441
Fore
116 706 m 1
 179 738 l 1
 223 652 l 1
 269 739 l 1
 328 703 l 1
 274 620 l 1
 371 626 l 1
 371 554 l 1
 274 559 l 1
 327 479 l 1
 270 441 l 1
 223 529 l 1
 180 441 l 1
 116 472 l 1
 168 561 l 1
 70 554 l 1
 70 625 l 1
 169 620 l 1
 116 706 l 1
EndSplineSet
EndChar
StartChar: plus
Encoding: 43 43 12
Width: 600
Flags: W
HStem: 312 118<51 243 363 555>
VStem: 243 120<117 312 430 625>
Fore
243 430 m 1
 243 625 l 1
 363 625 l 1
 363 430 l 1
 555 430 l 1
 555 312 l 1
 363 312 l 1
 363 117 l 1
 243 117 l 1
 243 312 l 1
 51 312 l 1
 51 430 l 1
 243 430 l 1
EndSplineSet
EndChar
StartChar: comma
Encoding: 44 44 13
Width: 280
Flags: W
HStem: -20 20G<72 130>
Fore
72 0 m 1
 72 128 l 1
 205 128 l 1
 205 -7 l 2
 205 -64 185 -100 141 -124 c 0
 119 -137 102 -140 72 -140 c 1
 72 -73 l 1
 114 -65 131 -49 131 -17 c 0
 131 -13 131 -6 130 0 c 1
 72 0 l 1
EndSplineSet
KernsSLIF: 39 -28 1 0 186 -27 1 0 49 -80 1 0
EndChar
StartChar: hyphen
Encoding: 45 45 14
Width: 420
Flags: W
HStem: 229 118<74 351>
Fore
74 229 m 1
 74 347 l 1
 351 347 l 1
 351 229 l 1
 74 229 l 1
EndSplineSet
KernsSLIF: 89 -68 1 0 87 -24 1 0 86 -47 1 0 84 -26 1 0 262 -15 1 0 256 -15 1 0 257 -15 1 0 225 -53 1 0 65 -15 1 0
EndChar
StartChar: period
Encoding: 46 46 15
Width: 280
Flags: W
HStem: 0 128<72 205>
Fore
72 0 m 1
 72 128 l 1
 205 128 l 1
 205 0 l 1
 72 0 l 1
EndSplineSet
KernsSLIF: 39 -28 1 0 186 -27 1 0 49 -80 1 0
EndChar
StartChar: slash
Encoding: 47 47 16
Width: 460
Flags: W
HStem: 719 20G<349 443>
DStem: 349 739 443 739 26 -128 120 -128
Fore
26 -128 m 1
 349 739 l 1
 443 739 l 1
 120 -128 l 1
 26 -128 l 1
EndSplineSet
EndChar
StartChar: zero
Encoding: 48 48 17
Width: 560
Flags: W
HStem: -13 122<269 286> 630 122<269 287>
VStem: 30 133<242 516> 392 133<226 516>
Fore
525 505 m 2
 525 247 l 2
 525 173 511 124 478 78 c 0
 435 18 369 -13 284 -13 c 0
 194 -13 123 20 77 81 c 0
 44 126 30 176 30 247 c 2
 30 498 l 2
 30 654 126 752 278 752 c 0
 428 752 525 655 525 505 c 2
163 498 m 2
 163 251 l 2
 163 159 204 109 280 109 c 0
 317 109 350 124 368 150 c 0
 385 173 392 202 392 248 c 2
 392 498 l 2
 392 583 351 630 279 630 c 0
 207 630 163 580 163 498 c 2
EndSplineSet
KernsSLIF: 55 -27 1 0 49 -61 1 0 52 17 1 0
EndChar
StartChar: one
Encoding: 49 49 18
Width: 560
Flags: W
HStem: 0 21G<246 379> 719 20G<153 379>
VStem: 246 133<0 739>
Fore
246 0 m 1
 246 614 l 1
 153 614 l 1
 153 739 l 1
 379 739 l 1
 379 0 l 1
 246 0 l 1
EndSplineSet
KernsSLIF: 48 -28 1 0 50 -45 1 0 51 -51 1 0 54 -49 1 0 55 -88 1 0 46 -45 1 0 49 -120 1 0 57 -47 1 0 52 -52 1 0 53 -39 1 0 56 -43 1 0 44 -45 1 0
EndChar
StartChar: two
Encoding: 50 50 19
Width: 560
Flags: W
HStem: 0 125<226 517> 630 122<273 291>
VStem: 34 131<484 505.9> 387 133<497.466 529>
DStem: 302 366 377 262 39 117 226 125
Fore
39 0 m 1
 39 117 l 1
 302 366 l 2
 362 423 387 466 387 514 c 0
 387 580 341 630 280 630 c 0
 211 630 165 572 165 484 c 1
 34 484 l 1
 34 555 45 599 73 643 c 0
 115 711 193 752 279 752 c 0
 416 752 520 648 520 512 c 0
 520 462 505 412 476 370 c 0
 454 336 431 311 377 262 c 2
 226 125 l 1
 517 125 l 1
 517 0 l 1
 39 0 l 1
EndSplineSet
KernsSLIF: 55 -28 1 0 49 -71 1 0 52 13 1 0
EndChar
StartChar: three
Encoding: 51 51 20
Width: 560
Flags: W
HStem: -13 122<254 272> 563 21G<70 205> 630 122<254 273>
VStem: 332 133<546 564> 385 133<222 244>
Fore
218 356 m 1xe8
 218 484 l 1
 254 485 272 487 289 494 c 0
 317 506 332 529 332 560 c 0
 332 601 305 630 267 630 c 0
 231 630 211 609 205 563 c 1
 70 563 l 1
 75 623 87 655 118 689 c 0
 155 729 208 752 266 752 c 0
 380 752 465 667 465 553 c 0xf0
 465 496 446 457 403 426 c 1
 479 392 518 328 518 235 c 0
 518 92 413 -13 270 -13 c 0
 128 -13 23 85 15 224 c 1
 149 224 l 1
 158 154 205 109 269 109 c 0
 336 109 385 161 385 232 c 0
 385 307 328 356 240 356 c 2
 218 356 l 1xe8
EndSplineSet
KernsSLIF: 55 -51 1 0 49 -79 1 0 52 13 1 0
EndChar
StartChar: four
Encoding: 52 52 21
Width: 560
Flags: W
HStem: 0 21G<319 452> 111 119<135 319 452 530> 719 20G<340 452>
VStem: 319 133<0 111 230 739>
DStem: 340 739 319 515 0 219 135 230
Fore
0 219 m 1
 340 739 l 1
 452 739 l 1
 452 230 l 1
 530 230 l 1
 530 111 l 1
 452 111 l 1
 452 0 l 1
 319 0 l 1
 319 111 l 1
 0 111 l 1
 0 219 l 1
319 230 m 1
 319 515 l 1
 135 230 l 1
 319 230 l 1
EndSplineSet
KernsSLIF: 55 -44 1 0 49 -76 1 0 52 19 1 0
EndChar
StartChar: five
Encoding: 53 53 22
Width: 560
Flags: W
HStem: -13 122<251 271> 377 122<263 286> 614 125<115 449>
VStem: 387 133<226 260>
DStem: 115 739 215 614 46 353 191 478
Fore
46 353 m 1
 115 739 l 1
 449 739 l 1
 449 614 l 1
 215 614 l 1
 191 478 l 1
 229 494 252 499 286 499 c 0
 421 499 520 392 520 247 c 0
 520 99 412 -13 269 -13 c 0
 189 -13 116 21 66 82 c 0
 31 125 15 165 12 221 c 1
 145 221 l 1
 158 149 201 109 265 109 c 0
 337 109 387 165 387 245 c 0
 387 320 335 377 267 377 c 0
 225 377 197 362 164 321 c 1
 46 353 l 1
EndSplineSet
KernsSLIF: 55 -53 1 0 49 -84 1 0 52 14 1 0
EndChar
StartChar: six
Encoding: 54 54 23
Width: 560
Flags: W
HStem: -13 122<280 294> 370 116<278 329> 719 20G<287 446>
VStem: 21 133<226 254> 400 133<226 254>
DStem: 287 739 446 739 94 449 269 476
Fore
287 739 m 1
 446 739 l 1
 269 476 l 1
 293 484 306 486 329 486 c 0
 447 486 533 387 533 252 c 0
 533 98 427 -13 280 -13 c 0
 131 -13 21 96 21 242 c 0
 21 313 41 369 94 449 c 2
 287 739 l 1
278 370 m 0
 204 370 154 317 154 239 c 0
 154 163 207 109 280 109 c 0
 351 109 400 162 400 239 c 0
 400 315 348 370 278 370 c 0
EndSplineSet
KernsSLIF: 55 -54 1 0 49 -83 1 0 52 20 1 0
EndChar
StartChar: seven
Encoding: 55 55 24
Width: 560
Flags: W
HStem: 0 21G<80 230> 614 125<65 360>
DStem: 360 614 500 614 80 0 230 0
Fore
80 0 m 1
 360 614 l 1
 65 614 l 1
 65 739 l 1
 500 739 l 1
 500 614 l 1
 230 0 l 1
 80 0 l 1
EndSplineSet
KernsSLIF: 50 -22 1 0 51 -35 1 0 54 -56 1 0 55 -27 1 0 46 -96 1 0 49 -71 1 0 52 -65 1 0 53 -36 1 0 56 -39 1 0 44 -96 1 0 58 -58 1 0
EndChar
StartChar: eight
Encoding: 56 56 25
Width: 560
Flags: W
HStem: -13 122<270 288> 341 128<279 288> 630 122<270 288>
VStem: 31 133<210 235> 76 127<535.907 554> 354 127<546 564> 390 133<210 234>
Fore
137 411 m 1xf2
 91 460 76 495 76 549 c 0
 76 662 166 752 279 752 c 0
 395 752 481 666 481 551 c 0xec
 481 489 461 445 419 411 c 1
 449 393 463 383 478 366 c 0
 506 333 523 284 523 232 c 0
 523 92 418 -13 278 -13 c 0
 139 -13 31 93 31 231 c 0
 31 279 46 327 73 360 c 0
 88 380 103 392 137 411 c 1xf2
280 630 m 0
 236 630 203 595 203 549 c 0
 203 505 237 469 279 469 c 0
 320 469 354 505 354 550 c 0
 354 595 321 630 280 630 c 0
279 341 m 0
 215 341 164 291 164 226 c 0
 164 160 214 109 279 109 c 0
 342 109 390 159 390 225 c 0xf2
 390 289 340 341 279 341 c 0
EndSplineSet
KernsSLIF: 55 -43 1 0 49 -75 1 0 52 16 1 0
EndChar
StartChar: nine
Encoding: 57 57 26
Width: 560
Flags: W
HStem: 0 21G<107 266> 251 118<225 276> 630 122<273 287>
VStem: 22 133<485 513> 399 133<485 513>
DStem: 285 263 459 290 107 0 266 0
Fore
266 0 m 1
 107 0 l 1
 285 263 l 1
 261 254 247 251 225 251 c 0
 110 251 22 353 22 487 c 0
 22 641 127 752 273 752 c 0
 422 752 532 643 532 496 c 0
 532 426 512 369 459 290 c 2
 266 0 l 1
273 630 m 0
 203 630 155 576 155 500 c 0
 155 424 206 369 276 369 c 0
 349 369 399 423 399 500 c 0
 399 576 346 630 273 630 c 0
EndSplineSet
KernsSLIF: 55 -25 1 0 49 -69 1 0 52 -30 1 0
EndChar
StartChar: colon
Encoding: 58 58 27
Width: 280
Flags: W
HStem: 0 128<72 205> 369 133<72 205>
VStem: 72 133<0 128 369 502>
Fore
72 0 m 1
 72 128 l 1
 205 128 l 1
 205 0 l 1
 72 0 l 1
72 369 m 1
 72 502 l 1
 205 502 l 1
 205 369 l 1
 72 369 l 1
EndSplineSet
EndChar
StartChar: semicolon
Encoding: 59 59 28
Width: 280
Flags: W
HStem: -20 20G<72 131> 369 133<72 205>
VStem: 72 133<-1 128 369 502>
Fore
72 0 m 1
 72 128 l 1
 205 128 l 1
 205 -7 l 2
 205 -56 193 -84 162 -110 c 0
 138 -131 109 -140 72 -140 c 1
 72 -73 l 1
 114 -65 131 -49 131 -17 c 2
 131 0 l 1
 72 0 l 1
72 369 m 1
 72 502 l 1
 205 502 l 1
 205 369 l 1
 72 369 l 1
EndSplineSet
EndChar
StartChar: less
Encoding: 60 60 29
Width: 600
Flags: W
DStem: 49 258 217 308 558 33 558 149 558 582 558 465 49 356 217 308
Fore
558 582 m 1
 558 465 l 1
 217 308 l 1
 558 149 l 1
 558 33 l 1
 49 258 l 1
 49 356 l 1
 558 582 l 1
EndSplineSet
EndChar
StartChar: equal
Encoding: 61 61 30
Width: 600
Flags: W
HStem: 210 118<51 555> 405 118<51 555>
Fore
555 523 m 1
 555 405 l 1
 51 405 l 1
 51 523 l 1
 555 523 l 1
555 328 m 1
 555 210 l 1
 51 210 l 1
 51 328 l 1
 555 328 l 1
EndSplineSet
EndChar
StartChar: greater
Encoding: 62 62 31
Width: 600
Flags: W
DStem: 48 465 48 582 390 306 557 356 390 306 557 258 48 149 48 33
Fore
48 33 m 1
 48 149 l 1
 390 306 l 1
 48 465 l 1
 48 582 l 1
 557 356 l 1
 557 258 l 1
 48 33 l 1
EndSplineSet
EndChar
StartChar: question
Encoding: 63 63 32
Width: 560
Flags: W
HStem: 0 128<185 318> 620 132<241.282 262>
VStem: 185 133<0 128 187 220.233> 352 133<518 529>
Fore
318 187 m 1
 185 187 l 1
 184 311 208 361 307 442 c 1
 337 468 352 496 352 527 c 0
 352 581 312 620 257 620 c 0
 203 620 174 588 165 520 c 1
 32 520 l 1
 37 586 51 628 80 665 c 0
 122 720 189 752 260 752 c 0
 388 752 485 654 485 523 c 0
 485 456 460 412 383 344 c 0
 328 297 319 274 318 187 c 1
185 0 m 1
 185 128 l 1
 318 128 l 1
 318 0 l 1
 185 0 l 1
EndSplineSet
EndChar
StartChar: at
Encoding: 64 64 33
Width: 740
Flags: W
HStem: -13 73<377 420> 154 106<322 355> 465 112<359 381> 694 72<370 403>
VStem: 3 71<353 399> 157 120<338 357> 455 91<263 374> 672 73<395 420>
Fore
580 573 m 1
 547 278 l 1
 546 273 546 270 546 263 c 0
 546 246 555 237 573 237 c 0
 626 237 672 319 672 413 c 0
 672 580 558 694 390 694 c 0
 208 694 74 558 74 374 c 0
 74 285 111 198 175 139 c 0
 229 90 313 60 401 60 c 0
 460 60 506 74 550 107 c 1
 596 47 l 1
 542 5 484 -13 399 -13 c 0
 272 -13 170 31 96 119 c 1
 36 188 3 281 3 377 c 0
 3 598 169 766 388 766 c 0
 529 766 652 695 708 581 c 0
 732 532 745 465 745 397 c 0
 745 318 723 259 679 213 c 1
 640 175 589 154 534 154 c 0
 481 154 448 172 435 208 c 1
 410 171 375 154 322 154 c 0
 222 154 157 228 157 345 c 0
 157 477 244 577 359 577 c 0
 413 577 444 562 477 519 c 1
 484 573 l 1
 580 573 l 1
379 465 m 0
 323 465 277 416 277 355 c 0
 277 297 307 260 355 260 c 0
 413 260 455 307 455 374 c 0
 455 430 426 465 379 465 c 0
EndSplineSet
EndChar
StartChar: A
Encoding: 65 65 34
Width: 740
Flags: W
HStem: 0 21G<7 158 582 733> 191 131<290 503> 719 20G<315 423>
DStem: 315 739 240 191 7 0 158 0 503 191 423 739 582 0 733 0
Fore
7 0 m 1
 315 739 l 1
 423 739 l 1
 733 0 l 1
 582 0 l 1
 503 191 l 1
 240 191 l 1
 158 0 l 1
 7 0 l 1
290 322 m 1
 448 322 l 1
 369 546 l 1
 290 322 l 1
EndSplineSet
KernsSLIF: 121 -43 0 0 119 -40 0 0 118 -42 0 0 117 -14 0 0 116 -10 0 0 39 -74 0 0 186 -73 0 0 113 -22 0 0 46 20 0 0 111 -23 0 0 45 -17 0 0 172 -16 0 0 171 -16 0 0 103 -20 0 0 101 -23 0 0 100 -20 0 0 44 20 0 0 332 -23 0 0 99 -23 0 0 97 -20 0 0 89 -83 0 0 87 -55 0 0 86 -74 0 0 300 -31 0 0 298 -31 0 0 301 -31 0 0 299 -31 0 0 85 -31 0 0 84 -41 0 0 81 -37 0 0 286 -36 0 0 79 -36 0 0 71 -36 0 0 264 -37 0 0 67 -36 0 0
EndChar
StartChar: B
Encoding: 66 66 35
Width: 580
Flags: W
HStem: 0 21G<68 265> 605 134<68 276>
VStem: 68 137<0 320 0 605> 367 137<527 544> 410 138<207 225>
Fore
68 0 m 1xe8
 68 739 l 1
 220 739 l 2
 330 739 376 731 420 703 c 0
 473 669 504 611 504 542 c 0xf0
 504 473 481 434 422 403 c 1
 470 383 491 369 512 341 c 0
 535 311 548 266 548 220 c 0
 548 144 513 78 452 41 c 0
 407 13 347 0 265 0 c 2
 68 0 l 1xe8
205 131 m 1
 273 131 l 2
 369 131 410 159 410 223 c 0xe8
 410 289 365 320 270 320 c 2
 205 320 l 1
 205 131 l 1
205 454 m 1
 249 454 l 2
 332 454 367 477 367 530 c 0xf0
 367 581 332 605 261 605 c 2
 205 605 l 1
 205 454 l 1
EndSplineSet
KernsSLIF: 89 -39 0 0 87 -16 0 0 86 -33 0 0 233 4 0 0 288 2 0 0 286 2 0 0 289 2 0 0 287 2 0 0 79 2 0 0 261 -18 0 0 262 -18 0 0 256 -18 0 0 259 -18 0 0 257 -18 0 0 225 -36 0 0 65 -18 0 0
EndChar
StartChar: C
Encoding: 67 67 36
Width: 780
Flags: W
HStem: -13 132<397 431> 620 132<397 431>
VStem: 30 138<354 388>
Fore
599 206 m 1
 760 206 l 1
 702 71 570 -13 419 -13 c 0
 203 -13 30 159 30 372 c 0
 30 581 201 752 410 752 c 0
 500 752 587 722 655 667 c 0
 705 626 731 591 760 527 c 1
 607 527 l 1
 557 592 499 620 413 620 c 0
 338 620 274 592 229 539 c 0
 191 495 168 431 168 371 c 0
 168 233 280 119 416 119 c 0
 487 119 539 143 599 206 c 1
EndSplineSet
KernsSLIF: 286 -6 0 0 287 -6 0 0 79 -6 0 0 75 6 0 0 72 6 0 0 262 -17 0 0 256 -17 0 0 257 -17 0 0 225 -41 0 0 65 -17 0 0
EndChar
StartChar: D
Encoding: 68 68 37
Width: 700
Flags: W
HStem: 0 21G<68 240> 608 131<68 277>
VStem: 68 137<0 608> 522 138<368 385>
Fore
68 0 m 1
 68 739 l 1
 237 739 l 2
 353 739 441 721 499 686 c 0
 602 624 660 508 660 368 c 0
 660 219 593 97 479 41 c 0
 419 11 352 0 240 0 c 2
 68 0 l 1
205 131 m 1
 235 131 l 2
 317 131 374 141 415 164 c 0
 481 200 522 279 522 368 c 0
 522 463 479 542 409 578 c 0
 366 600 319 608 232 608 c 2
 205 608 l 1
 205 131 l 1
EndSplineSet
KernsSLIF: 89 -50 0 0 88 -33 0 0 87 -21 0 0 86 -39 0 0 84 -24 0 0 74 -14 0 0 261 -38 0 0 262 -38 0 0 258 -38 0 0 256 -38 0 0 259 -38 0 0 257 -38 0 0 65 -38 0 0
EndChar
StartChar: E
Encoding: 69 69 38
Width: 520
Flags: W
HStem: 0 131<205 465> 303 131<205 454> 608 131<68 465>
VStem: 68 137<0 303 0 608>
Fore
68 0 m 1
 68 739 l 1
 465 739 l 1
 465 608 l 1
 205 608 l 1
 205 434 l 1
 454 434 l 1
 454 303 l 1
 205 303 l 1
 205 131 l 1
 465 131 l 1
 465 0 l 1
 68 0 l 1
EndSplineSet
EndChar
StartChar: F
Encoding: 70 70 39
Width: 480
Flags: W
HStem: 0 21G<68 205> 303 131<205 433> 608 131<68 444>
VStem: 68 137<0 303 0 608>
Fore
68 0 m 1
 68 739 l 1
 444 739 l 1
 444 608 l 1
 205 608 l 1
 205 434 l 1
 433 434 l 1
 433 303 l 1
 205 303 l 1
 205 0 l 1
 68 0 l 1
EndSplineSet
KernsSLIF: 117 -12 0 0 114 -9 0 0 46 -60 0 0 249 -9 0 0 250 -9 0 0 351 -9 0 0 352 -9 0 0 111 -9 0 0 106 -22 0 0 105 -9 0 0 45 5 0 0 335 -9 0 0 101 -9 0 0 44 -60 0 0 328 -9 0 0 241 -8 0 0 322 -9 0 0 323 -9 0 0 97 -9 0 0 286 -3 0 0 79 -3 0 0 74 -55 0 0 261 -53 0 0 262 -53 0 0 258 -53 0 0 256 -53 0 0 259 -53 0 0 257 -53 0 0 65 -53 0 0
EndChar
StartChar: G
Encoding: 71 71 40
Width: 840
Flags: W
HStem: -13 132<413 447> 249 128<335 641> 620 132<397 435>
VStem: 30 138<354 388>
Fore
335 249 m 1
 335 377 l 1
 818 377 l 1
 818 359 l 2
 818 264 780 172 712 101 c 0
 639 26 543 -13 432 -13 c 0
 205 -13 30 155 30 371 c 0
 30 583 203 752 419 752 c 0
 580 752 732 655 780 522 c 1
 619 522 l 1
 573 586 502 620 416 620 c 0
 345 620 280 594 237 547 c 0
 195 503 168 433 168 369 c 0
 168 228 279 119 424 119 c 0
 521 119 601 167 641 249 c 1
 335 249 l 1
EndSplineSet
KernsSLIF: 89 -49 0 0 87 -20 0 0 86 -38 0 0 84 -24 0 0 261 -35 0 0 262 -35 0 0 258 -35 0 0 256 -35 0 0 259 -35 0 0 257 -35 0 0 225 -60 0 0 65 -35 0 0
EndChar
StartChar: H
Encoding: 72 72 41
Width: 680
Flags: W
HStem: 0 21G<68 205 469 606> 310 131<205 469> 719 20G<68 205 469 606>
VStem: 68 137<0 310 0 739> 469 137<0 739>
Fore
68 0 m 1
 68 739 l 1
 205 739 l 1
 205 441 l 1
 469 441 l 1
 469 739 l 1
 606 739 l 1
 606 0 l 1
 469 0 l 1
 469 310 l 1
 205 310 l 1
 205 0 l 1
 68 0 l 1
EndSplineSet
EndChar
StartChar: I
Encoding: 73 73 42
Width: 280
Flags: W
HStem: 0 21G<68 205> 719 20G<68 205>
VStem: 68 137<0 739>
Fore
68 0 m 1
 68 739 l 1
 205 739 l 1
 205 0 l 1
 68 0 l 1
EndSplineSet
EndChar
StartChar: J
Encoding: 74 74 43
Width: 480
Flags: W
HStem: -13 132<200 218> 719 20G<277 414>
VStem: 277 137<194 739>
Fore
277 739 m 1
 414 739 l 1
 414 212 l 2
 414 73 338 -13 214 -13 c 0
 152 -13 94 12 56 54 c 0
 26 87 15 117 9 175 c 1
 146 175 l 1
 155 138 177 119 211 119 c 0
 255 119 277 151 277 216 c 2
 277 739 l 1
EndSplineSet
KernsSLIF: 262 -27 0 0 256 -27 0 0 225 -41 0 0 65 -27 0 0
EndChar
StartChar: K
Encoding: 75 75 44
Width: 620
Flags: W
HStem: 0 21G<68 205 434 599> 719 20G<68 205 434 599>
VStem: 68 137<0 325 0 739>
Fore
68 0 m 1
 68 739 l 1
 205 739 l 1
 205 420 l 1
 434 739 l 1
 599 739 l 1
 321 376 l 1
 599 0 l 1
 434 0 l 1
 205 325 l 1
 205 0 l 1
 68 0 l 1
EndSplineSet
KernsSLIF: 121 -59 0 0 362 -44 0 0 117 -46 0 0 351 -55 0 0 352 -55 0 0 111 -55 0 0 45 -68 0 0 101 -54 0 0 328 -51 0 0 241 -52 0 0 322 -51 0 0 97 -51 0 0 84 21 0 0 83 -27 0 0 286 -46 0 0 287 -46 0 0 234 -48 0 0 79 -46 0 0 71 -46 0 0 67 -46 0 0
EndChar
StartChar: L
Encoding: 76 76 45
Width: 440
Flags: W
HStem: 0 131<204 431> 719 20G<68 205>
VStem: 68 137<0 739>
Fore
68 0 m 1
 68 739 l 1
 205 739 l 1
 205 131 l 1
 431 131 l 1
 431 0 l 1
 68 0 l 1
EndSplineSet
KernsSLIF: 121 -48 0 0 362 -5 0 0 117 -5 0 0 39 -72 0 0 186 -71 0 0 45 -26 0 0 89 -82 0 0 87 -54 0 0 86 -73 0 0 298 -12 0 0 85 -12 0 0 84 -41 0 0 83 17 0 0 290 -21 0 0 288 -21 0 0 286 -21 0 0 289 -21 0 0 287 -21 0 0 79 -21 0 0 71 -22 0 0 264 -25 0 0 67 -22 0 0 262 26 0 0 256 26 0 0 257 26 0 0 225 20 0 0 65 26 0 0
EndChar
StartChar: M
Encoding: 77 77 46
Width: 900
Flags: W
HStem: 0 21G<68 205 398 510 703 840> 719 20G<68 256 652 840>
VStem: 68 137<0 554> 703 137<0 739>
DStem: 205 554 256 739 398 0 455 179 652 739 703 554 455 179 510 0
Fore
68 0 m 1
 68 739 l 1
 256 739 l 1
 455 179 l 1
 652 739 l 1
 840 739 l 1
 840 0 l 1
 703 0 l 1
 703 554 l 1
 510 0 l 1
 398 0 l 1
 205 554 l 1
 205 0 l 1
 68 0 l 1
EndSplineSet
EndChar
StartChar: N
Encoding: 78 78 47
Width: 740
Flags: W
HStem: 0 21G<68 205 514 667> 719 20G<68 224 530 667>
VStem: 68 137<0 537> 530 137<201 739>
DStem: 205 537 224 739 514 0 530 201
Fore
68 0 m 1
 68 739 l 1
 224 739 l 1
 530 201 l 1
 530 739 l 1
 667 739 l 1
 667 0 l 1
 514 0 l 1
 205 537 l 1
 205 0 l 1
 68 0 l 1
EndSplineSet
KernsSLIF: 362 9 0 0 117 9 0 0 46 8 0 0 249 5 0 0 351 3 0 0 352 3 0 0 111 3 0 0 335 3 0 0 101 3 0 0 44 8 0 0 328 5 0 0 241 4 0 0 322 5 0 0 323 5 0 0 97 5 0 0 286 7 0 0 287 7 0 0 79 7 0 0 71 7 0 0 264 7 0 0 67 7 0 0 262 -6 0 0 256 -6 0 0 257 -6 0 0 225 -11 0 0 65 -6 0 0
EndChar
StartChar: O
Encoding: 79 79 48
Width: 840
Flags: W
HStem: -13 132<397 431> 620 132<397 431>
VStem: 30 138<369 388> 662 138<354 388>
Fore
420 752 m 0
 631 752 800 581 800 370 c 0
 800 154 634 -13 419 -13 c 0
 202 -13 30 156 30 369 c 0
 30 585 200 752 420 752 c 0
418 620 m 0
 276 620 168 512 168 369 c 0
 168 229 278 119 418 119 c 0
 558 119 662 226 662 368 c 0
 662 510 555 620 418 620 c 0
EndSplineSet
KernsSLIF: 89 -53 0 0 88 -36 0 0 87 -24 0 0 86 -42 0 0 84 -29 0 0 262 -40 0 0 256 -40 0 0 257 -40 0 0 225 -70 0 0 65 -40 0 0
EndChar
StartChar: P
Encoding: 80 80 49
Width: 560
Flags: W
HStem: 0 21G<68 205> 608 131<68 293>
VStem: 68 137<0 281 0 608> 402 138<495 513>
Fore
68 0 m 1
 68 739 l 1
 251 739 l 2
 349 739 398 730 440 705 c 0
 504 666 540 596 540 511 c 0
 540 426 503 351 443 314 c 0
 402 289 354 281 249 281 c 2
 205 281 l 1
 205 0 l 1
 68 0 l 1
205 412 m 1
 245 412 l 2
 298 412 336 418 357 429 c 0
 386 445 402 473 402 509 c 0
 402 555 378 590 338 601 c 0
 316 606 296 608 251 608 c 2
 205 608 l 1
 205 412 l 1
EndSplineSet
KernsSLIF: 46 -95 0 0 249 -20 0 0 250 -20 0 0 351 -20 0 0 352 -20 0 0 111 -20 0 0 45 -20 0 0 335 -20 0 0 101 -20 0 0 44 -95 0 0 328 -18 0 0 241 -19 0 0 322 -18 0 0 323 -18 0 0 97 -18 0 0 74 -68 0 0 262 -60 0 0 256 -60 0 0 257 -60 0 0 225 -108 0 0 65 -60 0 0
EndChar
StartChar: Q
Encoding: 81 81 50
Width: 840
Flags: W
HStem: -15 122<797 812> -13 132<430 447> 235 112<269 303> 620 132<413 447>
VStem: 30 137<345 386> 677 138<345 386>
Fore
828 110 m 1xbc
 828 -14 l 1
 820 -15 814 -15 810 -15 c 0xbc
 746 -15 698 2 635 45 c 1
 583 9 505 -13 430 -13 c 0x7c
 207 -13 30 157 30 370 c 0
 30 585 202 752 424 752 c 0
 648 752 815 587 815 366 c 0
 815 268 786 191 726 129 c 1
 757 113 777 107 801 107 c 0
 808 107 814 108 828 110 c 1xbc
519 138 m 1
 434 206 363 235 282 235 c 0
 258 235 243 233 211 227 c 1
 267 153 337 119 430 119 c 0x7c
 467 119 488 124 519 138 c 1
617 204 m 1
 657 245 677 297 677 364 c 0
 677 511 568 620 422 620 c 0
 277 620 167 512 167 369 c 0
 167 360 167 352 169 334 c 1
 203 343 239 347 283 347 c 0
 401 347 527 293 617 204 c 1
EndSplineSet
EndChar
StartChar: R
Encoding: 82 82 51
Width: 580
Flags: W
HStem: 0 21G<68 205 399 568> 608 131<68 293>
VStem: 68 137<0 283 0 608> 423 138<479 513>
Fore
68 0 m 1
 68 739 l 1
 281 739 l 2
 382 739 435 725 483 684 c 0
 534 641 561 577 561 502 c 0
 561 429 535 370 485 327 c 0
 453 300 425 287 368 273 c 5
 568 0 l 5
 399 0 l 5
 205 283 l 5
 205 0 l 1
 68 0 l 1
205 386 m 1
 272 386 l 2
 378 386 423 420 423 498 c 0
 423 534 411 563 387 582 c 0
 365 601 330 608 266 608 c 2
 205 608 l 1
 205 386 l 1
EndSplineSet
KernsSLIF: 121 15 0 0 362 8 0 0 363 8 0 0 117 8 0 0 250 -5 0 0 351 -6 0 0 352 -6 0 0 111 -6 0 0 45 -15 0 0 335 -5 0 0 101 -5 0 0 328 -3 0 0 241 -4 0 0 322 -3 0 0 323 -3 0 0 97 -3 0 0 89 -17 0 0 87 -5 0 0 86 -12 0 0 298 10 0 0 85 10 0 0 84 12 0 0 286 5 0 0 287 5 0 0 234 2 0 0 79 5 0 0 71 5 0 0 264 5 0 0 67 5 0 0
EndChar
StartChar: S
Encoding: 83 83 52
Width: 520
Flags: W
HStem: -13 132<238.492 271> 620 132<241.327 260>
VStem: 41 138<540 547> 357 136<207 224>
Fore
14 211 m 1
 157 211 l 1
 163 149 196 119 257 119 c 0
 316 119 357 156 357 209 c 0
 357 240 345 266 323 284 c 0
 300 301 294 304 195 341 c 0
 96 378 41 449 41 542 c 0
 41 659 137 752 256 752 c 0
 325 752 389 723 429 673 c 0
 459 636 472 598 475 542 c 1
 333 542 l 1
 329 592 301 620 255 620 c 0
 210 620 179 589 179 545 c 0
 179 518 193 495 220 478 c 0
 230 472 232 471 302 445 c 0
 374 418 398 405 427 378 c 0
 470 338 493 285 493 224 c 0
 493 90 390 -13 257 -13 c 0
 179 -13 106 20 62 77 c 0
 32 116 19 153 14 211 c 1
EndSplineSet
KernsSLIF: 116 12 0 0 89 -27 0 0 87 -10 0 0 86 -22 0 0 84 2 0 0 262 -14 0 0 256 -14 0 0 257 -14 0 0 225 -30 0 0 65 -14 0 0
EndChar
StartChar: T
Encoding: 84 84 53
Width: 420
Flags: W
HStem: 0 21G<144 281> 608 131<7 144 7 418>
VStem: 144 137<0 608>
Fore
144 0 m 1
 144 608 l 1
 7 608 l 1
 7 739 l 1
 418 739 l 1
 418 608 l 1
 281 608 l 1
 281 0 l 1
 144 0 l 1
EndSplineSet
KernsSLIF: 121 -43 0 0 119 -45 0 0 118 -40 0 0 117 -26 0 0 59 -33 0 0 115 -25 0 0 114 -21 0 0 46 -25 0 0 249 -32 0 0 111 -36 0 0 106 -6 0 0 105 2 0 0 45 -26 0 0 172 -25 0 0 171 -25 0 0 103 -32 0 0 101 -35 0 0 44 -25 0 0 58 -33 0 0 99 -35 0 0 241 -34 0 0 97 -33 0 0 89 31 0 0 87 30 0 0 86 29 0 0 83 7 0 0 290 -22 0 0 233 -19 0 0 288 -22 0 0 286 -22 0 0 289 -22 0 0 287 -22 0 0 234 -24 0 0 79 -22 0 0 74 -39 0 0 71 -22 0 0 67 -22 0 0 261 -39 0 0 262 -39 0 0 258 -39 0 0 256 -39 0 0 259 -39 0 0 257 -39 0 0 225 -44 0 0 65 -39 0 0
EndChar
StartChar: U
Encoding: 85 85 54
Width: 640
Flags: W
HStem: -13 132<307 325> 719 20G<68 205 430 567>
VStem: 68 137<271 739> 430 137<271 739>
Fore
68 739 m 1
 205 739 l 1
 205 271 l 2
 205 216 209 193 223 169 c 0
 242 138 278 119 318 119 c 0
 357 119 393 138 412 169 c 0
 426 193 430 216 430 271 c 2
 430 739 l 1
 567 739 l 1
 567 271 l 2
 567 185 553 130 517 82 c 0
 473 23 397 -13 317 -13 c 0
 231 -13 151 29 108 97 c 0
 80 142 68 192 68 271 c 2
 68 739 l 1
EndSplineSet
KernsSLIF: 114 8 0 0 46 -8 0 0 112 8 0 0 110 8 0 0 109 8 0 0 44 -11 0 0 261 -34 0 0 262 -34 0 0 256 -34 0 0 259 -34 0 0 257 -34 0 0 225 -55 0 0 65 -34 0 0
EndChar
StartChar: V
Encoding: 86 86 55
Width: 700
Flags: W
HStem: 0 21G<296 408> 719 20G<8 152 550 694>
Fore
296 0 m 1
 8 739 l 1
 152 739 l 1
 351 177 l 1
 550 739 l 1
 694 739 l 1
 408 0 l 1
 296 0 l 1
EndSplineSet
KernsSLIF: 121 -14 0 0 117 -39 0 0 59 -51 0 0 114 -35 0 0 46 -80 0 0 249 -55 0 0 111 -58 0 0 45 -48 0 0 172 -47 0 0 171 -47 0 0 103 -54 0 0 101 -58 0 0 44 -80 0 0 58 -51 0 0 241 -56 0 0 97 -55 0 0 84 28 0 0 83 -19 0 0 290 -36 0 0 233 -34 0 0 288 -36 0 0 286 -36 0 0 289 -36 0 0 287 -36 0 0 79 -36 0 0 71 -36 0 0 67 -36 0 0 261 -72 0 0 262 -72 0 0 258 -72 0 0 256 -72 0 0 259 -72 0 0 257 -72 0 0 225 -119 0 0 65 -72 0 0
EndChar
StartChar: W
Encoding: 87 87 56
Width: 900
Flags: W
HStem: 0 21G<224 332 573 682> 719 20G<7 147 403 503 758 898>
DStem: 403 739 454 489 277 223 332 0 454 489 503 739 573 0 627 223
Fore
224 0 m 1
 7 739 l 1
 147 739 l 1
 277 223 l 1
 403 739 l 1
 503 739 l 1
 627 223 l 1
 758 739 l 1
 898 739 l 1
 682 0 l 1
 573 0 l 1
 454 489 l 1
 332 0 l 1
 224 0 l 1
EndSplineSet
KernsSLIF: 121 -3 0 0 117 -24 0 0 59 -34 0 0 114 -18 0 0 46 -48 0 0 249 -31 0 0 111 -34 0 0 105 2 0 0 45 -24 0 0 172 -23 0 0 171 -23 0 0 103 -30 0 0 101 -34 0 0 44 -48 0 0 58 -34 0 0 241 -32 0 0 97 -31 0 0 84 30 0 0 83 -5 0 0 290 -16 0 0 233 -14 0 0 288 -16 0 0 286 -16 0 0 289 -16 0 0 287 -16 0 0 79 -16 0 0 71 -17 0 0 67 -16 0 0 261 -52 0 0 262 -52 0 0 258 -52 0 0 256 -52 0 0 259 -52 0 0 257 -52 0 0 225 -83 0 0 65 -52 0 0
EndChar
StartChar: X
Encoding: 88 88 57
Width: 680
Flags: W
HStem: 0 21G<5 168 517 676> 719 20G<5 168 517 676>
DStem: 5 739 168 739 259 368 340 481 259 368 340 255 5 0 168 0 340 255 420 368 517 0 676 0 517 739 676 739 340 481 420 368
Fore
5 0 m 1
 259 368 l 1
 5 739 l 1
 168 739 l 1
 340 481 l 1
 517 739 l 1
 676 739 l 1
 420 368 l 1
 676 0 l 1
 517 0 l 1
 340 255 l 1
 168 0 l 1
 5 0 l 1
EndSplineSet
KernsSLIF: 121 -42 0 0 117 -32 0 0 111 -42 0 0 45 -53 0 0 101 -41 0 0 97 -39 0 0 81 -32 0 0 286 -32 0 0 79 -32 0 0 67 -32 0 0
EndChar
StartChar: Y
Encoding: 89 89 58
Width: 620
Flags: W
HStem: 0 21G<246 383> 719 20G<3 151 478 626>
VStem: 246 137<0 273>
Fore
246 0 m 1
 246 273 l 1
 3 739 l 1
 151 739 l 1
 315 399 l 1
 478 739 l 1
 626 739 l 1
 383 273 l 1
 383 0 l 1
 246 0 l 1
EndSplineSet
KernsSLIF: 118 -18 0 0 117 -46 0 0 59 -61 0 0 46 -75 0 0 112 -41 0 0 249 -64 0 0 111 -67 0 0 105 6 0 0 45 -66 0 0 172 -62 0 0 171 -62 0 0 103 -63 0 0 101 -67 0 0 44 -75 0 0 58 -61 0 0 241 -66 0 0 97 -64 0 0 84 34 0 0 83 -20 0 0 290 -44 0 0 233 -41 0 0 288 -44 0 0 286 -44 0 0 289 -44 0 0 287 -44 0 0 79 -44 0 0 71 -44 0 0 67 -44 0 0 261 -78 0 0 262 -78 0 0 258 -78 0 0 256 -78 0 0 259 -78 0 0 257 -78 0 0 225 -93 0 0 65 -78 0 0
EndChar
StartChar: Z
Encoding: 90 90 59
Width: 500
Flags: W
HStem: 0 131<183 480> 608 131<33 298>
DStem: 298 608 461 616 18 116 183 131
Fore
18 116 m 1
 298 608 l 1
 33 608 l 1
 33 739 l 1
 461 739 l 1
 461 616 l 1
 183 131 l 1
 480 131 l 1
 480 0 l 1
 18 0 l 1
 18 116 l 1
EndSplineSet
KernsSLIF: 121 -13 0 0 118 -11 0 0
EndChar
StartChar: bracketleft
Encoding: 91 91 60
Width: 320
Flags: W
VStem: 74 135<150 448>
Fore
292 739 m 1
 292 592 l 1
 256 577 240 563 229 539 c 0
 216 510 209 469 209 419 c 2
 209 164 l 2
 209 124 216 89 229 62 c 0
 241 37 257 23 292 10 c 1
 292 -137 l 1
 213 -119 164 -86 123 -23 c 0
 90 29 74 96 74 187 c 2
 74 446 l 2
 74 539 98 607 150 662 c 0
 186 700 220 718 292 739 c 1
EndSplineSet
EndChar
StartChar: backslash
Encoding: 92 92 61
Width: 640
Flags: W
HStem: 0 21G<409 503> 719 20G<84 178>
DStem: 84 739 178 739 409 0 503 0
Fore
503 0 m 1
 409 0 l 1
 84 739 l 1
 178 739 l 1
 503 0 l 1
EndSplineSet
EndChar
StartChar: bracketright
Encoding: 93 93 62
Width: 320
Flags: W
VStem: 120 135<154 440>
Fore
37 -137 m 1
 37 10 l 1
 73 25 89 39 100 63 c 0
 113 92 120 133 120 183 c 2
 120 438 l 2
 120 478 113 513 100 540 c 0
 88 565 72 578 37 592 c 1
 37 739 l 1
 116 721 166 688 206 625 c 0
 239 573 255 506 255 415 c 2
 255 156 l 2
 255 63 231 -5 179 -60 c 0
 143 -97 109 -116 37 -137 c 1
EndSplineSet
EndChar
StartChar: asciicircum
Encoding: 94 94 63
Width: 600
Flags: W
HStem: 719 20G<242 364>
DStem: 242 739 303 589 63 363 167 313 303 589 364 739 439 313 543 363
Fore
167 313 m 1
 63 363 l 1
 242 739 l 1
 364 739 l 1
 543 363 l 1
 439 313 l 1
 303 589 l 1
 167 313 l 1
EndSplineSet
EndChar
StartChar: underscore
Encoding: 95 95 64
Width: 500
Flags: W
HStem: -138 90<0 500>
Fore
0 -48 m 1
 500 -48 l 1
 500 -138 l 1
 0 -138 l 1
 0 -48 l 1
EndSplineSet
EndChar
StartChar: quoteleft
Encoding: 96 8216 65
Width: 280
Flags: W
VStem: 72 74<466 627> 72 133<466 599>
Fore
205 599 m 1x40
 205 466 l 1x40
 72 466 l 1
 72 606 l 2x80
 72 654 84 683 115 709 c 0
 139 729 169 739 205 739 c 1
 205 672 l 1x40
 162 664 146 649 146 615 c 0x80
 146 612 146 605 147 599 c 1
 205 599 l 1x40
EndSplineSet
KernsSLIF: 89 -1 1 0 87 15 1 0 86 6 1 0 84 7 1 0 262 -76 1 0 256 -76 1 0 257 -76 1 0 225 -148 1 0 65 -76 1 0
EndChar
StartChar: a
Encoding: 97 97 66
Width: 660
Flags: W
HStem: -13 122<307 335> 445 122<307 335>
VStem: 30 134<258 292> 489 126<258 554>
Fore
615 554 m 1
 615 0 l 1
 493 0 l 1
 493 72 l 1
 440 12 387 -13 309 -13 c 0
 147 -13 30 108 30 275 c 0
 30 444 148 567 312 567 c 0
 392 567 447 541 493 480 c 1
 493 554 l 1
 615 554 l 1
326 445 m 0
 231 445 164 373 164 272 c 0
 164 175 231 109 328 109 c 0
 379 109 422 127 449 159 c 0
 473 187 489 233 489 273 c 0
 489 374 421 445 326 445 c 0
EndSplineSet
KernsSLIF: 121 -3 0 0 119 -4 0 0 39 11 0 0 106 9 0 0
EndChar
StartChar: b
Encoding: 98 98 67
Width: 660
Flags: W
HStem: -13 122<339 368> 452 122<338 359> 719 20G<54 187>
VStem: 54 133<0 739> 504 134<258 292>
Fore
54 0 m 1
 54 739 l 1
 187 739 l 1
 187 503 l 1
 238 554 287 574 359 574 c 0
 518 574 638 448 638 281 c 0
 638 207 615 138 573 84 c 0
 522 19 454 -13 368 -13 c 0
 286 -13 233 10 176 71 c 1
 176 0 l 1
 54 0 l 1
340 452 m 0
 247 452 179 381 179 281 c 0
 179 180 247 109 343 109 c 0
 438 109 504 179 504 280 c 0
 504 379 435 452 340 452 c 0
EndSplineSet
KernsSLIF: 121 -22 0 0 119 -17 0 0 118 -19 0 0
EndChar
StartChar: c
Encoding: 99 99 68
Width: 640
Flags: W
HStem: -13 122<317 335> 445 122<302.851 335>
VStem: 30 134<258 292>
Fore
451 182 m 1
 601 182 l 1
 555 58 455 -13 326 -13 c 0
 162 -13 30 116 30 277 c 0
 30 440 158 567 322 567 c 0
 399 567 472 539 526 489 c 0
 564 454 582 425 601 369 c 1
 451 369 l 1
 424 420 382 445 322 445 c 0
 230 445 164 375 164 278 c 0
 164 181 233 109 325 109 c 0
 380 109 418 131 451 182 c 1
EndSplineSet
KernsSLIF: 107 -7 0 0 104 -7 0 0
EndChar
StartChar: d
Encoding: 100 100 69
Width: 660
Flags: W
HStem: -13 122<308 331> 452 122<307 330> 719 20G<480 613>
VStem: 30 134<274 292> 491 122<0 739>
Fore
613 739 m 1
 613 0 l 1
 491 0 l 1
 491 72 l 1
 438 12 383 -13 308 -13 c 0
 151 -13 30 114 30 278 c 0
 30 444 152 574 307 574 c 0
 377 574 441 548 480 505 c 1
 480 739 l 1
 613 739 l 1
326 452 m 0
 235 452 164 378 164 284 c 0
 164 186 236 109 329 109 c 0
 419 109 490 184 490 280 c 0
 490 377 419 452 326 452 c 0
EndSplineSet
EndChar
StartChar: e
Encoding: 101 101 70
Width: 640
Flags: W
HStem: -13 122<317 335> 218 117<170 603> 445 122<317 335>
Fore
603 218 m 1
 174 218 l 1
 190 151 248 109 327 109 c 0
 382 109 415 124 449 164 c 1
 594 164 l 1
 585 136 571 113 550 87 c 1
 492 20 421 -13 330 -13 c 0
 161 -13 30 113 30 275 c 0
 30 438 159 567 322 567 c 0
 487 567 608 441 608 269 c 0
 608 249 607 237 603 218 c 1
170 335 m 1
 477 335 l 1
 460 406 406 445 324 445 c 0
 245 445 191 406 170 335 c 1
EndSplineSet
KernsSLIF: 121 -31 0 0 120 -26 0 0 119 -25 0 0 118 -27 0 0 116 -2 0 0 39 -20 0 0
EndChar
StartChar: f
Encoding: 102 102 71
Width: 280
Flags: W
HStem: 0 21G<58 191> 433 111<10 58 191 266> 611 128<241 266>
VStem: 58 133<0 433>
Fore
58 0 m 1
 58 433 l 1
 10 433 l 1
 10 544 l 1
 58 544 l 1
 65 613 75 645 102 677 c 0
 136 718 184 739 241 739 c 0
 250 739 258 739 274 737 c 1
 274 611 l 1
 261 611 l 2
 209 611 192 594 191 544 c 1
 266 544 l 1
 266 433 l 1
 191 433 l 1
 191 0 l 1
 58 0 l 1
EndSplineSet
KernsSLIF: 116 14 0 0 115 1 0 0 39 16 0 0 249 -6 0 0 250 -8 0 0 351 -9 0 0 352 -9 0 0 111 -9 0 0 108 7 0 0 106 -3 0 0 105 7 0 0 102 13 0 0 335 -9 0 0 101 -9 0 0 328 -6 0 0 241 -8 0 0 322 -6 0 0 323 -6 0 0 97 -6 0 0
EndChar
StartChar: g
Encoding: 103 103 72
Width: 660
Flags: W
HStem: -221 117<303 351> -13 122<300 326> 445 122<300 329>
VStem: 30 134<258 292> 478 133<258 554>
Fore
484 554 m 1
 611 554 l 1
 611 105 l 2
 611 -1 594 -69 555 -120 c 0
 503 -186 424 -221 324 -221 c 0
 188 -221 84 -156 39 -45 c 1
 190 -45 l 1
 229 -88 267 -104 329 -104 c 0
 428 -104 479 -46 484 73 c 1
 432 12 380 -13 302 -13 c 0
 144 -13 30 110 30 281 c 0
 30 445 146 567 303 567 c 0
 383 567 443 540 484 484 c 1
 484 554 l 1
318 445 m 0
 225 445 164 377 164 275 c 0
 164 174 225 109 320 109 c 0
 415 109 478 175 478 275 c 0
 478 376 413 445 318 445 c 0
EndSplineSet
KernsSLIF: 114 16 0 0 351 7 0 0 352 7 0 0 108 16 0 0 335 7 0 0 101 7 0 0 328 9 0 0 241 8 0 0 322 9 0 0 97 9 0 0
EndChar
StartChar: h
Encoding: 104 104 73
Width: 600
Flags: W
HStem: 0 21G<54 187 412 545> 445 123<304 328> 719 20G<54 187>
VStem: 54 133<0 315 0 739> 412 133<0 315>
Fore
54 0 m 1
 54 739 l 1
 187 739 l 1
 187 516 l 1
 227 552 271 568 328 568 c 0
 407 568 471 537 508 480 c 0
 535 439 545 394 545 313 c 2
 545 0 l 1
 412 0 l 1
 412 283 l 2
 412 399 382 445 304 445 c 0
 260 445 225 426 206 392 c 0
 192 367 187 336 187 281 c 2
 187 0 l 1
 54 0 l 1
EndSplineSet
KernsSLIF: 121 -21 0 0 39 -9 0 0
EndChar
StartChar: i
Encoding: 105 105 74
Width: 240
Flags: W
HStem: 0 21G<54 187> 534 20G<54 187> 614 125<54 187>
VStem: 54 133<0 554 614 739>
Fore
54 0 m 1
 54 554 l 1
 187 554 l 1
 187 0 l 1
 54 0 l 1
54 614 m 1
 54 739 l 1
 187 739 l 1
 187 614 l 1
 54 614 l 1
EndSplineSet
KernsSLIF: 106 5 0 0
EndChar
StartChar: j
Encoding: 106 106 75
Width: 260
Flags: W
HStem: 534 20G<72 205> 614 125<72 205>
VStem: 72 133<6 554 614 739>
Fore
72 554 m 1
 205 554 l 1
 205 37 l 2
 205 -46 187 -99 146 -137 c 0
 113 -168 68 -185 17 -185 c 1
 17 -56 l 1
 67 -47 72 -38 72 40 c 2
 72 554 l 1
72 614 m 1
 72 739 l 1
 205 739 l 1
 205 614 l 1
 72 614 l 1
EndSplineSet
EndChar
StartChar: k
Encoding: 107 107 76
Width: 580
Flags: W
HStem: 0 21G<54 187 376 555> 534 20G<364 523> 719 20G<54 187>
VStem: 54 133<0 259 0 739>
Fore
54 0 m 1
 54 739 l 1
 187 739 l 1
 187 293 l 1
 364 554 l 1
 523 554 l 1
 325 283 l 1
 555 0 l 1
 376 0 l 1
 187 259 l 1
 187 0 l 1
 54 0 l 1
EndSplineSet
KernsSLIF: 362 -30 0 0 117 -37 0 0 115 -32 0 0 46 -7 0 0 351 -48 0 0 352 -48 0 0 111 -48 0 0 45 -71 0 0 103 -45 0 0 335 -48 0 0 101 -48 0 0 44 -7 0 0 328 -45 0 0 241 -47 0 0 322 -45 0 0 323 -45 0 0 97 -45 0 0
EndChar
StartChar: l
Encoding: 108 108 77
Width: 240
Flags: W
HStem: 0 21G<54 187> 719 20G<54 187>
VStem: 54 133<0 739>
Fore
54 0 m 1
 54 739 l 1
 187 739 l 1
 187 0 l 1
 54 0 l 1
EndSplineSet
KernsSLIF: 121 -5 0 0 118 -2 0 0
EndChar
StartChar: m
Encoding: 109 109 78
Width: 940
Flags: W
HStem: 0 21G<54 187 403 536 752 885> 445 122<295 320 645 663>
VStem: 54 122<0 554> 54 133<0 306> 403 133<0 306> 752 133<0 337>
Fore
54 0 m 1xec
 54 554 l 1
 176 554 l 1
 176 502 l 1xec
 215 549 255 567 320 567 c 0
 396 567 445 541 483 481 c 1
 528 541 583 567 661 567 c 0
 744 567 814 535 849 479 c 0
 873 441 885 387 885 320 c 2
 885 0 l 1
 752 0 l 1
 752 304 l 2
 752 359 745 390 727 411 c 0
 709 433 681 445 648 445 c 0
 606 445 572 426 555 392 c 0
 541 366 536 335 536 273 c 2
 536 0 l 1
 403 0 l 1
 403 304 l 2
 403 356 396 389 380 410 c 0
 362 432 331 445 295 445 c 0
 251 445 217 424 201 388 c 0
 192 365 187 328 187 273 c 2
 187 0 l 1xdc
 54 0 l 1xec
EndSplineSet
KernsSLIF: 121 -21 0 0 119 -18 0 0 118 -19 0 0 112 11 0 0
EndChar
StartChar: n
Encoding: 110 110 79
Width: 600
Flags: W
HStem: 0 21G<54 187 413 546> 445 122<307 333>
VStem: 54 123<0 554> 54 133<0 305> 413 133<0 305>
Fore
54 0 m 1xe8
 54 554 l 1
 177 554 l 1
 177 501 l 1xe8
 226 548 270 567 333 567 c 0
 410 567 470 539 506 487 c 0
 536 444 546 396 546 297 c 2
 546 0 l 1
 413 0 l 1
 413 271 l 2
 413 345 405 386 387 410 c 0
 369 433 341 445 307 445 c 0
 265 445 230 427 209 394 c 0
 192 367 187 335 187 261 c 2
 187 0 l 1xd8
 54 0 l 1xe8
EndSplineSet
KernsSLIF: 121 -20 0 0 119 -17 0 0 118 -18 0 0 39 -8 0 0 112 12 0 0 84 -29 0 0
EndChar
StartChar: o
Encoding: 111 111 80
Width: 640
Flags: W
HStem: -13 122<317 335> 445 122<317 335>
VStem: 30 134<271 292> 485 134<258 292>
Fore
323 567 m 0
 490 567 619 438 619 273 c 0
 619 117 485 -13 324 -13 c 0
 162 -13 30 117 30 277 c 0
 30 436 162 567 323 567 c 0
324 445 m 0
 237 445 164 370 164 279 c 0
 164 184 235 109 325 109 c 0
 413 109 485 184 485 277 c 0
 485 369 413 445 324 445 c 0
EndSplineSet
KernsSLIF: 121 -26 0 0 120 -22 0 0 119 -21 0 0 118 -22 0 0 116 1 0 0 39 -16 0 0 84 -33 0 0
EndChar
StartChar: p
Encoding: 112 112 81
Width: 660
Flags: W
HStem: -13 122<339 361> 445 122<339 360>
VStem: 54 122<-185 554> 54 133<-185 52> 500 134<262 296>
Fore
54 -185 m 1xe8
 54 554 l 1
 176 554 l 1
 176 489 l 1xe8
 219 539 283 567 358 567 c 0
 518 567 634 446 634 279 c 0
 634 111 517 -13 357 -13 c 0
 289 -13 237 7 187 52 c 1
 187 -185 l 1xd8
 54 -185 l 1xe8
341 445 m 0
 249 445 179 373 179 278 c 0
 179 181 249 109 343 109 c 0
 431 109 500 182 500 276 c 0
 500 372 431 445 341 445 c 0
EndSplineSet
KernsSLIF: 121 -25 0 0 116 2 0 0
EndChar
StartChar: q
Encoding: 113 113 82
Width: 660
Flags: W
HStem: -13 122<307 335> 445 122<309 335>
VStem: 30 134<262 296> 478 133<-185 554> 486 125<262 554>
Fore
489 554 m 1xf0
 611 554 l 1
 611 -185 l 1
 478 -185 l 1
 478 53 l 1
 434 9 379 -13 311 -13 c 0
 152 -13 30 114 30 279 c 0
 30 439 154 567 309 567 c 0
 390 567 446 541 489 483 c 1
 489 554 l 1xf0
328 445 m 0
 234 445 164 373 164 276 c 0
 164 180 233 109 327 109 c 0
 418 109 486 180 486 275 c 0xe8
 486 372 418 445 328 445 c 0
EndSplineSet
KernsSLIF: 117 14 0 0 99 7 0 0
EndChar
StartChar: r
Encoding: 114 114 83
Width: 320
Flags: W
HStem: 0 21G<54 187> 534 20G<54 176>
VStem: 54 122<0 554> 54 133<0 321>
Fore
54 0 m 1xe0
 54 554 l 1
 176 554 l 1
 176 500 l 1xe0
 211 551 239 567 296 567 c 2
 306 567 l 1
 306 439 l 1
 226 437 187 394 187 308 c 2
 187 0 l 1xd0
 54 0 l 1xe0
EndSplineSet
KernsSLIF: 122 -5 0 0 121 14 0 0 120 3 0 0 119 12 0 0 118 17 0 0 117 -5 0 0 116 14 0 0 59 -12 0 0 115 -3 0 0 39 19 0 0 113 -16 0 0 46 -30 0 0 249 -21 0 0 353 -22 0 0 250 -20 0 0 351 -22 0 0 354 -22 0 0 352 -22 0 0 111 -22 0 0 106 -16 0 0 45 -30 0 0 103 -14 0 0 102 13 0 0 336 -21 0 0 337 -21 0 0 335 -21 0 0 101 -21 0 0 100 -17 0 0 44 -30 0 0 58 -12 0 0 332 -17 0 0 99 -20 0 0 328 -18 0 0 324 -18 0 0 241 -20 0 0 322 -18 0 0 325 -18 0 0 323 -18 0 0 97 -18 0 0
EndChar
StartChar: s
Encoding: 115 115 84
Width: 440
Flags: W
HStem: -13 122<220 229> 445 122<223 229>
VStem: 39 133<389.063 403> 287 133<161 176>
Fore
19 176 m 1
 153 176 l 1
 166 129 188 109 227 109 c 0
 261 109 287 132 287 163 c 0
 287 181 278 196 262 206 c 0
 248 215 244 217 193 234 c 0
 83 271 39 317 39 398 c 0
 39 493 120 567 223 567 c 0
 278 567 330 545 365 506 c 0
 392 476 403 448 405 401 c 1
 275 401 l 1
 269 430 251 445 223 445 c 0
 194 445 172 425 172 398 c 0
 172 382 181 369 199 361 c 0
 212 355 212 355 266 338 c 0
 314 323 347 309 368 291 c 0
 402 264 420 224 420 176 c 0
 420 70 333 -13 222 -13 c 0
 155 -13 92 16 56 64 c 0
 34 94 25 122 19 176 c 1
EndSplineSet
KernsSLIF: 116 8 0 0 39 -4 0 0
EndChar
StartChar: t
Encoding: 116 116 85
Width: 300
Flags: W
HStem: 0 21G<74 207> 433 121<9 74 207 287> 719 20G<74 207>
VStem: 74 133<0 433 554 739>
Fore
74 0 m 1
 74 433 l 1
 9 433 l 1
 9 554 l 1
 74 554 l 1
 74 739 l 1
 207 739 l 1
 207 554 l 1
 287 554 l 1
 287 433 l 1
 207 433 l 1
 207 0 l 1
 74 0 l 1
EndSplineSet
KernsSLIF: 59 -6 0 0 39 20 0 0 351 -10 0 0 352 -10 0 0 111 -10 0 0 104 10 0 0 335 -10 0 0 101 -10 0 0 58 -6 0 0 328 -8 0 0 241 -9 0 0 322 -8 0 0 323 -8 0 0 97 -8 0 0 83 8 0 0
EndChar
StartChar: u
Encoding: 117 117 86
Width: 600
Flags: W
HStem: -13 122<265 292> 534 20G<54 187 414 547>
VStem: 54 133<242 554> 424 123<0 554>
Fore
547 554 m 1
 547 0 l 1
 424 0 l 1
 424 53 l 1
 374 4 332 -13 265 -13 c 0
 193 -13 133 16 96 69 c 0
 65 115 54 163 54 257 c 2
 54 554 l 1
 187 554 l 1
 187 283 l 2
 187 209 195 168 214 144 c 0
 232 120 258 109 292 109 c 0
 337 109 374 128 393 160 c 1
 409 184 414 220 414 293 c 2
 414 554 l 1
 547 554 l 1
EndSplineSet
KernsSLIF: 39 8 0 0
EndChar
StartChar: v
Encoding: 118 118 87
Width: 560
Flags: W
HStem: 0 21G<224 330> 534 20G<1 149 403 553>
Fore
224 0 m 1
 1 554 l 1
 149 554 l 1
 277 187 l 1
 403 554 l 1
 553 554 l 1
 330 0 l 1
 224 0 l 1
EndSplineSet
KernsSLIF: 59 -20 0 0 115 -19 0 0 46 -60 0 0 249 -27 0 0 353 -30 0 0 351 -30 0 0 352 -30 0 0 111 -30 0 0 108 -5 0 0 45 -22 0 0 103 -26 0 0 336 -30 0 0 337 -30 0 0 335 -30 0 0 101 -30 0 0 44 -60 0 0 58 -20 0 0 99 -30 0 0 327 -27 0 0 328 -27 0 0 324 -27 0 0 241 -28 0 0 322 -27 0 0 325 -27 0 0 323 -27 0 0 97 -27 0 0
EndChar
StartChar: w
Encoding: 119 119 88
Width: 800
Flags: W
HStem: 0 21G<208 290 502 585> 534 20G<10 153 345 451 643 785>
DStem: 345 554 397 359 252 216 290 0 397 359 451 554 502 0 542 216
Fore
208 0 m 1
 10 554 l 1
 153 554 l 1
 252 216 l 1
 345 554 l 1
 451 554 l 1
 542 216 l 1
 643 554 l 1
 785 554 l 1
 585 0 l 1
 502 0 l 1
 397 359 l 1
 290 0 l 1
 208 0 l 1
EndSplineSet
KernsSLIF: 59 -23 0 0 115 -18 0 0 46 -54 0 0 249 -26 0 0 353 -28 0 0 351 -28 0 0 352 -28 0 0 111 -28 0 0 108 -9 0 0 45 -21 0 0 103 -24 0 0 336 -28 0 0 337 -28 0 0 335 -28 0 0 101 -28 0 0 44 -54 0 0 58 -23 0 0 99 -28 0 0 327 -25 0 0 328 -25 0 0 324 -25 0 0 241 -27 0 0 322 -25 0 0 325 -25 0 0 323 -25 0 0 97 -25 0 0
EndChar
StartChar: x
Encoding: 120 120 89
Width: 560
Flags: W
HStem: 0 21G<1 161 393 553> 534 20G<27 177 375 525>
DStem: 27 554 177 554 197 286 277 387
Fore
1 0 m 1
 197 286 l 1
 27 554 l 1
 177 554 l 1
 277 387 l 1
 375 554 l 1
 525 554 l 1
 356 286 l 1
 553 0 l 1
 393 0 l 1
 277 190 l 1
 161 0 l 1
 1 0 l 1
EndSplineSet
KernsSLIF: 113 -28 0 0 111 -30 0 0 335 -30 0 0 101 -30 0 0 99 -30 0 0 97 -27 0 0
EndChar
StartChar: y
Encoding: 121 121 90
Width: 580
Flags: W
HStem: 534 20G<6 158 415 568>
DStem: 209 52 568 554 105 -185 248 -185
Fore
105 -185 m 1
 209 52 l 1
 6 554 l 1
 158 554 l 1
 281 195 l 1
 415 554 l 1
 568 554 l 1
 248 -185 l 1
 105 -185 l 1
EndSplineSet
KernsSLIF: 59 -23 0 0 115 -26 0 0 46 -69 0 0 249 -34 0 0 353 -38 0 0 351 -38 0 0 352 -38 0 0 111 -38 0 0 108 -7 0 0 45 -29 0 0 103 -34 0 0 336 -38 0 0 337 -38 0 0 335 -38 0 0 101 -38 0 0 44 -70 0 0 58 -23 0 0 99 -37 0 0 327 -35 0 0 328 -35 0 0 324 -35 0 0 241 -36 0 0 322 -35 0 0 325 -35 0 0 323 -35 0 0 97 -35 0 0
EndChar
StartChar: z
Encoding: 122 122 91
Width: 460
Flags: W
HStem: 0 119<179 442> 435 119<48 264>
DStem: 264 435 423 435 20 119 179 119
Fore
20 0 m 1
 20 119 l 1
 264 435 l 1
 48 435 l 1
 48 554 l 1
 423 554 l 1
 423 435 l 1
 179 119 l 1
 442 119 l 1
 442 0 l 1
 20 0 l 1
EndSplineSet
EndChar
StartChar: braceleft
Encoding: 123 123 92
Width: 340
Flags: W
HStem: 720 20G<210.5 265>
VStem: 118 105<10 180 430 592>
Fore
223 557 m 2
 223 434 l 2
 223 356 200 323 133 305 c 1
 199 289 223 255 223 177 c 2
 223 54 l 2
 223 -31 231 -42 302 -48 c 1
 302 -128 l 1
 287 -129 269 -129 261 -129 c 0
 160 -129 118 -88 118 10 c 2
 118 167 l 2
 118 227 93 258 37 265 c 1
 37 346 l 1
 93 353 118 384 118 444 c 2
 118 601 l 2
 118 699 160 740 261 740 c 0
 269 740 287 740 302 739 c 1
 302 659 l 1
 231 653 223 642 223 557 c 2
EndSplineSet
EndChar
StartChar: bar
Encoding: 124 124 93
Width: 600
Flags: W
HStem: 0 21G<243 362> 719 20G<243 362>
VStem: 243 119<0 739>
Fore
362 739 m 1
 362 0 l 1
 243 0 l 1
 243 739 l 1
 362 739 l 1
EndSplineSet
EndChar
StartChar: braceright
Encoding: 125 125 94
Width: 340
Flags: W
HStem: 720 20G<75 129.5>
VStem: 117 105<30 180 430 592>
Fore
117 54 m 2
 117 177 l 2
 117 255 140 288 207 306 c 1
 141 322 117 356 117 434 c 2
 117 557 l 2
 117 642 109 653 38 659 c 1
 38 739 l 1
 53 740 71 740 79 740 c 0
 180 740 222 699 222 601 c 2
 222 444 l 2
 222 384 247 353 303 346 c 1
 303 265 l 1
 247 258 222 227 222 167 c 2
 222 10 l 2
 222 -88 180 -129 79 -129 c 0
 71 -129 53 -129 38 -128 c 1
 38 -48 l 1
 109 -42 117 -31 117 54 c 2
EndSplineSet
EndChar
StartChar: asciitilde
Encoding: 126 126 95
Width: 600
Flags: W
Fore
491 421 m 1
 555 347 l 1
 503 261 464 230 410 230 c 0
 390 230 355 239 319 254 c 2
 265 276 l 2
 230 291 216 295 201 295 c 0
 183 295 168 288 154 273 c 0
 148 267 148 267 121 224 c 0
 120 223 117 219 114 214 c 1
 51 289 l 1
 76 330 83 342 99 361 c 0
 124 393 161 412 199 412 c 0
 222 412 252 406 276 396 c 2
 343 369 l 2
 397 347 397 347 414 347 c 0
 437 347 465 374 491 421 c 1
EndSplineSet
EndChar
StartChar: exclamdown
Encoding: 161 161 96
Width: 280
Flags: W
HStem: 426 128<72 205>
VStem: 72 133<-185 366 426 554>
Fore
205 366 m 1
 205 -185 l 1
 72 -185 l 1
 72 366 l 1
 205 366 l 1
205 554 m 1
 205 426 l 1
 72 426 l 1
 72 554 l 1
 205 554 l 1
EndSplineSet
EndChar
StartChar: cent
Encoding: 162 162 97
Width: 560
Flags: W
HStem: 39 231<274 343> 489 226<218 282>
VStem: 39 133<374 392> 218 125<39 148 610 715>
Fore
343 39 m 1
 218 39 l 1
 218 148 l 1
 170 159 139 175 106 210 c 0
 64 253 39 316 39 381 c 0
 39 447 66 511 113 556 c 0
 143 585 170 599 218 611 c 1
 218 715 l 1
 343 715 l 1
 343 611 l 1
 429 590 493 525 511 443 c 1
 369 443 l 1
 349 471 313 489 276 489 c 0
 217 489 172 442 172 379 c 0
 172 316 218 270 280 270 c 0
 313 270 340 282 365 310 c 1
 511 310 l 1
 476 221 423 169 343 148 c 1
 343 39 l 1
EndSplineSet
EndChar
StartChar: sterling
Encoding: 163 163 98
Width: 560
Flags: W
HStem: 0 125<41 301 301 337> 310 125<0 142 201 408> 630 122<271 289>
VStem: 41 133<495 518> 200 133<191 209> 430 133<207 224>
Fore
41 0 m 1
 41 125 l 1
 180 125 l 1
 193 147 200 171 200 198 c 0
 200 239 184 271 142 310 c 1
 0 310 l 1
 0 435 l 1
 58 435 l 1
 46 462 41 486 41 516 c 0
 41 648 147 752 280 752 c 0
 407 752 503 666 514 541 c 1
 379 541 l 1
 364 598 329 630 281 630 c 0
 221 630 174 578 174 511 c 0
 174 481 183 457 201 435 c 1
 408 435 l 1
 408 310 l 1
 301 310 l 1
 324 265 333 235 333 200 c 0
 333 179 328 148 320 125 c 1
 349 125 366 128 382 137 c 0
 412 153 430 185 430 220 c 0
 430 236 428 248 420 274 c 1
 552 274 l 1
 560 253 563 240 563 222 c 0
 563 157 535 95 488 54 c 0
 441 14 393 0 301 0 c 2
 41 0 l 1
EndSplineSet
EndChar
StartChar: fraction
Encoding: 164 8260 99
Width: 160
Flags: W
HStem: 0 21G<-121 -26> 719 20G<185 280>
DStem: 185 739 280 739 -121 0 -26 0
Fore
-121 0 m 1
 185 739 l 1
 280 739 l 1
 -26 0 l 1
 -121 0 l 1
EndSplineSet
EndChar
StartChar: yen
Encoding: 165 165 100
Width: 560
Flags: W
HStem: 0 21G<208 341> 187 88<12 208 341 538> 380 88<12 152 446 538> 719 20G<-35 114 435 589>
VStem: 208 133<0 187>
Fore
208 0 m 1
 208 187 l 1
 12 187 l 1
 12 275 l 1
 208 275 l 1
 152 380 l 1
 12 380 l 1
 12 468 l 1
 106 468 l 1
 -35 739 l 1
 114 739 l 1
 274 398 l 1
 435 739 l 1
 589 739 l 1
 446 468 l 1
 538 468 l 1
 538 380 l 1
 398 380 l 1
 341 275 l 1
 538 275 l 1
 538 187 l 1
 341 187 l 1
 341 0 l 1
 208 0 l 1
EndSplineSet
EndChar
StartChar: florin
Encoding: 166 402 101
Width: 560
Flags: W
HStem: -149 119<30 48> 470 115<142 218 364 437> 703 120<465 474>
DStem: 218 470 344 470 158 128 282 106
Fore
364 585 m 1
 456 585 l 1
 437 470 l 1
 344 470 l 1
 282 106 l 1
 262 -8 246 -50 207 -87 c 0
 163 -129 110 -149 42 -149 c 0
 19 -149 5 -147 -17 -142 c 1
 3 -26 l 1
 18 -29 25 -30 36 -30 c 0
 75 -30 107 -15 124 12 c 0
 137 31 147 67 158 128 c 1
 218 470 l 1
 124 470 l 1
 143 585 l 1
 237 585 l 1
 242 611 l 1
 259 689 268 711 297 747 c 0
 337 796 397 823 465 823 c 0
 477 823 483 822 494 820 c 1
 474 703 l 1
 465 703 l 2
 426 703 396 684 381 649 c 0
 375 635 371 620 364 585 c 1
EndSplineSet
EndChar
StartChar: section
Encoding: 167 167 102
Width: 560
Flags: W
HStem: -157 122<276 306> 563 21G<371 497> 630 122<276 304>
VStem: 40 117<345 356> 90 127<578 588> 377 127<19.596 36> 405 124<274 292>
Fore
497 563 m 1xe8
 371 563 l 1
 362 609 336 630 285 630 c 0
 243 630 217 611 217 582 c 0
 217 555 238 531 278 512 c 2
 442 431 l 2
 495 405 529 351 529 292 c 0xea
 529 238 502 186 454 150 c 1
 489 114 504 79 504 31 c 0
 504 -79 415 -157 289 -157 c 0
 212 -157 147 -128 106 -75 c 0
 77 -38 65 -4 60 55 c 1
 194 55 l 1
 194 32 195 24 200 12 c 0
 214 -17 248 -35 290 -35 c 0
 340 -35 377 -7 377 30 c 0
 377 58 362 73 304 103 c 2
 141 187 l 2
 73 221 40 274 40 347 c 0xf4
 40 408 63 452 118 493 c 1
 99 522 90 551 90 586 c 0
 90 684 173 752 291 752 c 0
 410 752 481 687 497 563 c 1xe8
345 339 m 2
 196 413 l 1
 168 391 157 375 157 354 c 0xf2
 157 331 174 313 217 291 c 2
 368 215 l 1
 391 231 405 255 405 278 c 0
 405 302 393 315 345 339 c 2
EndSplineSet
EndChar
StartChar: currency
Encoding: 168 164 103
Width: 560
Flags: W
HStem: 153 120<281 287> 526 120<278 300>
VStem: 33 120<400 405> 407 122<399 405>
Fore
27 574 m 1
 107 654 l 1
 152 610 l 1
 193 635 234 646 280 646 c 0
 327 646 369 634 412 610 c 1
 457 653 l 1
 534 572 l 1
 492 529 l 1
 521 479 529 449 529 399 c 0
 529 349 520 317 491 271 c 1
 533 228 l 1
 456 148 l 1
 412 190 l 1
 372 166 325 153 281 153 c 0
 236 153 191 166 150 190 c 1
 106 148 l 1
 27 229 l 1
 69 272 l 1
 40 327 33 351 33 400 c 0
 33 449 40 474 69 529 c 1
 27 574 l 1
284 526 m 0
 211 526 153 470 153 400 c 0
 153 331 211 273 281 273 c 0
 351 273 407 329 407 399 c 0
 407 468 351 526 284 526 c 0
EndSplineSet
EndChar
StartChar: quotesingle
Encoding: 169 39 104
Width: 220
Flags: W
HStem: 719 20G<74 150>
VStem: 74 76<513 739>
Fore
150 513 m 1
 74 513 l 1
 74 739 l 1
 150 739 l 1
 150 513 l 1
EndSplineSet
EndChar
StartChar: quotedblleft
Encoding: 170 8220 105
Width: 480
Flags: W
VStem: 70 74<466 627> 70 133<466 599> 277 74<466 627> 277 133<466 599>
Fore
203 599 m 1x40
 203 466 l 1x40
 70 466 l 1
 70 606 l 2x80
 70 654 82 683 113 709 c 0
 137 729 167 739 203 739 c 1
 203 672 l 1x40
 160 664 144 649 144 614 c 0x80
 144 612 144 605 145 599 c 1
 203 599 l 1x40
410 599 m 1x10
 410 466 l 1x10
 277 466 l 1
 277 606 l 2x20
 277 654 289 683 320 709 c 0
 344 729 374 739 410 739 c 1
 410 672 l 1x10
 368 664 351 648 351 616 c 0x20
 351 612 351 605 352 599 c 1
 410 599 l 1x10
EndSplineSet
KernsSLIF: 87 17 1 0 86 9 1 0 84 9 1 0 262 -73 1 0 256 -73 1 0 257 -73 1 0 225 -145 1 0 65 -73 1 0
EndChar
StartChar: guillemotleft
Encoding: 171 171 106
Width: 460
Flags: W
DStem: 36 239 108 289 175 108 175 231 249 239 321 289 388 108 388 231
Fore
388 108 m 1
 249 239 l 1
 249 339 l 1
 388 469 l 1
 388 346 l 1
 321 289 l 1
 388 231 l 1
 388 108 l 1
175 108 m 1
 36 239 l 1
 36 339 l 1
 175 469 l 1
 175 346 l 1
 108 289 l 1
 175 231 l 1
 175 108 l 1
EndSplineSet
EndChar
StartChar: guilsinglleft
Encoding: 172 8249 107
Width: 240
Flags: W
DStem: 36 239 108 289 175 108 175 231
Fore
175 108 m 1
 36 239 l 1
 36 339 l 1
 175 469 l 1
 175 346 l 1
 108 289 l 1
 175 231 l 1
 175 108 l 1
EndSplineSet
EndChar
StartChar: guilsinglright
Encoding: 173 8250 108
Width: 240
Flags: W
DStem: 140 289 212 239 73 231 73 108
Fore
73 108 m 1
 73 231 l 1
 140 289 l 1
 73 346 l 1
 73 469 l 1
 212 339 l 1
 212 239 l 1
 73 108 l 1
EndSplineSet
KernsSLIF: 89 -62 1 0 87 -22 1 0 86 -45 1 0 84 -24 1 0 262 -12 1 0 256 -12 1 0 257 -12 1 0 225 -50 1 0 65 -12 1 0
EndChar
StartChar: fi
Encoding: 174 64257 109
Width: 520
Flags: W
HStem: 0 21G<56 189 328 461> 433 111<8 56 189 264> 611 128<239 264>
VStem: 56 133<0 433> 328 133<0 554 614 739>
Fore
56 0 m 1
 56 433 l 1
 8 433 l 1
 8 544 l 1
 56 544 l 1
 63 613 73 645 100 677 c 0
 134 718 182 739 239 739 c 0
 248 739 256 739 272 737 c 1
 272 611 l 1
 259 611 l 2
 207 611 190 594 189 544 c 1
 264 544 l 1
 264 433 l 1
 189 433 l 1
 189 0 l 1
 56 0 l 1
328 0 m 1
 328 554 l 1
 461 554 l 1
 461 0 l 1
 328 0 l 1
328 614 m 1
 328 739 l 1
 461 739 l 1
 461 614 l 1
 328 614 l 1
EndSplineSet
Ligature: 0 0 'liga' f i
EndChar
StartChar: fl
Encoding: 175 64258 110
Width: 520
Flags: W
HStem: 0 21G<56 189 328 461> 433 111<8 56 189 264> 611 128<239 264>
VStem: 56 133<0 433> 328 133<0 739>
Fore
328 0 m 1
 328 739 l 1
 461 739 l 1
 461 0 l 1
 328 0 l 1
56 0 m 1
 56 433 l 1
 8 433 l 1
 8 544 l 1
 56 544 l 1
 63 613 73 645 100 677 c 0
 134 718 182 739 239 739 c 0
 248 739 256 739 272 737 c 1
 272 611 l 1
 259 611 l 2
 207 611 190 594 189 544 c 1
 264 544 l 1
 264 433 l 1
 189 433 l 1
 189 0 l 1
 56 0 l 1
EndSplineSet
Ligature: 0 0 'liga' f l
EndChar
StartChar: endash
Encoding: 177 8211 111
Width: 500
Flags: W
HStem: 229 118<0 500>
Fore
0 229 m 1
 0 347 l 1
 500 347 l 1
 500 229 l 1
 0 229 l 1
EndSplineSet
EndChar
StartChar: dagger
Encoding: 178 8224 112
Width: 560
Flags: W
HStem: 436 118<48 211 344 505> 719 20G<211 344>
VStem: 211 133<-128 436 554 739>
Fore
344 739 m 1
 344 554 l 1
 505 554 l 1
 505 436 l 1
 344 436 l 1
 344 -128 l 1
 211 -128 l 1
 211 436 l 1
 48 436 l 1
 48 554 l 1
 211 554 l 1
 211 739 l 1
 344 739 l 1
EndSplineSet
EndChar
StartChar: daggerdbl
Encoding: 179 8225 113
Width: 560
Flags: W
HStem: 260 118<48 210 343 505> 473 118<48 210 343 505> 719 20G<210 343>
VStem: 210 133<-128 260 378 473 591 739>
Fore
343 739 m 1
 343 591 l 1
 505 591 l 1
 505 473 l 1
 343 473 l 1
 343 378 l 1
 505 378 l 1
 505 260 l 1
 343 260 l 1
 343 -128 l 1
 210 -128 l 1
 210 260 l 1
 48 260 l 1
 48 378 l 1
 210 378 l 1
 210 473 l 1
 48 473 l 1
 48 591 l 1
 210 591 l 1
 210 739 l 1
 343 739 l 1
EndSplineSet
EndChar
StartChar: periodcentered
Encoding: 180 183 114
Width: 280
Flags: W
HStem: 300 133<72 205>
VStem: 72 133<300 433>
Fore
72 300 m 1
 72 433 l 1
 205 433 l 1
 205 300 l 1
 72 300 l 1
EndSplineSet
EndChar
StartChar: paragraph
Encoding: 182 182 115
Width: 600
Flags: W
HStem: 632 107<309 426>
VStem: 241 101<-128 632> 426 101<-128 739>
Fore
241 -128 m 1
 241 330 l 1
 119 332 37 414 37 533 c 0
 37 610 73 675 134 708 c 0
 172 729 231 739 309 739 c 2
 527 739 l 1
 527 -128 l 1
 426 -128 l 1
 426 632 l 1
 342 632 l 1
 342 -128 l 1
 241 -128 l 1
EndSplineSet
EndChar
StartChar: bullet
Encoding: 183 8226 116
Width: 600
Flags: W
Fore
302 484 m 0
 395 484 471 409 471 316 c 0
 471 222 396 147 300 147 c 0
 210 147 134 224 134 316 c 0
 134 408 210 484 302 484 c 0
EndSplineSet
EndChar
StartChar: quotesinglbase
Encoding: 184 8218 117
Width: 280
Flags: W
HStem: -20 20G<70 128>
Fore
70 0 m 1
 70 128 l 1
 203 128 l 1
 203 -7 l 2
 203 -64 183 -100 139 -124 c 0
 117 -137 100 -140 70 -140 c 1
 70 -73 l 1
 112 -65 129 -49 129 -17 c 0
 129 -13 129 -6 128 0 c 1
 70 0 l 1
EndSplineSet
EndChar
StartChar: quotedblbase
Encoding: 185 8222 118
Width: 480
Flags: W
HStem: -20 20G<70 128 277 335>
VStem: 129 74<-19 0> 336 74<-19 0>
Fore
70 0 m 1
 70 128 l 1
 203 128 l 1
 203 -7 l 2
 203 -64 183 -100 139 -124 c 0
 117 -137 100 -140 70 -140 c 1
 70 -73 l 1
 112 -65 129 -49 129 -17 c 0
 129 -13 129 -6 128 0 c 1
 70 0 l 1
277 0 m 1
 277 128 l 1
 410 128 l 1
 410 -7 l 2
 410 -64 390 -100 346 -124 c 0
 323 -137 307 -140 277 -140 c 1
 277 -73 l 1
 319 -65 336 -49 336 -17 c 0
 336 -13 336 -6 335 0 c 1
 277 0 l 1
EndSplineSet
KernsSLIF: 89 -78 1 0 87 -50 1 0 86 -80 1 0 84 -27 1 0 225 3 1 0 65 20 1 0
EndChar
StartChar: quotedblright
Encoding: 186 8221 119
Width: 480
Flags: W
HStem: 719 20G<70 203 277 410>
VStem: 129 74<591 611> 336 74<591 611>
Fore
70 611 m 1
 70 739 l 1
 203 739 l 1
 203 599 l 2
 203 542 183 506 139 482 c 0
 116 469 100 466 70 466 c 1
 70 533 l 1
 111 541 129 559 129 593 c 0
 129 597 129 604 128 611 c 1
 70 611 l 1
277 611 m 1
 277 739 l 1
 410 739 l 1
 410 599 l 2
 410 541 390 506 346 482 c 0
 323 469 307 466 277 466 c 1
 277 533 l 1
 319 541 336 558 336 593 c 0
 336 597 336 604 335 611 c 1
 277 611 l 1
EndSplineSet
KernsSLIF: 89 -1 1 0 87 15 1 0 86 7 1 0 84 10 1 0 262 -76 1 0 256 -76 1 0 257 -76 1 0 225 -149 1 0 65 -76 1 0
EndChar
StartChar: guillemotright
Encoding: 187 187 120
Width: 460
Flags: W
DStem: 140 289 212 239 73 231 73 108 353 289 425 239 286 231 286 108
Fore
73 108 m 1
 73 231 l 1
 140 289 l 1
 73 346 l 1
 73 469 l 1
 212 339 l 1
 212 239 l 1
 73 108 l 1
286 108 m 1
 286 231 l 1
 353 289 l 1
 286 346 l 1
 286 469 l 1
 425 339 l 1
 425 239 l 1
 286 108 l 1
EndSplineSet
KernsSLIF: 89 -66 1 0 87 -26 1 0 86 -48 1 0 84 -27 1 0 262 -16 1 0 256 -16 1 0 257 -16 1 0 225 -54 1 0 65 -16 1 0
EndChar
StartChar: ellipsis
Encoding: 188 8230 121
Width: 1000
Flags: W
HStem: 0 128<100 233 432 565 765 899>
Fore
100 0 m 1
 100 128 l 1
 233 128 l 1
 233 0 l 1
 100 0 l 1
432 0 m 1
 432 128 l 1
 565 128 l 1
 565 0 l 1
 432 0 l 1
765 0 m 1
 765 128 l 1
 899 128 l 1
 899 0 l 1
 765 0 l 1
EndSplineSet
Ligature: 0 1 'liga' period period period
EndChar
StartChar: perthousand
Encoding: 189 8240 122
Width: 1280
Flags: W
HStem: -13 107<654 662 1067 1078> 242 106<644 662 1060 1078> 391 107<202 214> 646 106<196 214>
VStem: 21 108<562 580> 276 107<572 580> 473 108<162 180> 728 107<168 180> 886 108<162 180> 1141 107<168 180>
DStem: 528 739 631 739 223 0 325 0
Fore
528 739 m 1
 631 739 l 1
 325 0 l 1
 223 0 l 1
 528 739 l 1
1068 348 m 4
 1166 348 1248 266 1248 168 c 4
 1248 68 1167 -13 1067 -13 c 4
 967 -13 886 68 886 167 c 4
 886 268 966 348 1068 348 c 4
1067 242 m 4
 1027 242 994 209 994 168 c 4
 994 127 1027 94 1067 94 c 4
 1107 94 1141 128 1141 168 c 4
 1141 208 1107 242 1067 242 c 4
655 348 m 0
 753 348 835 266 835 168 c 0
 835 68 754 -13 654 -13 c 0
 554 -13 473 68 473 167 c 0
 473 268 553 348 655 348 c 0
654 242 m 0
 614 242 581 209 581 168 c 0
 581 127 614 94 654 94 c 0
 694 94 728 128 728 168 c 0
 728 208 694 242 654 242 c 0
203 752 m 0
 301 752 383 670 383 572 c 0
 383 472 302 391 202 391 c 0
 102 391 21 472 21 571 c 0
 21 672 101 752 203 752 c 0
202 646 m 0
 162 646 129 613 129 572 c 0
 129 531 162 498 202 498 c 0
 242 498 276 532 276 572 c 0
 276 612 242 646 202 646 c 0
EndSplineSet
EndChar
StartChar: questiondown
Encoding: 191 191 123
Width: 560
Flags: W
HStem: -198 132<292 310> 426 128<236 369>
VStem: 69 133<12.4846 36> 236 133<329 367 426 554>
Fore
236 367 m 1
 369 367 l 1
 369 347 l 2
 369 286 356 237 331 199 c 0
 310 168 303 160 247 112 c 0
 217 87 202 58 202 27 c 0
 202 -27 242 -66 297 -66 c 0
 351 -66 381 -33 389 34 c 1
 522 34 l 1
 516 -33 503 -74 474 -111 c 0
 432 -166 365 -198 294 -198 c 0
 166 -198 69 -100 69 31 c 0
 69 98 94 142 171 210 c 0
 207 242 219 257 226 280 c 0
 232 297 236 328 236 349 c 2
 236 367 l 1
369 554 m 1
 369 426 l 1
 236 426 l 1
 236 554 l 1
 369 554 l 1
EndSplineSet
EndChar
StartChar: grave
Encoding: 193 96 124
Width: 420
Flags: W
DStem: 74 737 131 825 300 613 353 692
Fore
74 737 m 1
 131 825 l 1
 353 692 l 1
 300 613 l 1
 74 737 l 1
EndSplineSet
EndChar
StartChar: acute
Encoding: 194 180 125
Width: 420
Flags: W
Fore
125 613 m 1
 74 691 l 1
 298 825 l 1
 352 733 l 1
 125 613 l 1
EndSplineSet
Ligature: 0 1 'liga' space acutecomb
EndChar
StartChar: circumflex
Encoding: 195 710 126
Width: 540
Flags: W
HStem: 630 138<221 221 221 473>
Fore
74 630 m 1
 221 768 l 1
 328 768 l 1
 473 630 l 1
 328 630 l 1
 275 694 l 1
 221 630 l 1
 74 630 l 1
EndSplineSet
EndChar
StartChar: tilde
Encoding: 196 732 127
Width: 480
Flags: W
HStem: 738 21G<277.5 297>
Fore
128 636 m 1
 74 716 l 1
 109 751 135 763 177 763 c 0
 198 763 208 761 237 749 c 0
 257 741 271 738 284 738 c 0
 310 738 330 748 351 772 c 1
 405 691 l 1
 373 652 346 636 311 636 c 0
 296 636 278 640 252 649 c 0
 224 659 214 661 198 661 c 0
 173 661 166 658 128 636 c 1
EndSplineSet
Ligature: 0 1 'liga' space tildecomb
EndChar
StartChar: macron
Encoding: 197 175 128
Width: 420
Flags: W
HStem: 648 100<74 351>
Fore
74 648 m 1
 74 748 l 1
 351 748 l 1
 351 648 l 1
 74 648 l 1
EndSplineSet
Ligature: 0 1 'liga' space uni0304
EndChar
StartChar: breve
Encoding: 198 728 129
Width: 480
Flags: W
Fore
74 769 m 1
 172 769 l 1
 184 740 207 726 240 726 c 0
 275 726 297 741 302 769 c 1
 404 769 l 1
 401 686 335 630 240 630 c 0
 141 630 80 681 74 769 c 1
EndSplineSet
Ligature: 0 1 'liga' space uni0306
EndChar
StartChar: dotaccent
Encoding: 199 729 130
Width: 280
Flags: W
HStem: 630 133<74 207>
VStem: 74 133<630 763>
Fore
74 630 m 1
 74 763 l 1
 207 763 l 1
 207 630 l 1
 74 630 l 1
EndSplineSet
Ligature: 0 1 'liga' space uni0307
EndChar
StartChar: dieresis
Encoding: 200 168 131
Width: 500
Flags: W
HStem: 630 133<74 207 284 417>
VStem: 74 133<630 763> 284 133<630 763>
Fore
74 630 m 1
 74 763 l 1
 207 763 l 1
 207 630 l 1
 74 630 l 1
284 630 m 1
 284 763 l 1
 417 763 l 1
 417 630 l 1
 284 630 l 1
EndSplineSet
Ligature: 0 1 'liga' space uni0308
EndChar
StartChar: ring
Encoding: 202 730 132
Width: 360
Flags: W
HStem: 610 67<177 181> 749 67<169 180>
VStem: 74 67<713 715> 213 67<713 715>
Fore
178 816 m 0
 234 816 280 769 280 713 c 0
 280 656 233 610 177 610 c 0
 120 610 74 656 74 713 c 0
 74 770 120 816 178 816 c 0
177 749 m 0
 157 749 141 733 141 713 c 0
 141 693 157 677 177 677 c 0
 197 677 213 693 213 713 c 0
 213 733 197 749 177 749 c 0
EndSplineSet
Ligature: 0 1 'liga' space uni030A
EndChar
StartChar: cedilla
Encoding: 203 184 133
Width: 340
Flags: W
HStem: -251 55<169 181> -106 55<169 181> -20 20G<119 171>
VStem: 212 58<-156 -148>
DStem: 119 0 171 0 83 -107 150 -58
Fore
119 0 m 1
 171 0 l 1
 150 -58 l 1
 163 -53 170 -51 179 -51 c 0
 228 -51 270 -97 270 -152 c 0
 270 -211 231 -251 174 -251 c 0
 123 -251 82 -216 74 -166 c 1
 135 -166 l 1
 144 -186 156 -196 173 -196 c 0
 194 -196 212 -175 212 -150 c 0
 212 -126 195 -106 173 -106 c 0
 159 -106 149 -113 135 -133 c 1
 83 -107 l 1
 119 0 l 1
EndSplineSet
Ligature: 0 1 'liga' space uni0327
EndChar
StartChar: hungarumlaut
Encoding: 205 733 134
Width: 700
Flags: W
Fore
74 682 m 1
 284 825 l 1
 346 745 l 1
 124 613 l 1
 74 682 l 1
357 682 m 1
 568 825 l 1
 629 745 l 1
 408 613 l 1
 357 682 l 1
EndSplineSet
Ligature: 0 1 'liga' space uni030B
EndChar
StartChar: ogonek
Encoding: 206 731 135
Width: 340
Flags: W
HStem: -204 81<190 215> -20 20G<160 230>
Fore
160 0 m 1
 230 0 l 1
 180 -36 165 -54 165 -81 c 0
 165 -105 186 -123 215 -123 c 0
 227 -123 236 -121 256 -113 c 1
 256 -190 l 1
 234 -199 212 -204 190 -204 c 0
 121 -204 74 -164 74 -105 c 0
 74 -62 103 -27 160 0 c 1
EndSplineSet
Ligature: 0 1 'liga' space uni0328
EndChar
StartChar: caron
Encoding: 207 711 136
Width: 540
Flags: W
HStem: 630 138<74 328>
Fore
74 768 m 1
 221 768 l 1
 275 704 l 1
 328 768 l 1
 473 768 l 1
 328 630 l 1
 221 630 l 1
 74 768 l 1
EndSplineSet
EndChar
StartChar: emdash
Encoding: 208 8212 137
Width: 1000
Flags: W
HStem: 229 118<0 1000>
Fore
0 229 m 1
 0 347 l 1
 1000 347 l 1
 1000 229 l 1
 0 229 l 1
EndSplineSet
EndChar
StartChar: uniFFFD
Encoding: 209 65533 138
Width: 340
Flags: W
HStem: -204 81<115 140> -20 20G<100 170>
Fore
170 0 m 1
 100 0 l 1
 150 -36 165 -54 165 -81 c 0
 165 -105 144 -123 115 -123 c 0
 103 -123 94 -121 74 -113 c 1
 74 -190 l 1
 96 -199 118 -204 140 -204 c 0
 209 -204 256 -164 256 -105 c 0
 256 -62 227 -27 170 0 c 1
EndSplineSet
Colour: ffffff
EndChar
StartChar: AE
Encoding: 225 198 138
Width: 900
Flags: W
HStem: 0 131<625 843> 303 131<625 832> 608 131<504 843>
VStem: 488 137<0 303 322 608>
Fore
17 0 m 1
 504 739 l 1
 843 739 l 1
 843 608 l 1
 625 608 l 1
 625 434 l 1
 832 434 l 1
 832 303 l 1
 625 303 l 1
 625 131 l 1
 843 131 l 1
 843 0 l 1
 488 0 l 1
 488 191 l 1
 294 191 l 1
 182 0 l 1
 17 0 l 1
373 322 m 1
 488 322 l 1
 488 513 l 1
 373 322 l 1
EndSplineSet
EndChar
StartChar: ordfeminine
Encoding: 227 170 139
Width: 360
Flags: W
HStem: 310 70<31 342> 431 74<170 187> 676 74<173 189>
VStem: 28 76<581 599> 266 72<581 739>
Fore
338 739 m 1
 338 441 l 1
 272 441 l 1
 272 482 l 1
 247 449 210 431 170 431 c 0
 90 431 28 501 28 592 c 0
 28 680 93 750 175 750 c 0
 214 750 246 733 272 700 c 1
 272 739 l 1
 338 739 l 1
185 676 m 0
 140 676 104 637 104 589 c 0
 104 543 140 505 185 505 c 0
 230 505 266 543 266 591 c 0
 266 639 231 676 185 676 c 0
31 310 m 1
 31 380 l 1
 342 380 l 1
 342 310 l 1
 31 310 l 1
EndSplineSet
EndChar
StartChar: Lslash
Encoding: 232 321 140
Width: 480
Flags: W
HStem: 0 128<247 473> 719 20G<110 247>
VStem: 110 137<0 350 397 739>
Fore
110 0 m 1
 110 273 l 1
 14 194 l 1
 14 318 l 1
 110 397 l 1
 110 739 l 1
 247 739 l 1
 247 474 l 1
 389 584 l 1
 389 461 l 1
 247 350 l 1
 247 128 l 1
 473 128 l 1
 473 0 l 1
 110 0 l 1
EndSplineSet
EndChar
StartChar: Oslash
Encoding: 233 216 141
Width: 840
Flags: W
HStem: -13 132<397 431> 620 132<416 431>
VStem: 30 138<370 384> 665 138<350 384>
DStem: 505 605 601 540 233 201 329 135
Fore
738 743 m 1
 677 653 l 1
 759 578 803 479 803 370 c 0
 803 154 636 -13 421 -13 c 0
 361 -13 306 -1 253 23 c 1
 193 -65 l 1
 97 0 l 1
 156 87 l 1
 76 159 30 263 30 370 c 0
 30 582 202 752 416 752 c 0
 473 752 526 741 581 717 c 1
 643 809 l 1
 738 743 l 1
601 540 m 1
 329 135 l 1
 360 124 389 119 420 119 c 0
 560 119 665 226 665 368 c 0
 665 433 643 491 601 540 c 1
233 201 m 1
 505 605 l 1
 476 615 448 620 416 620 c 0
 278 620 168 510 168 370 c 0
 168 309 191 249 233 201 c 1
EndSplineSet
KernsSLIF: 65 -37 0 0
EndChar
StartChar: OE
Encoding: 234 338 142
Width: 1060
Flags: W
HStem: -13 132<405 439> 0 131<786 1004> 303 131<786 993> 608 131<647 1004> 620 132<389 423>
VStem: 38 138<354 388> 652 341<354 434>
Fore
1004 0 m 1x76
 647 0 l 1x76
 647 81 l 1
 592 20 511 -13 418 -13 c 0
 202 -13 38 151 38 369 c 0
 38 588 199 752 413 752 c 0xae
 514 752 591 721 647 657 c 1
 647 739 l 1
 1004 739 l 1
 1004 608 l 1
 786 608 l 1
 786 434 l 1
 993 434 l 1
 993 303 l 1
 786 303 l 1
 786 131 l 1
 1004 131 l 1
 1004 0 l 1x76
415 620 m 0xae
 343 620 288 597 243 547 c 0
 201 500 176 432 176 365 c 0
 176 226 280 119 416 119 c 0
 553 119 652 224 652 368 c 0
 652 512 551 620 415 620 c 0xae
EndSplineSet
EndChar
StartChar: ordmasculine
Encoding: 235 186 143
Width: 360
Flags: W
HStem: 311 70<31 338> 442 74<184 192> 680 70<185 192>
VStem: 31 73<599 601> 265 73<583.592 601>
Fore
185 750 m 0
 270 750 338 682 338 596 c 0
 338 510 270 442 184 442 c 0
 100 442 31 513 31 599 c 0
 31 681 101 750 185 750 c 0
185 680 m 0
 141 680 104 643 104 599 c 0
 104 551 138 516 184 516 c 0
 230 516 265 551 265 597 c 0
 265 642 228 680 185 680 c 0
31 311 m 1
 31 381 l 1
 338 381 l 1
 338 311 l 1
 31 311 l 1
EndSplineSet
EndChar
StartChar: ae
Encoding: 241 230 144
Width: 1080
Flags: W
HStem: -13 122<316 335 759 783> 219 118<607 1042> 445 122<316 335 749 783>
VStem: 30 134<273 292>
Fore
887 164 m 1
 1032 164 l 1
 999 63 889 -13 776 -13 c 0
 702 -13 651 9 607 60 c 1
 607 0 l 1
 485 0 l 1
 485 60 l 1
 440 7 396 -13 320 -13 c 0
 154 -13 30 110 30 275 c 0
 30 440 155 567 318 567 c 0
 389 567 439 547 485 499 c 1
 485 554 l 1
 607 554 l 1
 607 499 l 1
 654 547 704 567 774 567 c 0
 929 567 1051 444 1051 288 c 0
 1051 265 1049 249 1042 219 c 1
 614 219 l 1
 637 150 695 109 770 109 c 0
 819 109 855 126 887 164 c 1
323 445 m 0
 234 445 164 372 164 280 c 0
 164 181 231 109 325 109 c 0
 414 109 481 181 481 276 c 0
 481 372 412 445 323 445 c 0
607 337 m 1
 911 337 l 1
 892 409 841 445 761 445 c 0
 684 445 633 410 607 337 c 1
EndSplineSet
KernsSLIF: 121 -29 0 0 119 -24 0 0 118 -25 0 0
EndChar
StartChar: dotlessi
Encoding: 245 305 145
Width: 240
Flags: W
HStem: 0 21G<54 187> 534 20G<54 187>
VStem: 54 133<0 554>
Fore
54 0 m 1
 54 554 l 1
 187 554 l 1
 187 0 l 1
 54 0 l 1
EndSplineSet
EndChar
StartChar: lslash
Encoding: 248 322 146
Width: 320
Flags: W
HStem: 0 21G<98 231> 719 20G<98 231>
VStem: 98 133<0 383 417 739>
Fore
98 0 m 1
 98 317 l 1
 17 255 l 1
 17 354 l 1
 98 417 l 1
 98 739 l 1
 231 739 l 1
 231 482 l 1
 312 545 l 1
 312 446 l 1
 231 383 l 1
 231 0 l 1
 98 0 l 1
EndSplineSet
EndChar
StartChar: oslash
Encoding: 249 248 147
Width: 660
Flags: W
HStem: -13 122<317 335> 445 122<317 335>
VStem: 30 134<268 286> 486 134<268 286>
DStem: 363 440 450 383 191 185 271 119
Fore
59 -10 m 1
 116 74 l 1
 61 126 30 200 30 277 c 0
 30 437 163 567 326 567 c 0
 365 567 400 560 435 546 c 1
 487 623 l 1
 573 565 l 1
 523 492 l 1
 587 433 620 360 620 277 c 0
 620 117 488 -13 326 -13 c 0
 282 -13 241 -4 200 15 c 1
 144 -67 l 1
 59 -10 l 1
191 185 m 1
 363 440 l 1
 348 444 339 445 325 445 c 0
 237 445 164 370 164 278 c 0
 164 245 173 214 191 185 c 1
450 383 m 1
 271 119 l 1
 290 112 306 109 325 109 c 0
 414 109 486 184 486 276 c 0
 486 315 474 351 450 383 c 1
EndSplineSet
EndChar
StartChar: oe
Encoding: 250 339 148
Width: 1080
Flags: W
HStem: -13 122<317 335 749 783> 218 117<608 1043> 445 122<317 335 749 771>
VStem: 30 134<274 292>
Fore
888 163 m 1
 1030 163 l 1
 991 56 888 -13 768 -13 c 0
 674 -13 594 27 543 100 c 1
 490 23 419 -13 324 -13 c 0
 156 -13 30 112 30 277 c 0
 30 439 158 567 320 567 c 0
 382 567 443 547 487 513 c 0
 506 499 520 485 543 456 c 1
 607 534 672 567 762 567 c 0
 822 567 882 549 930 517 c 0
 1008 465 1048 385 1048 284 c 0
 1048 261 1047 245 1043 218 c 1
 614 218 l 1
 636 151 694 109 767 109 c 0
 813 109 862 131 888 163 c 1
325 445 m 0
 235 445 164 372 164 281 c 0
 164 182 234 109 329 109 c 0
 418 109 486 181 486 276 c 0
 486 372 416 445 325 445 c 0
608 335 m 1
 910 335 l 1
 889 408 839 445 760 445 c 0
 685 445 633 408 608 335 c 1
EndSplineSet
EndChar
StartChar: germandbls
Encoding: 251 223 149
Width: 600
Flags: W
HStem: -13 122<348 372> 630 122<258 276>
VStem: 51 133<0 516> 356 134<530 548> 450 134<194 218>
Fore
51 0 m 1xe8
 51 487 l 2
 51 553 61 599 83 643 c 0
 119 711 190 752 272 752 c 0
 395 752 490 663 490 546 c 0xf0
 490 480 467 437 415 408 c 1
 463 397 486 387 514 364 c 0
 561 327 584 277 584 216 c 0
 584 82 487 -13 350 -13 c 0
 269 -13 210 18 173 79 c 1
 173 0 l 1
 51 0 l 1xe8
184 189 m 1
 266 189 l 1
 275 143 315 109 359 109 c 0
 411 109 450 150 450 205 c 0xe8
 450 246 429 281 393 298 c 0
 363 312 338 315 266 315 c 2
 255 315 l 1
 255 433 l 1
 266 433 l 2
 318 433 356 477 356 536 c 0
 356 593 322 630 271 630 c 0
 213 630 184 588 184 503 c 2
 184 189 l 1
EndSplineSet
EndChar
StartChar: Adieresis
Encoding: 256 196 150
Width: 740
Flags: W
HStem: 0 21G<7 158 582 733> 191 131<290 503> 719 20G<315 423> 805 133<199 332 409 542>
VStem: 199 133<805 938> 409 133<805 938>
DStem: 315 739 240 191 7 0 158 0 503 191 423 739 582 0 733 0
Fore
7 0 m 1
 315 739 l 1
 423 739 l 1
 733 0 l 1
 582 0 l 1
 503 191 l 1
 240 191 l 1
 158 0 l 1
 7 0 l 1
290 322 m 1
 448 322 l 1
 369 546 l 1
 290 322 l 1
199 805 m 1
 199 938 l 1
 332 938 l 1
 332 805 l 1
 199 805 l 1
409 805 m 1
 409 938 l 1
 542 938 l 1
 542 805 l 1
 409 805 l 1
EndSplineSet
KernsSLIF: 121 -43 0 0 119 -40 0 0 118 -42 0 0 117 -14 0 0 116 -10 0 0 39 -74 0 0 186 -73 0 0 113 -22 0 0 46 20 0 0 111 -23 0 0 45 -17 0 0 172 -16 0 0 171 -16 0 0 103 -20 0 0 100 -20 0 0 44 20 0 0 99 -23 0 0 97 -20 0 0 89 -83 0 0 87 -55 0 0 86 -74 0 0 85 -31 0 0 84 -41 0 0 81 -37 0 0 79 -36 0 0 71 -36 0 0 67 -36 0 0
Ligature: 0 0 'liga' A uni0308
EndChar
StartChar: Aacute
Encoding: 257 193 151
Width: 740
Flags: W
HStem: 0 21G<7 158 582 733> 191 131<290 503> 719 20G<315 423>
DStem: 315 739 240 191 7 0 158 0 503 191 423 739 582 0 733 0
Fore
7 0 m 1
 315 739 l 1
 423 739 l 1
 733 0 l 1
 582 0 l 1
 503 191 l 1
 240 191 l 1
 158 0 l 1
 7 0 l 1
290 322 m 1
 448 322 l 1
 369 546 l 1
 290 322 l 1
315 788 m 1
 264 866 l 1
 488 1000 l 1
 542 908 l 1
 315 788 l 1
EndSplineSet
KernsSLIF: 121 -43 0 0 119 -40 0 0 118 -42 0 0 117 -14 0 0 116 -10 0 0 39 -74 0 0 113 -22 0 0 46 20 0 0 111 -23 0 0 45 -17 0 0 172 -16 0 0 171 -16 0 0 103 -20 0 0 101 -23 0 0 100 -20 0 0 44 20 0 0 99 -23 0 0 97 -20 0 0 89 -83 0 0 87 -55 0 0 86 -74 0 0 85 -31 0 0 84 -41 0 0 81 -37 0 0 79 -36 0 0 71 -36 0 0 67 -36 0 0
Ligature: 0 0 'liga' A acutecomb
EndChar
StartChar: Agrave
Encoding: 258 192 152
Width: 740
Flags: W
HStem: 0 21G<7 158 582 733> 191 131<290 503> 719 20G<315 423>
DStem: 197 912 254 1000 423 788 476 867 315 739 240 191 7 0 158 0 503 191 423 739 582 0 733 0
Fore
7 0 m 1
 315 739 l 1
 423 739 l 1
 733 0 l 1
 582 0 l 1
 503 191 l 1
 240 191 l 1
 158 0 l 1
 7 0 l 1
290 322 m 1
 448 322 l 1
 369 546 l 1
 290 322 l 1
197 912 m 1
 254 1000 l 1
 476 867 l 1
 423 788 l 1
 197 912 l 1
EndSplineSet
KernsSLIF: 46 20 0 0 44 20 0 0 89 -83 0 0 87 -55 0 0 86 -74 0 0 85 -31 0 0 84 -41 0 0 81 -37 0 0 79 -36 0 0 71 -36 0 0 67 -36 0 0
Ligature: 0 0 'liga' A gravecomb
EndChar
StartChar: Acircumflex
Encoding: 259 194 153
Width: 740
Flags: W
HStem: 0 21G<7 158 582 733> 191 131<290 503> 719 20G<315 423> 805 138<318 318 318 570>
DStem: 315 739 240 191 7 0 158 0 503 191 423 739 582 0 733 0
Fore
7 0 m 1
 315 739 l 1
 423 739 l 1
 733 0 l 1
 582 0 l 1
 503 191 l 1
 240 191 l 1
 158 0 l 1
 7 0 l 1
290 322 m 1
 448 322 l 1
 369 546 l 1
 290 322 l 1
171 805 m 1
 318 943 l 1
 425 943 l 1
 570 805 l 1
 425 805 l 1
 372 869 l 1
 318 805 l 1
 171 805 l 1
EndSplineSet
KernsSLIF: 46 20 0 0 44 20 0 0 89 -83 0 0 87 -55 0 0 86 -74 0 0 85 -31 0 0 84 -41 0 0 81 -37 0 0 79 -36 0 0 71 -36 0 0 67 -36 0 0
Ligature: 0 0 'liga' A uni0302
EndChar
StartChar: Abreve
Encoding: 260 258 154
Width: 740
Flags: W
HStem: 0 21G<7 158 582 733> 191 131<290 503> 719 20G<315 423> 805 96<370 376>
DStem: 315 739 240 191 7 0 158 0 503 191 423 739 582 0 733 0
Fore
7 0 m 1
 315 739 l 1
 423 739 l 1
 733 0 l 1
 582 0 l 1
 503 191 l 1
 240 191 l 1
 158 0 l 1
 7 0 l 1
290 322 m 1
 448 322 l 1
 369 546 l 1
 290 322 l 1
204 944 m 1
 302 944 l 1
 314 915 337 901 370 901 c 0
 405 901 427 916 432 944 c 1
 534 944 l 1
 531 861 465 805 370 805 c 0
 271 805 210 856 204 944 c 1
EndSplineSet
Ligature: 0 0 'liga' A uni0306
EndChar
StartChar: Atilde
Encoding: 261 195 155
Width: 740
Flags: W
HStem: 0 21G<7 158 582 733> 191 131<290 503> 719 20G<315 423> 811 102<415 442> 836 102<308 329>
DStem: 315 739 240 191 7 0 158 0 503 191 423 739 582 0 733 0
Fore
7 0 m 1xe0
 315 739 l 1
 423 739 l 1
 733 0 l 1
 582 0 l 1
 503 191 l 1
 240 191 l 1
 158 0 l 1
 7 0 l 1xe0
290 322 m 1
 448 322 l 1
 369 546 l 1
 290 322 l 1
259 811 m 1xf0
 205 891 l 1
 240 926 266 938 308 938 c 0xe8
 329 938 339 936 368 924 c 0
 388 916 402 913 415 913 c 0
 441 913 461 923 482 947 c 1
 536 866 l 1
 504 827 477 811 442 811 c 0xf0
 427 811 409 815 383 824 c 0
 355 834 345 836 329 836 c 0xe8
 304 836 297 833 259 811 c 1xf0
EndSplineSet
KernsSLIF: 46 20 0 0 44 20 0 0 89 -83 0 0 87 -55 0 0 86 -74 0 0 85 -31 0 0 84 -41 0 0 81 -37 0 0 79 -36 0 0 71 -36 0 0 67 -36 0 0
Ligature: 0 0 'liga' A tildecomb
EndChar
StartChar: Aring
Encoding: 262 197 156
Width: 740
Flags: W
HStem: 0 21G<7 158 582 733> 191 131<290 503> 719 20G<315 423> 785 67<370 376> 924 67<367 376>
VStem: 267 67<888 897> 406 67<888 897>
DStem: 315 739 240 191 7 0 158 0 503 191 423 739 582 0 733 0
Fore
7 0 m 1
 315 739 l 1
 423 739 l 1
 733 0 l 1
 582 0 l 1
 503 191 l 1
 240 191 l 1
 158 0 l 1
 7 0 l 1
290 322 m 1
 448 322 l 1
 369 546 l 1
 290 322 l 1
371 991 m 0
 427 991 473 944 473 888 c 0
 473 831 426 785 370 785 c 0
 313 785 267 831 267 888 c 0
 267 945 313 991 371 991 c 0
370 924 m 0
 350 924 334 908 334 888 c 0
 334 868 350 852 370 852 c 0
 390 852 406 868 406 888 c 0
 406 908 390 924 370 924 c 0
EndSplineSet
KernsSLIF: 121 -43 0 0 119 -40 0 0 118 -42 0 0 117 -14 0 0 116 -10 0 0 39 -74 0 0 186 -73 0 0 113 -22 0 0 46 20 0 0 111 -23 0 0 45 -17 0 0 172 -16 0 0 171 -16 0 0 103 -20 0 0 101 -23 0 0 100 -20 0 0 44 20 0 0 99 -23 0 0 97 -20 0 0 89 -83 0 0 87 -55 0 0 86 -74 0 0 85 -31 0 0 84 -41 0 0 81 -37 0 0 79 -36 0 0 71 -36 0 0 67 -36 0 0
Ligature: 0 0 'liga' A uni030A
EndChar
StartChar: Aogonek
Encoding: 263 260 157
Width: 740
Flags: W
HStem: -204 81<693 718> -20 20G<581 663> 0 21G<7 158> 191 131<290 502> 719 20G<315 423>
VStem: 577 91<-105 -81>
DStem: 315 739 240 191 7 0 158 0 502 191 423 739 581 0 733 0
Fore
502 191 m 1
 240 191 l 1
 158 0 l 1
 7 0 l 1
 315 739 l 1
 423 739 l 1
 733 0 l 1
 683 -36 668 -54 668 -81 c 0
 668 -105 689 -123 718 -123 c 0
 730 -123 739 -121 759 -113 c 1
 759 -190 l 1
 737 -199 715 -204 693 -204 c 0
 624 -204 577 -164 577 -105 c 0
 577 -62 606 -27 663 0 c 1
 581 0 l 1
 502 191 l 1
290 322 m 1
 448 322 l 1
 369 546 l 1
 290 322 l 1
EndSplineSet
Ligature: 0 0 'liga' A uni0328
EndChar
StartChar: Ccedilla
Encoding: 264 199 158
Width: 780
Flags: W
HStem: -251 55<397 414> -106 55<405 416> 620 132<397 431>
VStem: 30 138<356 390> 446 58<-156 -148>
Fore
399 -13 m 1
 383 -58 l 1
 397 -53 403 -51 412 -51 c 0
 462 -51 504 -97 504 -152 c 0
 504 -211 465 -251 408 -251 c 0
 356 -251 315 -216 307 -166 c 1
 369 -166 l 1
 377 -186 389 -196 407 -196 c 0
 428 -196 446 -175 446 -150 c 0
 446 -126 428 -106 407 -106 c 0
 393 -106 382 -113 369 -133 c 1
 316 -107 l 1
 349 -7 l 1
 170 20 30 186 30 372 c 0
 30 581 201 752 410 752 c 0
 500 752 587 722 655 667 c 0
 705 626 731 591 760 527 c 1
 607 527 l 1
 557 592 499 620 413 620 c 0
 338 620 274 592 229 539 c 0
 191 495 168 431 168 371 c 0
 168 233 280 119 416 119 c 0
 487 119 539 143 599 206 c 1
 760 206 l 1
 698 65 561 -18 399 -13 c 1
EndSplineSet
KernsSLIF: 65 -17 0 0
Ligature: 0 0 'liga' C uni0327
EndChar
StartChar: Cacute
Encoding: 265 262 159
Width: 780
Flags: W
HStem: -13 132<397 431> 620 132<397 431>
VStem: 30 138<354 388>
Fore
599 206 m 1
 760 206 l 1
 702 71 570 -13 419 -13 c 0
 203 -13 30 159 30 372 c 0
 30 581 201 752 410 752 c 0
 500 752 587 722 655 667 c 0
 705 626 731 591 760 527 c 1
 607 527 l 1
 557 592 499 620 413 620 c 0
 338 620 274 592 229 539 c 0
 191 495 168 431 168 371 c 0
 168 233 280 119 416 119 c 0
 487 119 539 143 599 206 c 1
345 788 m 1
 294 866 l 1
 518 1000 l 1
 572 908 l 1
 345 788 l 1
EndSplineSet
Ligature: 0 0 'liga' C acutecomb
EndChar
StartChar: Ccaron
Encoding: 266 268 160
Width: 780
Flags: W
HStem: -13 132<397 431> 620 132<397 431> 805 138<214 468>
VStem: 30 138<354 388>
Fore
599 206 m 1
 760 206 l 1
 702 71 570 -13 419 -13 c 0
 203 -13 30 159 30 372 c 0
 30 581 201 752 410 752 c 0
 500 752 587 722 655 667 c 0
 705 626 731 591 760 527 c 1
 607 527 l 1
 557 592 499 620 413 620 c 0
 338 620 274 592 229 539 c 0
 191 495 168 431 168 371 c 0
 168 233 280 119 416 119 c 0
 487 119 539 143 599 206 c 1
214 943 m 1
 361 943 l 1
 415 879 l 1
 468 943 l 1
 613 943 l 1
 468 805 l 1
 361 805 l 1
 214 943 l 1
EndSplineSet
Ligature: 0 0 'liga' C uni030C
EndChar
StartChar: Dcaron
Encoding: 267 270 161
Width: 700
Flags: W
HStem: 0 21G<68 240> 608 131<68 277> 805 138<114 368>
VStem: 68 137<0 608> 522 138<368 385>
Fore
68 0 m 1
 68 739 l 1
 237 739 l 2
 353 739 441 721 499 686 c 0
 602 624 660 508 660 368 c 0
 660 219 593 97 479 41 c 0
 419 11 352 0 240 0 c 2
 68 0 l 1
205 131 m 1
 235 131 l 2
 317 131 374 141 415 164 c 0
 481 200 522 279 522 368 c 0
 522 463 479 542 409 578 c 0
 366 600 319 608 232 608 c 2
 205 608 l 1
 205 131 l 1
114 943 m 1
 261 943 l 1
 315 879 l 1
 368 943 l 1
 513 943 l 1
 368 805 l 1
 261 805 l 1
 114 943 l 1
EndSplineSet
Ligature: 0 0 'liga' D uni030C
EndChar
StartChar: Edieresis
Encoding: 268 203 162
Width: 520
Flags: W
HStem: 0 131<205 465> 303 131<205 454> 608 131<68 465> 805 133<95 228 305 438>
VStem: 68 137<0 303 0 608> 95 133<805 938> 305 133<805 938>
Fore
68 0 m 1xfa
 68 739 l 1
 465 739 l 1
 465 608 l 1
 205 608 l 1
 205 434 l 1
 454 434 l 1
 454 303 l 1
 205 303 l 1
 205 131 l 1
 465 131 l 1
 465 0 l 1
 68 0 l 1xfa
95 805 m 1xf6
 95 938 l 1
 228 938 l 1
 228 805 l 1
 95 805 l 1xf6
305 805 m 1
 305 938 l 1
 438 938 l 1
 438 805 l 1
 305 805 l 1
EndSplineSet
Ligature: 0 0 'liga' E uni0308
EndChar
StartChar: Eacute
Encoding: 269 201 163
Width: 520
Flags: W
HStem: 0 131<205 465> 303 131<205 454> 608 131<68 465>
VStem: 68 137<0 303 0 608>
Fore
68 0 m 1
 68 739 l 1
 465 739 l 1
 465 608 l 1
 205 608 l 1
 205 434 l 1
 454 434 l 1
 454 303 l 1
 205 303 l 1
 205 131 l 1
 465 131 l 1
 465 0 l 1
 68 0 l 1
225 788 m 1
 174 866 l 1
 398 1000 l 1
 452 908 l 1
 225 788 l 1
EndSplineSet
Ligature: 0 0 'liga' E acutecomb
EndChar
StartChar: Egrave
Encoding: 270 200 164
Width: 520
Flags: W
HStem: 0 131<205 465> 303 131<205 454> 608 131<68 465>
VStem: 68 137<0 303 0 608>
DStem: 87 912 144 1000 313 788 366 867
Fore
68 0 m 1
 68 739 l 1
 465 739 l 1
 465 608 l 1
 205 608 l 1
 205 434 l 1
 454 434 l 1
 454 303 l 1
 205 303 l 1
 205 131 l 1
 465 131 l 1
 465 0 l 1
 68 0 l 1
87 912 m 1
 144 1000 l 1
 366 867 l 1
 313 788 l 1
 87 912 l 1
EndSplineSet
Ligature: 0 0 'liga' E gravecomb
EndChar
StartChar: Ecircumflex
Encoding: 271 202 165
Width: 520
Flags: W
HStem: 0 131<205 465> 303 131<205 454> 608 131<68 465> 805 138<211 211 211 463>
VStem: 68 137<0 303 0 608>
Fore
68 0 m 1
 68 739 l 1
 465 739 l 1
 465 608 l 1
 205 608 l 1
 205 434 l 1
 454 434 l 1
 454 303 l 1
 205 303 l 1
 205 131 l 1
 465 131 l 1
 465 0 l 1
 68 0 l 1
64 805 m 1
 211 943 l 1
 318 943 l 1
 463 805 l 1
 318 805 l 1
 265 869 l 1
 211 805 l 1
 64 805 l 1
EndSplineSet
Ligature: 0 0 'liga' E uni0302
EndChar
StartChar: Ecaron
Encoding: 272 282 166
Width: 520
Flags: W
HStem: 0 131<205 465> 303 131<205 454> 608 131<68 465> 805 138<64 318>
VStem: 68 137<0 303 0 608>
Fore
68 0 m 1
 68 739 l 1
 465 739 l 1
 465 608 l 1
 205 608 l 1
 205 434 l 1
 454 434 l 1
 454 303 l 1
 205 303 l 1
 205 131 l 1
 465 131 l 1
 465 0 l 1
 68 0 l 1
64 943 m 1
 211 943 l 1
 265 879 l 1
 318 943 l 1
 463 943 l 1
 318 805 l 1
 211 805 l 1
 64 943 l 1
EndSplineSet
Ligature: 0 0 'liga' E uni030C
EndChar
StartChar: Edotaccent
Encoding: 273 278 167
Width: 520
Flags: W
HStem: 0 131<205 465> 303 131<205 454> 608 131<68 465> 805 133<210 343>
VStem: 68 137<0 303 0 608> 210 133<805 938>
Fore
68 0 m 1
 68 739 l 1
 465 739 l 1
 465 608 l 1
 205 608 l 1
 205 434 l 1
 454 434 l 1
 454 303 l 1
 205 303 l 1
 205 131 l 1
 465 131 l 1
 465 0 l 1
 68 0 l 1
210 805 m 1
 210 938 l 1
 343 938 l 1
 343 805 l 1
 210 805 l 1
EndSplineSet
Ligature: 0 0 'liga' E uni0307
EndChar
StartChar: Eogonek
Encoding: 274 280 168
Width: 520
Flags: W
HStem: -204 81<425 450> 0 131<205 395> 303 131<205 454> 608 131<68 465>
VStem: 68 137<0 303 0 608> 309 91<-105 -81>
Fore
465 131 m 1
 465 0 l 1
 414 -37 400 -54 400 -81 c 0
 400 -105 421 -123 450 -123 c 0
 462 -123 471 -121 491 -113 c 1
 491 -190 l 1
 469 -199 447 -204 425 -204 c 0
 356 -204 309 -164 309 -105 c 0
 309 -62 337 -27 395 0 c 1
 68 0 l 1
 68 739 l 1
 465 739 l 1
 465 608 l 1
 205 608 l 1
 205 434 l 1
 454 434 l 1
 454 303 l 1
 205 303 l 1
 205 131 l 1
 465 131 l 1
EndSplineSet
Ligature: 0 0 'liga' E uni0328
EndChar
StartChar: Gbreve
Encoding: 275 286 169
Width: 840
Flags: W
HStem: -13 132<413 447> 249 128<335 641> 620 132<397 435> 805 96<420 435>
VStem: 30 138<354 388>
Fore
335 249 m 1
 335 377 l 1
 818 377 l 1
 818 359 l 2
 818 264 780 172 712 101 c 0
 639 26 543 -13 432 -13 c 0
 205 -13 30 155 30 371 c 0
 30 583 203 752 419 752 c 0
 580 752 732 655 780 522 c 1
 619 522 l 1
 573 586 502 620 416 620 c 0
 345 620 280 594 237 547 c 0
 195 503 168 433 168 369 c 0
 168 228 279 119 424 119 c 0
 521 119 601 167 641 249 c 1
 335 249 l 1
254 944 m 1
 352 944 l 1
 364 915 387 901 420 901 c 0
 455 901 477 916 482 944 c 1
 584 944 l 1
 581 861 515 805 420 805 c 0
 321 805 260 856 254 944 c 1
EndSplineSet
Ligature: 0 0 'liga' G uni0306
EndChar
StartChar: Idieresis
Encoding: 276 207 170
Width: 280
Flags: W
HStem: 0 21G<68 205> 719 20G<68 205> 805 133<-36 97 174 307>
VStem: -36 133<805 938> 68 137<0 739> 174 133<805 938>
Fore
68 0 m 1xe8
 68 739 l 1
 205 739 l 1
 205 0 l 1
 68 0 l 1xe8
-36 805 m 1xf0
 -36 938 l 1
 97 938 l 1
 97 805 l 1
 -36 805 l 1xf0
174 805 m 1xe4
 174 938 l 1
 307 938 l 1
 307 805 l 1
 174 805 l 1xe4
EndSplineSet
Ligature: 0 0 'liga' I uni0308
EndChar
StartChar: Iacute
Encoding: 277 205 171
Width: 280
Flags: W
HStem: 0 21G<68 205> 719 20G<68 205>
VStem: 68 137<0 739>
Fore
68 0 m 1
 68 739 l 1
 205 739 l 1
 205 0 l 1
 68 0 l 1
55 788 m 1
 4 866 l 1
 228 1000 l 1
 282 908 l 1
 55 788 l 1
EndSplineSet
Ligature: 0 0 'liga' I acutecomb
EndChar
StartChar: Igrave
Encoding: 278 204 172
Width: 280
Flags: W
HStem: 0 21G<68 205> 719 20G<68 205>
VStem: 68 137<0 739>
DStem: 4 912 61 1000 230 788 283 867
Fore
68 0 m 1
 68 739 l 1
 205 739 l 1
 205 0 l 1
 68 0 l 1
4 912 m 1
 61 1000 l 1
 283 867 l 1
 230 788 l 1
 4 912 l 1
EndSplineSet
Ligature: 0 0 'liga' I gravecomb
EndChar
StartChar: Icircumflex
Encoding: 279 206 173
Width: 280
Flags: W
HStem: 0 21G<68 205> 719 20G<68 205> 805 138<91 91 91 343>
VStem: 68 137<0 739>
Fore
68 0 m 1
 68 739 l 1
 205 739 l 1
 205 0 l 1
 68 0 l 1
-56 805 m 1
 91 943 l 1
 198 943 l 1
 343 805 l 1
 198 805 l 1
 145 869 l 1
 91 805 l 1
 -56 805 l 1
EndSplineSet
Ligature: 0 0 'liga' I uni0302
EndChar
StartChar: Idotaccent
Encoding: 280 304 174
Width: 280
Flags: W
HStem: 0 21G<68 205> 719 20G<68 205> 805 133<74 207>
VStem: 68 137<0 739>
Fore
68 0 m 1
 68 739 l 1
 205 739 l 1
 205 0 l 1
 68 0 l 1
74 805 m 1
 74 938 l 1
 207 938 l 1
 207 805 l 1
 74 805 l 1
EndSplineSet
Ligature: 0 0 'liga' I uni0307
EndChar
StartChar: Lacute
Encoding: 281 313 175
Width: 440
Flags: W
HStem: 0 131<204 431> 719 20G<68 205>
VStem: 68 137<0 739>
Fore
68 0 m 1
 68 739 l 1
 205 739 l 1
 205 131 l 1
 431 131 l 1
 431 0 l 1
 68 0 l 1
135 788 m 1
 84 866 l 1
 308 1000 l 1
 362 908 l 1
 135 788 l 1
EndSplineSet
Ligature: 0 0 'liga' L acutecomb
EndChar
StartChar: Lcaron
Encoding: 282 317 176
Width: 440
Flags: W
HStem: 0 131<204 431> 719 20G<68 205 336 440>
VStem: 68 137<0 739>
DStem: 336 739 440 739 278 547 382 547
Fore
68 0 m 1
 68 739 l 1
 205 739 l 1
 205 131 l 1
 431 131 l 1
 431 0 l 1
 68 0 l 1
278 547 m 1
 336 739 l 1
 440 739 l 1
 382 547 l 1
 278 547 l 1
EndSplineSet
Ligature: 0 0 'liga' L uni030C
EndChar
StartChar: Nacute
Encoding: 283 323 177
Width: 740
Flags: W
HStem: 0 21G<68 205 514 667> 719 20G<68 224 530 667>
VStem: 68 137<0 537> 530 137<201 739>
DStem: 205 537 224 739 514 0 530 201
Fore
68 0 m 1
 68 739 l 1
 224 739 l 1
 530 201 l 1
 530 739 l 1
 667 739 l 1
 667 0 l 1
 514 0 l 1
 205 537 l 1
 205 0 l 1
 68 0 l 1
285 788 m 1
 234 866 l 1
 458 1000 l 1
 512 908 l 1
 285 788 l 1
EndSplineSet
Ligature: 0 0 'liga' N acutecomb
EndChar
StartChar: Ncaron
Encoding: 284 327 178
Width: 740
Flags: W
HStem: 0 21G<68 205 514 667> 719 20G<68 224 530 667> 805 138<174 428>
VStem: 68 137<0 537> 530 137<201 739>
DStem: 205 537 224 739 514 0 530 201
Fore
68 0 m 1
 68 739 l 1
 224 739 l 1
 530 201 l 1
 530 739 l 1
 667 739 l 1
 667 0 l 1
 514 0 l 1
 205 537 l 1
 205 0 l 1
 68 0 l 1
174 943 m 1
 321 943 l 1
 375 879 l 1
 428 943 l 1
 573 943 l 1
 428 805 l 1
 321 805 l 1
 174 943 l 1
EndSplineSet
Ligature: 0 0 'liga' N uni030C
EndChar
StartChar: Ntilde
Encoding: 285 209 179
Width: 740
Flags: W
HStem: 0 21G<68 205 514 667> 719 20G<68 224 530 667> 811 102<419 446> 836 102<312 333>
VStem: 68 137<0 537> 530 137<201 739>
DStem: 205 537 224 739 514 0 530 201
Fore
68 0 m 1xcc
 68 739 l 1
 224 739 l 1
 530 201 l 1
 530 739 l 1
 667 739 l 1
 667 0 l 1
 514 0 l 1
 205 537 l 1
 205 0 l 1
 68 0 l 1xcc
263 811 m 1xec
 209 891 l 1
 244 926 270 938 312 938 c 0xdc
 333 938 343 936 372 924 c 0
 392 916 406 913 419 913 c 0
 445 913 465 923 486 947 c 1
 540 866 l 1
 508 827 481 811 446 811 c 0xec
 431 811 413 815 387 824 c 0
 359 834 349 836 333 836 c 0xdc
 308 836 301 833 263 811 c 1xec
EndSplineSet
Ligature: 0 0 'liga' N tildecomb
EndChar
StartChar: Odieresis
Encoding: 286 214 180
Width: 840
Flags: W
HStem: -13 132<397 431> 620 132<397 431> 805 133<244 377 454 587>
VStem: 30 138<369 388> 244 133<805 938> 454 133<805 938> 662 138<354 388>
Fore
420 752 m 0
 631 752 800 581 800 370 c 0
 800 154 634 -13 419 -13 c 0
 202 -13 30 156 30 369 c 0
 30 585 200 752 420 752 c 0
418 620 m 0
 276 620 168 512 168 369 c 0
 168 229 278 119 418 119 c 0
 558 119 662 226 662 368 c 0
 662 510 555 620 418 620 c 0
244 805 m 1
 244 938 l 1
 377 938 l 1
 377 805 l 1
 244 805 l 1
454 805 m 1
 454 938 l 1
 587 938 l 1
 587 805 l 1
 454 805 l 1
EndSplineSet
KernsSLIF: 89 -53 0 0 88 -36 0 0 87 -24 0 0 86 -42 0 0 84 -29 0 0 65 -40 0 0
Ligature: 0 0 'liga' O uni0308
EndChar
StartChar: Oacute
Encoding: 287 211 181
Width: 840
Flags: W
HStem: -13 132<397 431> 620 132<397 431>
VStem: 30 138<369 388> 662 138<354 388>
Fore
420 752 m 0
 631 752 800 581 800 370 c 0
 800 154 634 -13 419 -13 c 0
 202 -13 30 156 30 369 c 0
 30 585 200 752 420 752 c 0
418 620 m 0
 276 620 168 512 168 369 c 0
 168 229 278 119 418 119 c 0
 558 119 662 226 662 368 c 0
 662 510 555 620 418 620 c 0
327 788 m 1
 276 866 l 1
 500 1000 l 1
 554 908 l 1
 327 788 l 1
EndSplineSet
KernsSLIF: 89 -53 0 0 87 -24 0 0 86 -42 0 0 84 -29 0 0 65 -40 0 0
Ligature: 0 0 'liga' O acutecomb
EndChar
StartChar: Ograve
Encoding: 288 210 182
Width: 840
Flags: W
HStem: -13 132<397 431> 620 132<397 431>
VStem: 30 138<369 388> 662 138<354 388>
DStem: 276 912 333 1000 502 788 555 867
Fore
420 752 m 0
 631 752 800 581 800 370 c 0
 800 154 634 -13 419 -13 c 0
 202 -13 30 156 30 369 c 0
 30 585 200 752 420 752 c 0
418 620 m 0
 276 620 168 512 168 369 c 0
 168 229 278 119 418 119 c 0
 558 119 662 226 662 368 c 0
 662 510 555 620 418 620 c 0
276 912 m 1
 333 1000 l 1
 555 867 l 1
 502 788 l 1
 276 912 l 1
EndSplineSet
KernsSLIF: 89 -53 0 0 86 -42 0 0 84 -29 0 0
Ligature: 0 0 'liga' O gravecomb
EndChar
StartChar: Ocircumflex
Encoding: 289 212 183
Width: 840
Flags: W
HStem: -13 132<397 431> 620 132<397 431> 805 138<363 363 363 615>
VStem: 30 138<369 388> 662 138<354 388>
Fore
420 752 m 0
 631 752 800 581 800 370 c 0
 800 154 634 -13 419 -13 c 0
 202 -13 30 156 30 369 c 0
 30 585 200 752 420 752 c 0
418 620 m 0
 276 620 168 512 168 369 c 0
 168 229 278 119 418 119 c 0
 558 119 662 226 662 368 c 0
 662 510 555 620 418 620 c 0
216 805 m 1
 363 943 l 1
 470 943 l 1
 615 805 l 1
 470 805 l 1
 417 869 l 1
 363 805 l 1
 216 805 l 1
EndSplineSet
KernsSLIF: 89 -53 0 0 86 -42 0 0 84 -29 0 0
Ligature: 0 0 'liga' O uni0302
EndChar
StartChar: Otilde
Encoding: 290 213 184
Width: 840
Flags: W
HStem: -13 132<397 430> 620 132<397 430> 811 102<460 487> 836 102<353 374>
VStem: 30 138<369 388> 662 138<354 388>
Fore
420 752 m 0xcc
 631 752 800 581 800 370 c 0
 800 154 634 -13 419 -13 c 0
 202 -13 30 156 30 369 c 0
 30 585 200 752 420 752 c 0xcc
418 620 m 0
 276 620 168 512 168 369 c 0
 168 229 278 119 418 119 c 0
 558 119 662 226 662 368 c 0
 662 510 555 620 418 620 c 0
304 811 m 1xec
 250 891 l 1
 285 926 311 938 353 938 c 0xdc
 374 938 384 936 413 924 c 0
 433 916 447 913 460 913 c 0
 486 913 506 923 527 947 c 1
 581 866 l 1
 549 827 522 811 487 811 c 0xec
 472 811 454 815 428 824 c 0
 400 834 390 836 374 836 c 0xdc
 349 836 342 833 304 811 c 1xec
EndSplineSet
KernsSLIF: 89 -53 0 0 86 -42 0 0 84 -29 0 0
Ligature: 0 0 'liga' O tildecomb
EndChar
StartChar: Ohungarumlaut
Encoding: 291 336 185
Width: 840
Flags: W
HStem: -13 132<397 431> 620 132<397 431>
VStem: 30 138<369 388> 662 138<354 388>
Fore
420 752 m 0
 631 752 800 581 800 370 c 0
 800 154 634 -13 419 -13 c 0
 202 -13 30 156 30 369 c 0
 30 585 200 752 420 752 c 0
418 620 m 0
 276 620 168 512 168 369 c 0
 168 229 278 119 418 119 c 0
 558 119 662 226 662 368 c 0
 662 510 555 620 418 620 c 0
144 857 m 1
 354 1000 l 1
 416 920 l 1
 194 788 l 1
 144 857 l 1
427 857 m 1
 638 1000 l 1
 699 920 l 1
 478 788 l 1
 427 857 l 1
EndSplineSet
Ligature: 0 0 'liga' O uni030B
EndChar
StartChar: Racute
Encoding: 292 340 186
Width: 580
Flags: W
HStem: 0 21G<68 205 399 568> 608 131<68 293>
VStem: 68 137<0 283 0 608> 423 138<479 513>
Fore
68 0 m 1
 68 739 l 1
 281 739 l 2
 382 739 435 725 483 684 c 0
 534 641 561 577 561 502 c 0
 561 429 535 370 485 327 c 0
 453 300 425 287 368 273 c 1
 568 0 l 1
 399 0 l 1
 205 283 l 1
 205 0 l 1
 68 0 l 1
205 386 m 1
 272 386 l 2
 378 386 423 420 423 498 c 0
 423 534 411 563 387 582 c 0
 365 601 330 608 266 608 c 2
 205 608 l 1
 205 386 l 1
205 788 m 1
 154 866 l 1
 378 1000 l 1
 432 908 l 1
 205 788 l 1
EndSplineSet
LCarets: 0 65535 '    ' 1 0 
Ligature: 0 0 'liga' R acutecomb
EndChar
StartChar: Rcaron
Encoding: 293 344 187
Width: 580
Flags: W
HStem: 0 21G<68 205 399 568> 608 131<68 297> 805 138<94 348>
VStem: 68 137<0 283 0 608> 423 138<479 513>
Fore
68 0 m 1
 68 739 l 1
 281 739 l 2
 382 739 435 725 483 684 c 0
 534 641 561 577 561 502 c 0
 561 429 535 370 485 327 c 0
 453 300 425 287 368 273 c 1
 568 0 l 1
 399 0 l 1
 205 283 l 1
 205 0 l 1
 68 0 l 1
205 386 m 1
 272 386 l 2
 378 386 423 420 423 498 c 0
 423 534 411 563 387 582 c 0
 365 601 330 608 266 608 c 2
 205 608 l 1
 205 386 l 1
94 943 m 1
 241 943 l 1
 295 879 l 1
 348 943 l 1
 493 943 l 1
 348 805 l 1
 241 805 l 1
 94 943 l 1
EndSplineSet
Ligature: 0 0 'liga' R uni030C
EndChar
StartChar: Sacute
Encoding: 294 346 188
Width: 520
Flags: W
HStem: -13 132<238.492 271> 620 132<241.327 260>
VStem: 41 138<540 547> 357 136<207 224>
Fore
14 211 m 1
 157 211 l 1
 163 149 196 119 257 119 c 0
 316 119 357 156 357 209 c 0
 357 240 345 266 323 284 c 0
 300 301 294 304 195 341 c 0
 96 378 41 449 41 542 c 0
 41 659 137 752 256 752 c 0
 325 752 389 723 429 673 c 0
 459 636 472 598 475 542 c 1
 333 542 l 1
 329 592 301 620 255 620 c 0
 210 620 179 589 179 545 c 0
 179 518 193 495 220 478 c 0
 230 472 232 471 302 445 c 0
 374 418 398 405 427 378 c 0
 470 338 493 285 493 224 c 0
 493 90 390 -13 257 -13 c 0
 179 -13 106 20 62 77 c 0
 32 116 19 153 14 211 c 1
175 788 m 1
 124 866 l 1
 348 1000 l 1
 402 908 l 1
 175 788 l 1
EndSplineSet
Ligature: 0 0 'liga' S acutecomb
EndChar
StartChar: Scaron
Encoding: 295 352 189
Width: 520
Flags: W
HStem: -13 132<238.492 271> 620 132<241.327 260> 805 138<57 311>
VStem: 41 138<540 547> 357 136<207 224>
Fore
14 211 m 1
 157 211 l 1
 163 149 196 119 257 119 c 0
 316 119 357 156 357 209 c 0
 357 240 345 266 323 284 c 0
 300 301 294 304 195 341 c 0
 96 378 41 449 41 542 c 0
 41 659 137 752 256 752 c 0
 325 752 389 723 429 673 c 0
 459 636 472 598 475 542 c 1
 333 542 l 1
 329 592 301 620 255 620 c 0
 210 620 179 589 179 545 c 0
 179 518 193 495 220 478 c 0
 230 472 232 471 302 445 c 0
 374 418 398 405 427 378 c 0
 470 338 493 285 493 224 c 0
 493 90 390 -13 257 -13 c 0
 179 -13 106 20 62 77 c 0
 32 116 19 153 14 211 c 1
57 943 m 1
 204 943 l 1
 258 879 l 1
 311 943 l 1
 456 943 l 1
 311 805 l 1
 204 805 l 1
 57 943 l 1
EndSplineSet
Ligature: 0 0 'liga' S uni030C
EndChar
StartChar: Scedilla
Encoding: 296 350 190
Width: 520
Flags: W
HStem: -251 55<254 271> -106 55<258 271> -13 132<256 271> 620 132<241.327 269>
VStem: 41 138<532 550> 302 58<-156 -148> 357 136<207 225>
Fore
256 -13 m 1xfa
 240 -58 l 1
 253 -53 260 -51 269 -51 c 0
 318 -51 360 -97 360 -152 c 0
 360 -211 321 -251 264 -251 c 0
 213 -251 172 -216 164 -166 c 1
 225 -166 l 1
 234 -186 246 -196 263 -196 c 0
 284 -196 302 -175 302 -150 c 0xfc
 302 -126 285 -106 263 -106 c 0
 249 -106 239 -113 225 -133 c 1
 173 -107 l 1
 206 -8 l 1
 94 13 20 98 14 211 c 1
 157 211 l 1
 163 149 196 119 257 119 c 0
 316 119 357 156 357 209 c 0xfa
 357 240 345 266 323 284 c 0
 300 301 294 304 195 341 c 0
 96 378 41 449 41 542 c 0
 41 659 137 752 256 752 c 0
 325 752 389 723 429 673 c 0
 459 636 472 598 475 542 c 1
 333 542 l 1
 329 592 301 620 255 620 c 0
 210 620 179 589 179 545 c 0
 179 518 193 495 220 478 c 0
 230 471 232 471 302 445 c 0xfc
 374 417 398 405 427 378 c 0
 470 338 493 285 493 223 c 0
 493 89 392 -12 256 -13 c 1xfa
EndSplineSet
Ligature: 0 0 'liga' S uni0327
EndChar
StartChar: Tcaron
Encoding: 297 356 191
Width: 420
Flags: W
HStem: 0 21G<144 281> 608 131<7 144 7 418> 805 138<14 268>
VStem: 144 137<0 608>
Fore
144 0 m 1
 144 608 l 1
 7 608 l 1
 7 739 l 1
 418 739 l 1
 418 608 l 1
 281 608 l 1
 281 0 l 1
 144 0 l 1
14 943 m 1
 161 943 l 1
 215 879 l 1
 268 943 l 1
 413 943 l 1
 268 805 l 1
 161 805 l 1
 14 943 l 1
EndSplineSet
Ligature: 0 0 'liga' T uni030C
EndChar
StartChar: Udieresis
Encoding: 298 220 192
Width: 640
Flags: W
HStem: -13 132<307 325> 719 20G<68 205 430 567> 805 133<146 279 356 489>
VStem: 68 137<271 739> 146 133<805 938> 356 133<805 938> 430 137<271 739>
Fore
68 739 m 1xf2
 205 739 l 1
 205 271 l 2
 205 216 209 193 223 169 c 0
 242 138 278 119 318 119 c 0
 357 119 393 138 412 169 c 0
 426 193 430 216 430 271 c 2
 430 739 l 1
 567 739 l 1
 567 271 l 2
 567 185 553 130 517 82 c 0
 473 23 397 -13 317 -13 c 0
 231 -13 151 29 108 97 c 0
 80 142 68 192 68 271 c 2
 68 739 l 1xf2
146 805 m 1xe8
 146 938 l 1
 279 938 l 1
 279 805 l 1
 146 805 l 1xe8
356 805 m 1xe4
 356 938 l 1
 489 938 l 1
 489 805 l 1
 356 805 l 1xe4
EndSplineSet
KernsSLIF: 114 8 0 0 46 -8 0 0 112 8 0 0 110 8 0 0 109 8 0 0 44 -11 0 0 98 8 0 0 65 -34 0 0
Ligature: 0 0 'liga' U uni0308
EndChar
StartChar: Uacute
Encoding: 299 218 193
Width: 640
Flags: W
HStem: -13 132<307 325> 719 20G<68 205 430 567>
VStem: 68 137<271 739> 430 137<271 739>
Fore
68 739 m 1
 205 739 l 1
 205 271 l 2
 205 216 209 193 223 169 c 0
 242 138 278 119 318 119 c 0
 357 119 393 138 412 169 c 0
 426 193 430 216 430 271 c 2
 430 739 l 1
 567 739 l 1
 567 271 l 2
 567 185 553 130 517 82 c 0
 473 23 397 -13 317 -13 c 0
 231 -13 151 29 108 97 c 0
 80 142 68 192 68 271 c 2
 68 739 l 1
270 788 m 1
 219 866 l 1
 443 1000 l 1
 497 908 l 1
 270 788 l 1
EndSplineSet
KernsSLIF: 114 8 0 0 46 -8 0 0 112 8 0 0 110 8 0 0 109 8 0 0 44 -11 0 0 65 -34 0 0
Ligature: 0 0 'liga' U acutecomb
EndChar
StartChar: Ugrave
Encoding: 300 217 194
Width: 640
Flags: W
HStem: -13 132<307 325> 719 20G<68 205 430 567>
VStem: 68 137<271 739> 430 137<271 739>
DStem: 138 912 195 1000 364 788 417 867
Fore
68 739 m 1
 205 739 l 1
 205 271 l 2
 205 216 209 193 223 169 c 0
 242 138 278 119 318 119 c 0
 357 119 393 138 412 169 c 0
 426 193 430 216 430 271 c 2
 430 739 l 1
 567 739 l 1
 567 271 l 2
 567 185 553 130 517 82 c 0
 473 23 397 -13 317 -13 c 0
 231 -13 151 29 108 97 c 0
 80 142 68 192 68 271 c 2
 68 739 l 1
138 912 m 1
 195 1000 l 1
 417 867 l 1
 364 788 l 1
 138 912 l 1
EndSplineSet
KernsSLIF: 65 -34 0 0
Ligature: 0 0 'liga' U gravecomb
EndChar
StartChar: Ucircumflex
Encoding: 301 219 195
Width: 640
Flags: W
HStem: -13 132<307 325> 719 20G<68 205 430 567> 805 138<265 265 265 517>
VStem: 68 137<271 739> 430 137<271 739>
Fore
68 739 m 1
 205 739 l 1
 205 271 l 2
 205 216 209 193 223 169 c 0
 242 138 278 119 318 119 c 0
 357 119 393 138 412 169 c 0
 426 193 430 216 430 271 c 2
 430 739 l 1
 567 739 l 1
 567 271 l 2
 567 185 553 130 517 82 c 0
 473 23 397 -13 317 -13 c 0
 231 -13 151 29 108 97 c 0
 80 142 68 192 68 271 c 2
 68 739 l 1
118 805 m 1
 265 943 l 1
 372 943 l 1
 517 805 l 1
 372 805 l 1
 319 869 l 1
 265 805 l 1
 118 805 l 1
EndSplineSet
KernsSLIF: 65 -34 0 0
Ligature: 0 0 'liga' U uni0302
EndChar
StartChar: Uring
Encoding: 302 366 196
Width: 640
Flags: W
HStem: -13 132<307 325> 719 20G<68 205 430 567> 785 67<317 325> 924 67<315 325>
VStem: 68 137<271 739> 214 67<888 890> 353 67<888 890> 430 137<271 739>
Fore
68 739 m 1
 205 739 l 1
 205 271 l 2
 205 216 209 193 223 169 c 0
 242 138 278 119 318 119 c 0
 357 119 393 138 412 169 c 0
 426 193 430 216 430 271 c 2
 430 739 l 1
 567 739 l 1
 567 271 l 2
 567 185 553 130 517 82 c 0
 473 23 397 -13 317 -13 c 0
 231 -13 151 29 108 97 c 0
 80 142 68 192 68 271 c 2
 68 739 l 1
318 991 m 0
 374 991 420 944 420 888 c 0
 420 831 373 785 317 785 c 0
 260 785 214 831 214 888 c 0
 214 945 260 991 318 991 c 0
317 924 m 0
 297 924 281 908 281 888 c 0
 281 868 297 852 317 852 c 0
 337 852 353 868 353 888 c 0
 353 908 337 924 317 924 c 0
EndSplineSet
Ligature: 0 0 'liga' U uni030A
EndChar
StartChar: Uhungarumlaut
Encoding: 303 368 197
Width: 640
Flags: W
HStem: -13 132<301.991 333> 719 20G<68 205 430 567>
VStem: 68 137<271 739> 430 137<271 739>
Fore
68 739 m 1
 205 739 l 1
 205 271 l 2
 205 216 209 193 223 169 c 0
 242 138 278 119 318 119 c 0
 357 119 393 138 412 169 c 0
 426 193 430 216 430 271 c 2
 430 739 l 1
 567 739 l 1
 567 271 l 2
 567 185 553 130 517 82 c 0
 473 23 397 -13 317 -13 c 0
 231 -13 151 29 108 97 c 0
 80 142 68 192 68 271 c 2
 68 739 l 1
44 857 m 1
 254 1000 l 1
 316 920 l 1
 94 788 l 1
 44 857 l 1
327 857 m 1
 538 1000 l 1
 599 920 l 1
 378 788 l 1
 327 857 l 1
EndSplineSet
Ligature: 0 0 'liga' U uni030B
EndChar
StartChar: Yacute
Encoding: 304 221 198
Width: 620
Flags: W
HStem: 0 21G<246 383> 719 20G<3 151 478 626>
VStem: 246 137<0 273>
Fore
246 0 m 1
 246 273 l 1
 3 739 l 1
 151 739 l 1
 315 399 l 1
 478 739 l 1
 626 739 l 1
 383 273 l 1
 383 0 l 1
 246 0 l 1
267 788 m 1
 216 866 l 1
 440 1000 l 1
 494 908 l 1
 267 788 l 1
EndSplineSet
Ligature: 0 0 'liga' Y acutecomb
EndChar
StartChar: Zacute
Encoding: 305 377 199
Width: 500
Flags: W
HStem: 0 131<183 480> 608 131<33 298>
DStem: 298 608 461 616 18 116 183 131
Fore
18 116 m 1
 298 608 l 1
 33 608 l 1
 33 739 l 1
 461 739 l 1
 461 616 l 1
 183 131 l 1
 480 131 l 1
 480 0 l 1
 18 0 l 1
 18 116 l 1
165 788 m 1
 114 866 l 1
 338 1000 l 1
 392 908 l 1
 165 788 l 1
EndSplineSet
Ligature: 0 0 'liga' Z acutecomb
EndChar
StartChar: Zcaron
Encoding: 306 381 200
Width: 500
Flags: W
HStem: 0 131<183 480> 608 131<33 298> 805 138<50 304>
DStem: 298 608 461 616 18 116 183 131
Fore
18 116 m 1
 298 608 l 1
 33 608 l 1
 33 739 l 1
 461 739 l 1
 461 616 l 1
 183 131 l 1
 480 131 l 1
 480 0 l 1
 18 0 l 1
 18 116 l 1
50 943 m 1
 197 943 l 1
 251 879 l 1
 304 943 l 1
 449 943 l 1
 304 805 l 1
 197 805 l 1
 50 943 l 1
EndSplineSet
Ligature: 0 0 'liga' Z uni030C
EndChar
StartChar: Zdotaccent
Encoding: 307 379 201
Width: 500
Flags: W
HStem: 0 131<183 480> 608 131<33 298> 805 133<184 317>
VStem: 184 133<805 938>
DStem: 298 608 461 616 18 116 183 131
Fore
18 116 m 1
 298 608 l 1
 33 608 l 1
 33 739 l 1
 461 739 l 1
 461 616 l 1
 183 131 l 1
 480 131 l 1
 480 0 l 1
 18 0 l 1
 18 116 l 1
184 805 m 1
 184 938 l 1
 317 938 l 1
 317 805 l 1
 184 805 l 1
EndSplineSet
Ligature: 0 0 'liga' Z uni0307
EndChar
StartChar: Amacron
Encoding: 308 256 202
Width: 740
Flags: W
HStem: 0 21G<7 158 582 733> 191 131<290 503> 719 20G<315 423> 823 100<234 511>
DStem: 315 739 240 191 7 0 158 0 503 191 423 739 582 0 733 0
Fore
7 0 m 1
 315 739 l 1
 423 739 l 1
 733 0 l 1
 582 0 l 1
 503 191 l 1
 240 191 l 1
 158 0 l 1
 7 0 l 1
290 322 m 1
 448 322 l 1
 369 546 l 1
 290 322 l 1
234 823 m 1
 234 923 l 1
 511 923 l 1
 511 823 l 1
 234 823 l 1
EndSplineSet
Ligature: 0 0 'liga' A uni0304
EndChar
StartChar: Tcommaaccent
Encoding: 309 354 203
Width: 420
Flags: W
HStem: 0 21G<144 281> 608 131<7 144 7 418>
VStem: 144 137<0 608>
DStem: 164 -53 268 -53 106 -245 210 -245
Fore
144 0 m 1
 144 608 l 1
 7 608 l 1
 7 739 l 1
 418 739 l 1
 418 608 l 1
 281 608 l 1
 281 0 l 1
 144 0 l 1
106 -245 m 1
 164 -53 l 1
 268 -53 l 1
 210 -245 l 1
 106 -245 l 1
EndSplineSet
Ligature: 0 0 'liga' T uni0327
EndChar
StartChar: Ydieresis
Encoding: 310 376 204
Width: 620
Flags: W
HStem: 0 21G<246 383> 719 20G<3 151 478 626> 805 133<143 276 353 486>
VStem: 143 133<805 938> 246 137<0 273> 353 133<805 938>
Fore
246 0 m 1xe8
 246 273 l 1
 3 739 l 1
 151 739 l 1
 315 399 l 1
 478 739 l 1
 626 739 l 1
 383 273 l 1
 383 0 l 1
 246 0 l 1xe8
143 805 m 1xf0
 143 938 l 1
 276 938 l 1
 276 805 l 1
 143 805 l 1xf0
353 805 m 1xe4
 353 938 l 1
 486 938 l 1
 486 805 l 1
 353 805 l 1xe4
EndSplineSet
Ligature: 0 0 'liga' Y uni0308
EndChar
StartChar: Emacron
Encoding: 311 274 205
Width: 520
Flags: W
HStem: 0 131<205 465> 303 131<205 454> 608 131<68 465> 823 100<124 401>
VStem: 68 137<0 303 0 608>
Fore
68 0 m 1
 68 739 l 1
 465 739 l 1
 465 608 l 1
 205 608 l 1
 205 434 l 1
 454 434 l 1
 454 303 l 1
 205 303 l 1
 205 131 l 1
 465 131 l 1
 465 0 l 1
 68 0 l 1
124 823 m 1
 124 923 l 1
 401 923 l 1
 401 823 l 1
 124 823 l 1
EndSplineSet
Ligature: 0 0 'liga' E uni0304
EndChar
StartChar: Imacron
Encoding: 312 298 206
Width: 280
Flags: W
HStem: 0 21G<68 205> 719 20G<68 205> 823 100<4 281>
VStem: 68 137<0 739>
Fore
68 0 m 1
 68 739 l 1
 205 739 l 1
 205 0 l 1
 68 0 l 1
4 823 m 1
 4 923 l 1
 281 923 l 1
 281 823 l 1
 4 823 l 1
EndSplineSet
Ligature: 0 0 'liga' I uni0304
EndChar
StartChar: Iogonek
Encoding: 313 302 207
Width: 280
Flags: W
HStem: -204 81<165 190> -20 20G<68 135> 719 20G<68 205>
VStem: 68 137<-1 739>
Fore
205 739 m 1
 205 0 l 1
 154 -37 140 -54 140 -81 c 0
 140 -105 161 -123 190 -123 c 0
 202 -123 211 -121 231 -113 c 1
 231 -190 l 1
 209 -199 187 -204 165 -204 c 0
 96 -204 49 -164 49 -105 c 0
 49 -62 77 -27 135 0 c 1
 68 0 l 1
 68 739 l 1
 205 739 l 1
EndSplineSet
Ligature: 0 0 'liga' I uni0328
EndChar
StartChar: Kcommaaccent
Encoding: 314 310 208
Width: 620
Flags: W
HStem: 0 21G<68 205 434 599> 719 20G<68 205 434 599>
VStem: 68 137<0 325 0 739>
DStem: 264 -53 368 -53 206 -245 310 -245
Fore
68 0 m 1
 68 739 l 1
 205 739 l 1
 205 420 l 1
 434 739 l 1
 599 739 l 1
 321 376 l 1
 599 0 l 1
 434 0 l 1
 205 325 l 1
 205 0 l 1
 68 0 l 1
206 -245 m 1
 264 -53 l 1
 368 -53 l 1
 310 -245 l 1
 206 -245 l 1
EndSplineSet
Ligature: 0 0 'liga' K uni0327
EndChar
StartChar: Lcommaaccent
Encoding: 315 315 209
Width: 440
Flags: W
HStem: 0 131<204 431> 719 20G<68 205>
VStem: 68 137<0 739>
DStem: 174 -53 278 -53 116 -245 220 -245
Fore
68 0 m 1
 68 739 l 1
 205 739 l 1
 205 131 l 1
 431 131 l 1
 431 0 l 1
 68 0 l 1
116 -245 m 1
 174 -53 l 1
 278 -53 l 1
 220 -245 l 1
 116 -245 l 1
EndSplineSet
Ligature: 0 0 'liga' L uni0327
EndChar
StartChar: Ncommaaccent
Encoding: 316 325 210
Width: 740
Flags: W
HStem: 0 21G<68 205 514 667> 719 20G<68 224 530 667>
VStem: 68 137<0 537> 530 137<201 739>
DStem: 205 537 224 739 514 0 530 201 324 -53 428 -53 266 -245 370 -245
Fore
68 0 m 1
 68 739 l 1
 224 739 l 1
 530 201 l 1
 530 739 l 1
 667 739 l 1
 667 0 l 1
 514 0 l 1
 205 537 l 1
 205 0 l 1
 68 0 l 1
266 -245 m 1
 324 -53 l 1
 428 -53 l 1
 370 -245 l 1
 266 -245 l 1
EndSplineSet
Ligature: 0 0 'liga' N uni0327
EndChar
StartChar: Omacron
Encoding: 317 332 211
Width: 840
Flags: W
HStem: -13 132<397 431> 620 132<397 431> 823 100<284 561>
VStem: 30 138<369 388> 662 138<354 388>
Fore
420 752 m 0
 631 752 800 581 800 370 c 0
 800 154 634 -13 419 -13 c 0
 202 -13 30 156 30 369 c 0
 30 585 200 752 420 752 c 0
418 620 m 0
 276 620 168 512 168 369 c 0
 168 229 278 119 418 119 c 0
 558 119 662 226 662 368 c 0
 662 510 555 620 418 620 c 0
284 823 m 1
 284 923 l 1
 561 923 l 1
 561 823 l 1
 284 823 l 1
EndSplineSet
Ligature: 0 0 'liga' O uni0304
EndChar
StartChar: Rcommaaccent
Encoding: 318 342 212
Width: 580
Flags: W
HStem: 0 21G<68 205 399 568> 608 131<68 292>
VStem: 68 137<0 283 0 608> 423 138<490 508>
DStem: 244 -53 348 -53 186 -245 290 -245
Fore
68 0 m 1
 68 739 l 1
 281 739 l 2
 382 739 435 725 483 684 c 0
 534 641 561 577 561 502 c 0
 561 429 535 370 485 327 c 0
 453 300 425 287 368 273 c 1
 568 0 l 1
 399 0 l 1
 205 283 l 1
 205 0 l 1
 68 0 l 1
205 386 m 1
 272 386 l 2
 378 386 423 420 423 498 c 0
 423 534 411 563 387 582 c 0
 365 601 330 608 266 608 c 2
 205 608 l 1
 205 386 l 1
186 -245 m 1
 244 -53 l 1
 348 -53 l 1
 290 -245 l 1
 186 -245 l 1
EndSplineSet
Ligature: 0 0 'liga' R uni0327
EndChar
StartChar: Gcommaaccent
Encoding: 319 290 213
Width: 840
Flags: W
HStem: -13 132<413 447> 249 128<335 641> 620 132<397 435>
VStem: 30 138<346 379>
DStem: 374 -53 478 -53 316 -245 420 -245
Fore
335 249 m 1
 335 377 l 1
 818 377 l 1
 818 359 l 2
 818 264 780 172 712 101 c 0
 639 26 543 -13 432 -13 c 0
 205 -13 30 155 30 371 c 0
 30 583 203 752 419 752 c 0
 580 752 732 655 780 522 c 1
 619 522 l 1
 573 586 502 620 416 620 c 0
 345 620 280 594 237 547 c 0
 195 503 168 433 168 369 c 0
 168 228 279 119 424 119 c 0
 521 119 601 167 641 249 c 1
 335 249 l 1
316 -245 m 1
 374 -53 l 1
 478 -53 l 1
 420 -245 l 1
 316 -245 l 1
EndSplineSet
Ligature: 0 0 'liga' G uni0327
EndChar
StartChar: Umacron
Encoding: 320 362 214
Width: 640
Flags: W
HStem: -13 132<307 325> 719 20G<68 205 430 567> 823 100<184 461>
VStem: 68 137<271 739> 430 137<271 739>
Fore
68 739 m 1
 205 739 l 1
 205 271 l 2
 205 216 209 193 223 169 c 0
 242 138 278 119 318 119 c 0
 357 119 393 138 412 169 c 0
 426 193 430 216 430 271 c 2
 430 739 l 1
 567 739 l 1
 567 271 l 2
 567 185 553 130 517 82 c 0
 473 23 397 -13 317 -13 c 0
 231 -13 151 29 108 97 c 0
 80 142 68 192 68 271 c 2
 68 739 l 1
184 823 m 1
 184 923 l 1
 461 923 l 1
 461 823 l 1
 184 823 l 1
EndSplineSet
Ligature: 0 0 'liga' U uni0304
EndChar
StartChar: Uogonek
Encoding: 321 370 215
Width: 640
Flags: W
HStem: -204 81<407 432> -13 132<318 325> 719 20G<68 205 430 567>
VStem: 68 137<271 739> 291 91<-105 -80> 430 137<271 739>
Fore
205 739 m 1
 205 271 l 2
 205 216 209 193 223 169 c 0
 242 138 278 119 318 119 c 0
 357 119 393 138 412 169 c 0
 426 193 430 216 430 271 c 2
 430 739 l 1
 567 739 l 1
 567 271 l 2
 567 181 555 137 516 83 c 0
 485 41 477 32 410 -28 c 0
 391 -46 382 -63 382 -80 c 0
 382 -105 403 -123 432 -123 c 0
 444 -123 453 -121 473 -113 c 1
 473 -190 l 1
 451 -199 428 -204 407 -204 c 0
 338 -204 291 -164 291 -105 c 0
 291 -68 311 -38 357 -10 c 1
 340 -12 331 -13 318 -13 c 0
 231 -13 151 29 108 97 c 0
 80 142 68 192 68 271 c 2
 68 739 l 1
 205 739 l 1
EndSplineSet
Ligature: 0 0 'liga' U uni0328
EndChar
StartChar: adieresis
Encoding: 322 228 216
Width: 660
Flags: W
HStem: -13 122<307 335> 445 122<306 335> 630 133<174 307 384 517>
VStem: 30 134<258 292> 174 133<630 763> 384 133<630 763> 489 126<258 554>
Fore
615 554 m 1xfa
 615 0 l 1
 493 0 l 1
 493 72 l 1
 440 12 387 -13 309 -13 c 0
 147 -13 30 108 30 275 c 0
 30 444 148 567 312 567 c 0
 392 567 447 541 493 480 c 1
 493 554 l 1
 615 554 l 1xfa
326 445 m 0
 231 445 164 373 164 272 c 0
 164 175 231 109 328 109 c 0
 379 109 422 127 449 159 c 0
 473 187 489 233 489 273 c 0
 489 374 421 445 326 445 c 0
174 630 m 1
 174 763 l 1
 307 763 l 1
 307 630 l 1
 174 630 l 1
384 630 m 1xfc
 384 763 l 1
 517 763 l 1
 517 630 l 1
 384 630 l 1xfc
EndSplineSet
KernsSLIF: 121 -3 0 0 119 -4 0 0
Ligature: 0 0 'liga' a uni0308
EndChar
StartChar: aacute
Encoding: 323 225 217
Width: 660
Flags: W
HStem: -13 122<307 335> 445 122<307 335>
VStem: 30 134<258 292> 489 126<258 554>
Fore
615 554 m 1
 615 0 l 1
 493 0 l 1
 493 72 l 1
 440 12 387 -13 309 -13 c 0
 147 -13 30 108 30 275 c 0
 30 444 148 567 312 567 c 0
 392 567 447 541 493 480 c 1
 493 554 l 1
 615 554 l 1
326 445 m 0
 231 445 164 373 164 272 c 0
 164 175 231 109 328 109 c 0
 379 109 422 127 449 159 c 0
 473 187 489 233 489 273 c 0
 489 374 421 445 326 445 c 0
295 613 m 1
 244 691 l 1
 468 825 l 1
 522 733 l 1
 295 613 l 1
EndSplineSet
KernsSLIF: 121 -3 0 0 119 -4 0 0
Ligature: 0 0 'liga' a acutecomb
EndChar
StartChar: agrave
Encoding: 324 224 218
Width: 660
Flags: W
HStem: -13 122<307 335> 445 122<307 335>
VStem: 30 134<258 292> 489 126<258 554>
DStem: 170 737 227 825 396 613 449 692
Fore
615 554 m 1
 615 0 l 1
 493 0 l 1
 493 72 l 1
 440 12 387 -13 309 -13 c 0
 147 -13 30 108 30 275 c 0
 30 444 148 567 312 567 c 0
 392 567 447 541 493 480 c 1
 493 554 l 1
 615 554 l 1
326 445 m 0
 231 445 164 373 164 272 c 0
 164 175 231 109 328 109 c 0
 379 109 422 127 449 159 c 0
 473 187 489 233 489 273 c 0
 489 374 421 445 326 445 c 0
170 737 m 1
 227 825 l 1
 449 692 l 1
 396 613 l 1
 170 737 l 1
EndSplineSet
KernsSLIF: 121 -3 0 0 119 -4 0 0
Ligature: 0 0 'liga' a gravecomb
EndChar
StartChar: acircumflex
Encoding: 325 226 219
Width: 660
Flags: W
HStem: -13 122<307 335> 445 122<307 335> 630 138<293 293 293 545>
VStem: 30 134<258 292> 489 126<258 554>
Fore
615 554 m 1
 615 0 l 1
 493 0 l 1
 493 72 l 1
 440 12 387 -13 309 -13 c 0
 147 -13 30 108 30 275 c 0
 30 444 148 567 312 567 c 0
 392 567 447 541 493 480 c 1
 493 554 l 1
 615 554 l 1
326 445 m 0
 231 445 164 373 164 272 c 0
 164 175 231 109 328 109 c 0
 379 109 422 127 449 159 c 0
 473 187 489 233 489 273 c 0
 489 374 421 445 326 445 c 0
146 630 m 1
 293 768 l 1
 400 768 l 1
 545 630 l 1
 400 630 l 1
 347 694 l 1
 293 630 l 1
 146 630 l 1
EndSplineSet
Ligature: 0 0 'liga' a uni0302
EndChar
StartChar: abreve
Encoding: 326 259 220
Width: 660
Flags: W
HStem: -13 122<307 335> 445 122<307 335> 630 96<330 335>
VStem: 30 134<258 292> 489 126<258 554>
Fore
615 554 m 1
 615 0 l 1
 493 0 l 1
 493 72 l 1
 440 12 387 -13 309 -13 c 0
 147 -13 30 108 30 275 c 0
 30 444 148 567 312 567 c 0
 392 567 447 541 493 480 c 1
 493 554 l 1
 615 554 l 1
326 445 m 0
 231 445 164 373 164 272 c 0
 164 175 231 109 328 109 c 0
 379 109 422 127 449 159 c 0
 473 187 489 233 489 273 c 0
 489 374 421 445 326 445 c 0
164 769 m 1
 262 769 l 1
 274 740 297 726 330 726 c 0
 365 726 387 741 392 769 c 1
 494 769 l 1
 491 686 425 630 330 630 c 0
 231 630 170 681 164 769 c 1
EndSplineSet
Ligature: 0 0 'liga' a uni0306
EndChar
StartChar: atilde
Encoding: 327 227 221
Width: 660
Flags: W
HStem: -13 122<307 335> 445 122<307 335> 636 102<390 417> 661 102<283 304>
VStem: 30 134<258 292> 489 126<258 554>
Fore
615 554 m 1xcc
 615 0 l 1
 493 0 l 1
 493 72 l 1
 440 12 387 -13 309 -13 c 0
 147 -13 30 108 30 275 c 0
 30 444 148 567 312 567 c 0
 392 567 447 541 493 480 c 1
 493 554 l 1
 615 554 l 1xcc
326 445 m 0
 231 445 164 373 164 272 c 0
 164 175 231 109 328 109 c 0
 379 109 422 127 449 159 c 0
 473 187 489 233 489 273 c 0
 489 374 421 445 326 445 c 0
234 636 m 1xec
 180 716 l 1
 215 751 241 763 283 763 c 0xdc
 304 763 314 761 343 749 c 0
 363 741 377 738 390 738 c 0
 416 738 436 748 457 772 c 1
 511 691 l 1
 479 652 452 636 417 636 c 0xec
 402 636 384 640 358 649 c 0
 330 659 320 661 304 661 c 0xdc
 279 661 272 658 234 636 c 1xec
EndSplineSet
Ligature: 0 0 'liga' a tildecomb
EndChar
StartChar: aring
Encoding: 328 229 222
Width: 660
Flags: W
HStem: -13 122<307 335> 445 122<307 335> 610 67<346 350> 749 67<344 351>
VStem: 30 134<258 292> 243 67<713 715> 382 67<713 715> 489 126<258 554>
Fore
615 554 m 1
 615 0 l 1
 493 0 l 1
 493 72 l 1
 440 12 387 -13 309 -13 c 0
 147 -13 30 108 30 275 c 0
 30 444 148 567 312 567 c 0
 392 567 447 541 493 480 c 1
 493 554 l 1
 615 554 l 1
326 445 m 0
 231 445 164 373 164 272 c 0
 164 175 231 109 328 109 c 0
 379 109 422 127 449 159 c 0
 473 187 489 233 489 273 c 0
 489 374 421 445 326 445 c 0
347 816 m 0
 403 816 449 769 449 713 c 0
 449 656 402 610 346 610 c 0
 289 610 243 656 243 713 c 0
 243 770 289 816 347 816 c 0
346 749 m 0
 326 749 310 733 310 713 c 0
 310 693 326 677 346 677 c 0
 366 677 382 693 382 713 c 0
 382 733 366 749 346 749 c 0
EndSplineSet
KernsSLIF: 121 -3 0 0 119 -4 0 0
Ligature: 0 0 'liga' a uni030A
EndChar
StartChar: aogonek
Encoding: 329 261 223
Width: 660
Flags: W
HStem: -204 81<575 600> -13 122<307 335> 445 122<307 335>
VStem: 30 134<259 293> 459 91<-105 -81> 489 126<259 554>
Fore
615 554 m 1xf4
 615 0 l 1xf4
 564 -37 550 -54 550 -81 c 0
 550 -105 571 -123 600 -123 c 0
 612 -123 621 -121 641 -113 c 1
 641 -190 l 1
 619 -199 597 -204 575 -204 c 0
 506 -204 459 -164 459 -105 c 0xf8
 459 -62 487 -27 545 0 c 1
 493 0 l 1
 493 72 l 1
 440 12 387 -13 309 -13 c 0
 147 -13 30 108 30 275 c 0
 30 444 148 567 312 567 c 0
 392 567 447 541 493 480 c 1
 493 554 l 1
 615 554 l 1xf4
326 445 m 0
 231 445 164 373 164 272 c 0
 164 175 231 109 328 109 c 0
 379 109 422 127 449 159 c 0
 473 187 489 233 489 273 c 0
 489 374 421 445 326 445 c 0
EndSplineSet
Ligature: 0 0 'liga' a uni0328
EndChar
StartChar: cacute
Encoding: 330 263 224
Width: 640
Flags: W
HStem: -13 122<317 335> 445 122<302.851 335>
VStem: 30 134<258 292>
Fore
451 182 m 1
 601 182 l 1
 555 58 455 -13 326 -13 c 0
 162 -13 30 116 30 277 c 0
 30 440 158 567 322 567 c 0
 399 567 472 539 526 489 c 0
 564 454 582 425 601 369 c 1
 451 369 l 1
 424 420 382 445 322 445 c 0
 230 445 164 375 164 278 c 0
 164 181 233 109 325 109 c 0
 380 109 418 131 451 182 c 1
235 613 m 1
 184 691 l 1
 408 825 l 1
 462 733 l 1
 235 613 l 1
EndSplineSet
Ligature: 0 0 'liga' c acutecomb
EndChar
StartChar: ccaron
Encoding: 331 269 225
Width: 640
Flags: W
HStem: -13 122<317 335> 445 122<302.851 335> 630 138<124 378>
VStem: 30 134<258 292>
Fore
451 182 m 1
 601 182 l 1
 555 58 455 -13 326 -13 c 0
 162 -13 30 116 30 277 c 0
 30 440 158 567 322 567 c 0
 399 567 472 539 526 489 c 0
 564 454 582 425 601 369 c 1
 451 369 l 1
 424 420 382 445 322 445 c 0
 230 445 164 375 164 278 c 0
 164 181 233 109 325 109 c 0
 380 109 418 131 451 182 c 1
124 768 m 1
 271 768 l 1
 325 704 l 1
 378 768 l 1
 523 768 l 1
 378 630 l 1
 271 630 l 1
 124 768 l 1
EndSplineSet
Ligature: 0 0 'liga' c uni030C
EndChar
StartChar: ccedilla
Encoding: 332 231 226
Width: 640
Flags: W
HStem: -251 55<317 331> -109 58<319 331> -13 122<319 335> 445 122<302.851 335>
VStem: 30 134<260 294> 361 58<-156 -149>
DStem: 275 -9 319 -13 233 -107 300 -58
Fore
319 -13 m 1
 300 -58 l 1
 313 -53 320 -51 331 -51 c 0
 381 -51 419 -94 419 -151 c 0
 419 -211 381 -251 324 -251 c 0
 273 -251 232 -215 225 -166 c 1
 285 -166 l 1
 293 -186 305 -196 323 -196 c 0
 345 -196 361 -178 361 -153 c 0
 361 -128 345 -109 323 -109 c 0
 309 -109 298 -116 285 -133 c 1
 233 -107 l 1
 275 -9 l 1
 133 16 30 135 30 277 c 0
 30 440 158 567 322 567 c 0
 399 567 472 539 526 489 c 0
 564 454 582 425 601 369 c 1
 451 369 l 1
 424 420 382 445 322 445 c 0
 230 445 164 375 164 278 c 0
 164 181 233 109 325 109 c 0
 380 109 418 131 451 182 c 1
 601 182 l 1
 558 58 452 -15 319 -13 c 1
EndSplineSet
Ligature: 0 0 'liga' c uni0327
EndChar
StartChar: dcaron
Encoding: 333 271 227
Width: 754
Flags: W
HStem: -13 122<308 331> 452 122<307 330> 719 20G<480 613 690 794>
VStem: 30 134<274 292> 491 122<0 739>
DStem: 690 739 794 739 632 547 736 547
Fore
613 739 m 1
 613 0 l 1
 491 0 l 1
 491 72 l 1
 438 12 383 -13 308 -13 c 0
 151 -13 30 114 30 278 c 0
 30 444 152 574 307 574 c 0
 377 574 441 548 480 505 c 1
 480 739 l 1
 613 739 l 1
326 452 m 0
 235 452 164 378 164 284 c 0
 164 186 236 109 329 109 c 0
 419 109 490 184 490 280 c 0
 490 377 419 452 326 452 c 0
632 547 m 1
 690 739 l 1
 794 739 l 1
 736 547 l 1
 632 547 l 1
EndSplineSet
Ligature: 0 0 'liga' d uni030C
EndChar
StartChar: edieresis
Encoding: 334 235 228
Width: 640
Flags: W
HStem: -13 122<317 335> 218 117<170 603> 445 122<317 335> 630 133<155 288 365 498>
VStem: 155 133<630 763> 365 133<630 763>
Fore
603 218 m 1
 174 218 l 1
 190 151 248 109 327 109 c 0
 382 109 415 124 449 164 c 1
 594 164 l 1
 585 136 571 113 550 87 c 1
 492 20 421 -13 330 -13 c 0
 161 -13 30 113 30 275 c 0
 30 438 159 567 322 567 c 0
 487 567 608 441 608 269 c 0
 608 249 607 237 603 218 c 1
170 335 m 1
 477 335 l 1
 460 406 406 445 324 445 c 0
 245 445 191 406 170 335 c 1
155 630 m 1
 155 763 l 1
 288 763 l 1
 288 630 l 1
 155 630 l 1
365 630 m 1
 365 763 l 1
 498 763 l 1
 498 630 l 1
 365 630 l 1
EndSplineSet
Ligature: 0 0 'liga' e uni0308
EndChar
StartChar: eacute
Encoding: 335 233 229
Width: 640
Flags: W
HStem: -13 122<317 335> 218 117<170 603> 445 122<317 335>
Fore
603 218 m 1
 174 218 l 1
 190 151 248 109 327 109 c 0
 382 109 415 124 449 164 c 1
 594 164 l 1
 585 136 571 113 550 87 c 1
 492 20 421 -13 330 -13 c 0
 161 -13 30 113 30 275 c 0
 30 438 159 567 322 567 c 0
 487 567 608 441 608 269 c 0
 608 249 607 237 603 218 c 1
170 335 m 1
 477 335 l 1
 460 406 406 445 324 445 c 0
 245 445 191 406 170 335 c 1
278 613 m 1
 227 691 l 1
 451 825 l 1
 505 733 l 1
 278 613 l 1
EndSplineSet
KernsSLIF: 121 -31 0 0 119 -25 0 0 118 -27 0 0
Ligature: 0 0 'liga' e acutecomb
EndChar
StartChar: egrave
Encoding: 336 232 230
Width: 640
Flags: W
HStem: -13 122<317 335> 218 117<170 603> 445 122<317 335>
DStem: 143 737 200 825 369 613 422 692
Fore
603 218 m 1
 174 218 l 1
 190 151 248 109 327 109 c 0
 382 109 415 124 449 164 c 1
 594 164 l 1
 585 136 571 113 550 87 c 1
 492 20 421 -13 330 -13 c 0
 161 -13 30 113 30 275 c 0
 30 438 159 567 322 567 c 0
 487 567 608 441 608 269 c 0
 608 249 607 237 603 218 c 1
170 335 m 1
 477 335 l 1
 460 406 406 445 324 445 c 0
 245 445 191 406 170 335 c 1
143 737 m 1
 200 825 l 1
 422 692 l 1
 369 613 l 1
 143 737 l 1
EndSplineSet
Ligature: 0 0 'liga' e gravecomb
EndChar
StartChar: ecircumflex
Encoding: 337 234 231
Width: 640
Flags: W
HStem: -13 122<317 335> 218 117<170 603> 445 122<317 335> 630 138<273 273 273 525>
Fore
603 218 m 1
 174 218 l 1
 190 151 248 109 327 109 c 0
 382 109 415 124 449 164 c 1
 594 164 l 1
 585 136 571 113 550 87 c 1
 492 20 421 -13 330 -13 c 0
 161 -13 30 113 30 275 c 0
 30 438 159 567 322 567 c 0
 487 567 608 441 608 269 c 0
 608 249 607 237 603 218 c 1
170 335 m 1
 477 335 l 1
 460 406 406 445 324 445 c 0
 245 445 191 406 170 335 c 1
126 630 m 1
 273 768 l 1
 380 768 l 1
 525 630 l 1
 380 630 l 1
 327 694 l 1
 273 630 l 1
 126 630 l 1
EndSplineSet
KernsSLIF: 121 -31 0 0 119 -25 0 0 118 -27 0 0
Ligature: 0 0 'liga' e uni0302
EndChar
StartChar: ecaron
Encoding: 338 283 232
Width: 640
Flags: W
HStem: -13 122<317 335> 218 117<170 603> 445 122<317 335> 630 138<124 378>
Fore
603 218 m 1
 174 218 l 1
 190 151 248 109 327 109 c 0
 382 109 415 124 449 164 c 1
 594 164 l 1
 585 136 571 113 550 87 c 1
 492 20 421 -13 330 -13 c 0
 161 -13 30 113 30 275 c 0
 30 438 159 567 322 567 c 0
 487 567 608 441 608 269 c 0
 608 249 607 237 603 218 c 1
170 335 m 1
 477 335 l 1
 460 406 406 445 324 445 c 0
 245 445 191 406 170 335 c 1
124 768 m 1
 271 768 l 1
 325 704 l 1
 378 768 l 1
 523 768 l 1
 378 630 l 1
 271 630 l 1
 124 768 l 1
EndSplineSet
Ligature: 0 0 'liga' e uni030C
EndChar
StartChar: edotaccent
Encoding: 339 279 233
Width: 640
Flags: W
HStem: -13 122<317 335> 218 117<170 603> 445 122<317 335> 630 133<254 387>
VStem: 254 133<630 763>
Fore
603 218 m 1
 174 218 l 1
 190 151 248 109 327 109 c 0
 382 109 415 124 449 164 c 1
 594 164 l 1
 585 136 571 113 550 87 c 1
 492 20 421 -13 330 -13 c 0
 161 -13 30 113 30 275 c 0
 30 438 159 567 322 567 c 0
 487 567 608 441 608 269 c 0
 608 249 607 237 603 218 c 1
170 335 m 1
 477 335 l 1
 460 406 406 445 324 445 c 0
 245 445 191 406 170 335 c 1
254 630 m 1
 254 763 l 1
 387 763 l 1
 387 630 l 1
 254 630 l 1
EndSplineSet
Ligature: 0 0 'liga' e uni0307
EndChar
StartChar: eogonek
Encoding: 340 281 234
Width: 640
Flags: W
HStem: -204 81<433 458> -13 122<315 335> 218 117<169 602> 445 122<315 335>
VStem: 317 91<-105 -80>
Fore
602 218 m 1
 173 218 l 1
 189 151 248 109 327 109 c 0
 382 109 415 124 449 164 c 1
 594 164 l 1
 580 120 542 71 463 -3 c 0
 413 -50 408 -57 408 -80 c 0
 408 -105 429 -123 458 -123 c 0
 470 -123 479 -121 499 -113 c 1
 499 -190 l 1
 477 -199 455 -204 433 -204 c 0
 364 -204 317 -164 317 -105 c 0
 317 -67 340 -35 386 -8 c 1
 364 -12 349 -13 330 -13 c 0
 161 -13 30 113 30 275 c 0
 30 438 159 567 322 567 c 0
 487 567 608 441 608 269 c 0
 608 249 607 237 602 218 c 1
169 335 m 1
 477 335 l 1
 460 406 406 445 324 445 c 0
 245 445 191 406 169 335 c 1
EndSplineSet
Ligature: 0 0 'liga' e uni0328
EndChar
StartChar: gbreve
Encoding: 341 287 235
Width: 660
Flags: W
HStem: -221 117<303 351> -13 122<300 326> 445 122<300 329> 630 96<330 335>
VStem: 30 134<258 292> 478 133<258 554>
Fore
484 554 m 1
 611 554 l 1
 611 105 l 2
 611 -1 594 -69 555 -120 c 0
 503 -186 424 -221 324 -221 c 0
 188 -221 84 -156 39 -45 c 1
 190 -45 l 1
 229 -88 267 -104 329 -104 c 0
 428 -104 479 -46 484 73 c 1
 432 12 380 -13 302 -13 c 0
 144 -13 30 110 30 281 c 0
 30 445 146 567 303 567 c 0
 383 567 443 540 484 484 c 1
 484 554 l 1
318 445 m 0
 225 445 164 377 164 275 c 0
 164 174 225 109 320 109 c 0
 415 109 478 175 478 275 c 0
 478 376 413 445 318 445 c 0
164 769 m 1
 262 769 l 1
 274 740 297 726 330 726 c 0
 365 726 387 741 392 769 c 1
 494 769 l 1
 491 686 425 630 330 630 c 0
 231 630 170 681 164 769 c 1
EndSplineSet
Ligature: 0 0 'liga' g uni0306
EndChar
StartChar: idieresis
Encoding: 342 239 236
Width: 240
Flags: W
HStem: 0 21G<54 187> 534 20G<54 187> 630 133<-56 77 154 287>
VStem: -56 133<630 763> 54 133<0 554> 154 133<630 763>
Fore
54 0 m 1xe8
 54 554 l 1
 187 554 l 1
 187 0 l 1
 54 0 l 1xe8
-56 630 m 1xf0
 -56 763 l 1
 77 763 l 1
 77 630 l 1
 -56 630 l 1xf0
154 630 m 1xe4
 154 763 l 1
 287 763 l 1
 287 630 l 1
 154 630 l 1xe4
EndSplineSet
Ligature: 0 0 'liga' i uni0308
EndChar
StartChar: iacute
Encoding: 343 237 237
Width: 240
Flags: W
HStem: 0 21G<54 187> 534 20G<54 187>
VStem: 54 133<0 554>
Fore
54 0 m 1
 54 554 l 1
 187 554 l 1
 187 0 l 1
 54 0 l 1
35 613 m 1
 -16 691 l 1
 208 825 l 1
 262 733 l 1
 35 613 l 1
EndSplineSet
Ligature: 0 0 'liga' i acutecomb
EndChar
StartChar: igrave
Encoding: 344 236 238
Width: 240
Flags: W
HStem: 0 21G<54 187> 534 20G<54 187>
VStem: 54 133<0 554>
DStem: -16 737 41 825 210 613 263 692
Fore
54 0 m 1
 54 554 l 1
 187 554 l 1
 187 0 l 1
 54 0 l 1
-16 737 m 1
 41 825 l 1
 263 692 l 1
 210 613 l 1
 -16 737 l 1
EndSplineSet
Ligature: 0 0 'liga' i gravecomb
EndChar
StartChar: icircumflex
Encoding: 345 238 239
Width: 240
Flags: W
HStem: 0 21G<54 187> 534 20G<54 187> 630 138<71 71 71 323>
VStem: 54 133<0 554>
Fore
54 0 m 1
 54 554 l 1
 187 554 l 1
 187 0 l 1
 54 0 l 1
-76 630 m 1
 71 768 l 1
 178 768 l 1
 323 630 l 1
 178 630 l 1
 125 694 l 1
 71 630 l 1
 -76 630 l 1
EndSplineSet
Ligature: 0 0 'liga' i uni0302
EndChar
StartChar: lacute
Encoding: 346 314 240
Width: 240
Flags: W
HStem: 0 21G<54 187> 719 20G<54 187>
VStem: 54 133<0 739>
Fore
54 0 m 1
 54 739 l 1
 187 739 l 1
 187 0 l 1
 54 0 l 1
35 788 m 1
 -16 866 l 1
 208 1000 l 1
 262 908 l 1
 35 788 l 1
EndSplineSet
Ligature: 0 0 'liga' l acutecomb
EndChar
StartChar: lcaron
Encoding: 347 318 241
Width: 330
Flags: W
HStem: 0 21G<54 187> 719 20G<54 187 266 370>
VStem: 54 133<0 739>
DStem: 266 739 370 739 208 547 312 547
Fore
54 0 m 1
 54 739 l 1
 187 739 l 1
 187 0 l 1
 54 0 l 1
208 547 m 1
 266 739 l 1
 370 739 l 1
 312 547 l 1
 208 547 l 1
EndSplineSet
Ligature: 0 0 'liga' l uni030C
EndChar
StartChar: nacute
Encoding: 348 324 242
Width: 600
Flags: W
HStem: 0 21G<54 187 413 546> 445 122<307 333>
VStem: 54 123<0 554> 54 133<0 305> 413 133<0 305>
Fore
54 0 m 1xe8
 54 554 l 1
 177 554 l 1
 177 501 l 1xe8
 226 548 270 567 333 567 c 0
 410 567 470 539 506 487 c 0
 536 444 546 396 546 297 c 2
 546 0 l 1
 413 0 l 1
 413 271 l 2
 413 345 405 386 387 410 c 0
 369 433 341 445 307 445 c 0
 265 445 230 427 209 394 c 0
 192 367 187 335 187 261 c 2
 187 0 l 1xd8
 54 0 l 1xe8
215 613 m 1
 164 691 l 1
 388 825 l 1
 442 733 l 1
 215 613 l 1
EndSplineSet
Ligature: 0 0 'liga' n acutecomb
EndChar
StartChar: ncaron
Encoding: 349 328 243
Width: 600
Flags: W
HStem: 0 21G<54 187 413 546> 445 122<307 333> 630 138<104 358>
VStem: 54 123<0 554> 54 133<0 305> 413 133<0 305>
Fore
54 0 m 1xf4
 54 554 l 1
 177 554 l 1
 177 501 l 1xf4
 226 548 270 567 333 567 c 0
 410 567 470 539 506 487 c 0
 536 444 546 396 546 297 c 2
 546 0 l 1
 413 0 l 1
 413 271 l 2
 413 345 405 386 387 410 c 0
 369 433 341 445 307 445 c 0
 265 445 230 427 209 394 c 0
 192 367 187 335 187 261 c 2
 187 0 l 1xec
 54 0 l 1xf4
104 768 m 1
 251 768 l 1
 305 704 l 1
 358 768 l 1
 503 768 l 1
 358 630 l 1
 251 630 l 1
 104 768 l 1
EndSplineSet
Ligature: 0 0 'liga' n uni030C
EndChar
StartChar: ntilde
Encoding: 350 241 244
Width: 600
Flags: W
HStem: 0 21G<54 187 413 546> 445 122<307 333> 636 102<335 362> 661 102<228 249>
VStem: 54 123<0 554> 54 133<0 305> 413 133<0 305>
Fore
54 0 m 1xca
 54 554 l 1
 177 554 l 1
 177 501 l 1xca
 226 548 270 567 333 567 c 0
 410 567 470 539 506 487 c 0
 536 444 546 396 546 297 c 2
 546 0 l 1
 413 0 l 1
 413 271 l 2
 413 345 405 386 387 410 c 0
 369 433 341 445 307 445 c 0
 265 445 230 427 209 394 c 0
 192 367 187 335 187 261 c 2
 187 0 l 1xc6
 54 0 l 1xca
179 636 m 1xe2
 125 716 l 1
 160 751 186 763 228 763 c 0xd2
 249 763 259 761 288 749 c 0
 308 741 322 738 335 738 c 0
 361 738 381 748 402 772 c 1
 456 691 l 1
 424 652 397 636 362 636 c 0xe2
 347 636 329 640 303 649 c 0
 275 659 265 661 249 661 c 0xd2
 224 661 217 658 179 636 c 1xe2
EndSplineSet
Ligature: 0 0 'liga' n tildecomb
EndChar
StartChar: odieresis
Encoding: 351 246 245
Width: 640
Flags: W
HStem: -13 122<317 335> 445 122<317 335> 630 133<153 286 363 496>
VStem: 30 134<271 292> 153 133<630 763> 363 133<630 763> 485 134<258 292>
Fore
323 567 m 0xf2
 490 567 619 438 619 273 c 0
 619 117 485 -13 324 -13 c 0
 162 -13 30 117 30 277 c 0
 30 436 162 567 323 567 c 0xf2
324 445 m 0
 237 445 164 370 164 279 c 0
 164 184 235 109 325 109 c 0
 413 109 485 184 485 277 c 0
 485 369 413 445 324 445 c 0
153 630 m 1xe8
 153 763 l 1
 286 763 l 1
 286 630 l 1
 153 630 l 1xe8
363 630 m 1xe4
 363 763 l 1
 496 763 l 1
 496 630 l 1
 363 630 l 1xe4
EndSplineSet
KernsSLIF: 121 -26 0 0 120 -22 0 0 119 -21 0 0 118 -22 0 0 116 1 0 0
Ligature: 0 0 'liga' o uni0308
EndChar
StartChar: oacute
Encoding: 352 243 246
Width: 640
Flags: W
HStem: -13 122<317 335> 445 122<317 335>
VStem: 30 134<271 292> 485 134<258 292>
Fore
323 567 m 0
 490 567 619 438 619 273 c 0
 619 117 485 -13 324 -13 c 0
 162 -13 30 117 30 277 c 0
 30 436 162 567 323 567 c 0
324 445 m 0
 237 445 164 370 164 279 c 0
 164 184 235 109 325 109 c 0
 413 109 485 184 485 277 c 0
 485 369 413 445 324 445 c 0
270 613 m 1
 219 691 l 1
 443 825 l 1
 497 733 l 1
 270 613 l 1
EndSplineSet
KernsSLIF: 121 -26 0 0 119 -21 0 0 118 -22 0 0
Ligature: 0 0 'liga' o acutecomb
EndChar
StartChar: ograve
Encoding: 353 242 247
Width: 640
Flags: W
HStem: -13 122<317 335> 445 122<317 335>
VStem: 30 134<271 292> 485 134<258 292>
DStem: 152 737 209 825 378 613 431 692
Fore
323 567 m 0
 490 567 619 438 619 273 c 0
 619 117 485 -13 324 -13 c 0
 162 -13 30 117 30 277 c 0
 30 436 162 567 323 567 c 0
324 445 m 0
 237 445 164 370 164 279 c 0
 164 184 235 109 325 109 c 0
 413 109 485 184 485 277 c 0
 485 369 413 445 324 445 c 0
152 737 m 1
 209 825 l 1
 431 692 l 1
 378 613 l 1
 152 737 l 1
EndSplineSet
KernsSLIF: 121 -26 0 0 119 -21 0 0 118 -22 0 0
Ligature: 0 0 'liga' o gravecomb
EndChar
StartChar: ocircumflex
Encoding: 354 244 248
Width: 640
Flags: W
HStem: -13 122<317 335> 445 122<317 335> 630 138<272 272 272 524>
VStem: 30 134<271 292> 485 134<258 292>
Fore
323 567 m 0
 490 567 619 438 619 273 c 0
 619 117 485 -13 324 -13 c 0
 162 -13 30 117 30 277 c 0
 30 436 162 567 323 567 c 0
324 445 m 0
 237 445 164 370 164 279 c 0
 164 184 235 109 325 109 c 0
 413 109 485 184 485 277 c 0
 485 369 413 445 324 445 c 0
125 630 m 1
 272 768 l 1
 379 768 l 1
 524 630 l 1
 379 630 l 1
 326 694 l 1
 272 630 l 1
 125 630 l 1
EndSplineSet
KernsSLIF: 116 1 0 0
Ligature: 0 0 'liga' o uni0302
EndChar
StartChar: otilde
Encoding: 355 245 249
Width: 640
Flags: W
HStem: -13 122<317 342> 445 122<317 342> 636 102<372 399> 661 102<265 286>
VStem: 30 134<271 292> 485 134<258 292>
Fore
323 567 m 0xcc
 490 567 619 438 619 273 c 0
 619 117 485 -13 324 -13 c 0
 162 -13 30 117 30 277 c 0
 30 436 162 567 323 567 c 0xcc
324 445 m 0
 237 445 164 370 164 279 c 0
 164 184 235 109 325 109 c 0
 413 109 485 184 485 277 c 0
 485 369 413 445 324 445 c 0
216 636 m 1xec
 162 716 l 1
 197 751 223 763 265 763 c 0xdc
 286 763 296 761 325 749 c 0
 345 741 359 738 372 738 c 0
 398 738 418 748 439 772 c 1
 493 691 l 1
 461 652 434 636 399 636 c 0xec
 384 636 366 640 340 649 c 0
 312 659 302 661 286 661 c 0xdc
 261 661 254 658 216 636 c 1xec
EndSplineSet
Ligature: 0 0 'liga' o tildecomb
EndChar
StartChar: ohungarumlaut
Encoding: 356 337 250
Width: 640
Flags: W
HStem: -13 122<314 335> 445 122<314 335>
VStem: 30 134<271 292> 485 134<258 292>
Fore
323 567 m 0
 490 567 619 438 619 273 c 0
 619 117 485 -13 324 -13 c 0
 162 -13 30 117 30 277 c 0
 30 436 162 567 323 567 c 0
324 445 m 0
 237 445 164 370 164 279 c 0
 164 184 235 109 325 109 c 0
 413 109 485 184 485 277 c 0
 485 369 413 445 324 445 c 0
44 682 m 1
 254 825 l 1
 316 745 l 1
 94 613 l 1
 44 682 l 1
327 682 m 1
 538 825 l 1
 599 745 l 1
 378 613 l 1
 327 682 l 1
EndSplineSet
Ligature: 0 0 'liga' o uni030B
EndChar
StartChar: racute
Encoding: 357 341 251
Width: 320
Flags: W
HStem: 0 21G<54 187> 534 20G<54 176>
VStem: 54 122<0 554> 54 133<0 321>
Fore
54 0 m 1xe0
 54 554 l 1
 176 554 l 1
 176 500 l 1xe0
 211 551 239 567 296 567 c 2
 306 567 l 1
 306 439 l 1
 226 437 187 394 187 308 c 2
 187 0 l 1xd0
 54 0 l 1xe0
75 613 m 1
 24 691 l 1
 248 825 l 1
 302 733 l 1
 75 613 l 1
EndSplineSet
Ligature: 0 0 'liga' r acutecomb
EndChar
StartChar: sacute
Encoding: 358 347 252
Width: 440
Flags: W
HStem: -13 122<220 229> 445 122<223 229>
VStem: 39 133<389.063 403> 287 133<161 176>
Fore
19 176 m 1
 153 176 l 1
 166 129 188 109 227 109 c 0
 261 109 287 132 287 163 c 0
 287 181 278 196 262 206 c 0
 248 215 244 217 193 234 c 0
 83 271 39 317 39 398 c 0
 39 493 120 567 223 567 c 0
 278 567 330 545 365 506 c 0
 392 476 403 448 405 401 c 1
 275 401 l 1
 269 430 251 445 223 445 c 0
 194 445 172 425 172 398 c 0
 172 382 181 369 199 361 c 0
 212 355 212 355 266 338 c 0
 314 323 347 309 368 291 c 0
 402 264 420 224 420 176 c 0
 420 70 333 -13 222 -13 c 0
 155 -13 92 16 56 64 c 0
 34 94 25 122 19 176 c 1
135 613 m 1
 84 691 l 1
 308 825 l 1
 362 733 l 1
 135 613 l 1
EndSplineSet
Ligature: 0 0 'liga' s acutecomb
EndChar
StartChar: scaron
Encoding: 359 353 253
Width: 440
Flags: W
HStem: -13 122<220 229> 445 122<223 229> 630 138<24 278>
VStem: 39 133<389.063 403> 287 133<161 176>
Fore
19 176 m 1
 153 176 l 1
 166 129 188 109 227 109 c 0
 261 109 287 132 287 163 c 0
 287 181 278 196 262 206 c 0
 248 215 244 217 193 234 c 0
 83 271 39 317 39 398 c 0
 39 493 120 567 223 567 c 0
 278 567 330 545 365 506 c 0
 392 476 403 448 405 401 c 1
 275 401 l 1
 269 430 251 445 223 445 c 0
 194 445 172 425 172 398 c 0
 172 382 181 369 199 361 c 0
 212 355 212 355 266 338 c 0
 314 323 347 309 368 291 c 0
 402 264 420 224 420 176 c 0
 420 70 333 -13 222 -13 c 0
 155 -13 92 16 56 64 c 0
 34 94 25 122 19 176 c 1
24 768 m 1
 171 768 l 1
 225 704 l 1
 278 768 l 1
 423 768 l 1
 278 630 l 1
 171 630 l 1
 24 768 l 1
EndSplineSet
Ligature: 0 0 'liga' s uni030C
EndChar
StartChar: scommaaccent
Encoding: 360 537 254
Width: 440
Flags: W
HStem: -13 122<218 229> 445 122<223 229>
VStem: 39 133<398 402> 287 133<161 176>
DStem: 174 -53 278 -53 116 -245 220 -245
Fore
19 176 m 1
 153 176 l 1
 166 129 188 109 227 109 c 0
 261 109 287 132 287 163 c 0
 287 181 278 196 262 206 c 0
 248 215 244 217 193 234 c 0
 83 271 39 317 39 398 c 0
 39 493 120 567 223 567 c 0
 278 567 330 545 365 506 c 0
 392 476 403 448 405 401 c 1
 275 401 l 1
 269 430 251 445 223 445 c 0
 194 445 172 425 172 398 c 0
 172 382 181 369 199 361 c 0
 212 355 212 355 266 338 c 0
 314 323 347 309 368 291 c 0
 402 264 420 224 420 176 c 0
 420 70 333 -13 222 -13 c 0
 155 -13 92 16 56 64 c 0
 34 94 25 122 19 176 c 1
116 -245 m 1
 174 -53 l 1
 278 -53 l 1
 220 -245 l 1
 116 -245 l 1
EndSplineSet
Ligature: 0 0 'liga' s uni0326
EndChar
StartChar: tcaron
Encoding: 361 357 255
Width: 369
Flags: W
HStem: 0 21G<74 207> 433 121<9 74 207 287> 567 21G<250 354> 719 20G<74 207 305 409>
VStem: 74 133<0 433 554 739>
DStem: 305 739 409 739 250 567 354 567
Fore
74 0 m 1
 74 433 l 1
 9 433 l 1
 9 554 l 1
 74 554 l 1
 74 739 l 1
 207 739 l 1
 207 554 l 1
 287 554 l 1
 287 433 l 1
 207 433 l 1
 207 0 l 1
 74 0 l 1
250 567 m 1
 305 739 l 1
 409 739 l 1
 354 567 l 1
 250 567 l 1
EndSplineSet
Ligature: 0 0 'liga' t uni030C
EndChar
StartChar: udieresis
Encoding: 362 252 256
Width: 600
Flags: W
HStem: -13 122<265 292> 534 20G<54 187 414 547> 630 133<129 262 339 472>
VStem: 54 133<242 554> 129 133<630 763> 339 133<630 763> 424 123<0 554>
Fore
547 554 m 1xf2
 547 0 l 1
 424 0 l 1
 424 53 l 1
 374 4 332 -13 265 -13 c 0
 193 -13 133 16 96 69 c 0
 65 115 54 163 54 257 c 2
 54 554 l 1
 187 554 l 1
 187 283 l 2
 187 209 195 168 214 144 c 0
 232 120 258 109 292 109 c 0
 337 109 374 128 393 160 c 1
 409 184 414 220 414 293 c 2
 414 554 l 1
 547 554 l 1xf2
129 630 m 1xe8
 129 763 l 1
 262 763 l 1
 262 630 l 1
 129 630 l 1xe8
339 630 m 1xe4
 339 763 l 1
 472 763 l 1
 472 630 l 1
 339 630 l 1xe4
EndSplineSet
Ligature: 0 0 'liga' u uni0308
EndChar
StartChar: uacute
Encoding: 363 250 257
Width: 600
Flags: W
HStem: -13 122<265 292> 534 20G<54 187 414 547>
VStem: 54 133<242 554> 424 123<0 554>
Fore
547 554 m 1
 547 0 l 1
 424 0 l 1
 424 53 l 1
 374 4 332 -13 265 -13 c 0
 193 -13 133 16 96 69 c 0
 65 115 54 163 54 257 c 2
 54 554 l 1
 187 554 l 1
 187 283 l 2
 187 209 195 168 214 144 c 0
 232 120 258 109 292 109 c 0
 337 109 374 128 393 160 c 1
 409 184 414 220 414 293 c 2
 414 554 l 1
 547 554 l 1
253 613 m 1
 202 691 l 1
 426 825 l 1
 480 733 l 1
 253 613 l 1
EndSplineSet
Ligature: 0 0 'liga' u acutecomb
EndChar
StartChar: ugrave
Encoding: 364 249 258
Width: 600
Flags: W
HStem: -13 122<265 292> 534 20G<54 187 414 547>
VStem: 54 133<242 554> 424 123<0 554>
DStem: 121 737 178 825 347 613 400 692
Fore
547 554 m 1
 547 0 l 1
 424 0 l 1
 424 53 l 1
 374 4 332 -13 265 -13 c 0
 193 -13 133 16 96 69 c 0
 65 115 54 163 54 257 c 2
 54 554 l 1
 187 554 l 1
 187 283 l 2
 187 209 195 168 214 144 c 0
 232 120 258 109 292 109 c 0
 337 109 374 128 393 160 c 1
 409 184 414 220 414 293 c 2
 414 554 l 1
 547 554 l 1
121 737 m 1
 178 825 l 1
 400 692 l 1
 347 613 l 1
 121 737 l 1
EndSplineSet
Ligature: 0 0 'liga' u gravecomb
EndChar
StartChar: ucircumflex
Encoding: 365 251 259
Width: 600
Flags: W
HStem: -13 122<265 292> 534 20G<54 187 414 547> 630 138<248 248 248 500>
VStem: 54 133<242 554> 424 123<0 554>
Fore
547 554 m 1
 547 0 l 1
 424 0 l 1
 424 53 l 1
 374 4 332 -13 265 -13 c 0
 193 -13 133 16 96 69 c 0
 65 115 54 163 54 257 c 2
 54 554 l 1
 187 554 l 1
 187 283 l 2
 187 209 195 168 214 144 c 0
 232 120 258 109 292 109 c 0
 337 109 374 128 393 160 c 1
 409 184 414 220 414 293 c 2
 414 554 l 1
 547 554 l 1
101 630 m 1
 248 768 l 1
 355 768 l 1
 500 630 l 1
 355 630 l 1
 302 694 l 1
 248 630 l 1
 101 630 l 1
EndSplineSet
Ligature: 0 0 'liga' u uni0302
EndChar
StartChar: uring
Encoding: 366 367 260
Width: 600
Flags: W
HStem: -13 122<265 292> 534 20G<54 187 414 547> 610 67<297 301> 749 67<290 300>
VStem: 54 133<242 554> 194 67<713 715> 333 67<713 715> 424 123<0 554>
Fore
547 554 m 1
 547 0 l 1
 424 0 l 1
 424 53 l 1
 374 4 332 -13 265 -13 c 0
 193 -13 133 16 96 69 c 0
 65 115 54 163 54 257 c 2
 54 554 l 1
 187 554 l 1
 187 283 l 2
 187 209 195 168 214 144 c 0
 232 120 258 109 292 109 c 0
 337 109 374 128 393 160 c 1
 409 184 414 220 414 293 c 2
 414 554 l 1
 547 554 l 1
298 816 m 0
 354 816 400 769 400 713 c 0
 400 656 353 610 297 610 c 0
 240 610 194 656 194 713 c 0
 194 770 240 816 298 816 c 0
297 749 m 0
 277 749 261 733 261 713 c 0
 261 693 277 677 297 677 c 0
 317 677 333 693 333 713 c 0
 333 733 317 749 297 749 c 0
EndSplineSet
Ligature: 0 0 'liga' u uni030A
EndChar
StartChar: uhungarumlaut
Encoding: 367 369 261
Width: 600
Flags: W
HStem: -13 122<265 292> 534 20G<54 187 414 547>
VStem: 54 133<242 554> 424 123<0 554>
Fore
547 554 m 1
 547 0 l 1
 424 0 l 1
 424 53 l 1
 374 4 332 -13 265 -13 c 0
 193 -13 133 16 96 69 c 0
 65 115 54 163 54 257 c 2
 54 554 l 1
 187 554 l 1
 187 283 l 2
 187 209 195 168 214 144 c 0
 232 120 258 109 292 109 c 0
 337 109 374 128 393 160 c 1
 409 184 414 220 414 293 c 2
 414 554 l 1
 547 554 l 1
24 682 m 1
 234 825 l 1
 296 745 l 1
 74 613 l 1
 24 682 l 1
307 682 m 1
 518 825 l 1
 579 745 l 1
 358 613 l 1
 307 682 l 1
EndSplineSet
Ligature: 0 0 'liga' u uni030B
EndChar
StartChar: yacute
Encoding: 368 253 262
Width: 580
Flags: W
HStem: 534 20G<6 158 415 568>
DStem: 209 52 568 554 105 -185 248 -185
Fore
105 -185 m 1
 209 52 l 1
 6 554 l 1
 158 554 l 1
 281 195 l 1
 415 554 l 1
 568 554 l 1
 248 -185 l 1
 105 -185 l 1
205 613 m 1
 154 691 l 1
 378 825 l 1
 432 733 l 1
 205 613 l 1
EndSplineSet
Ligature: 0 0 'liga' y acutecomb
EndChar
StartChar: zacute
Encoding: 369 378 263
Width: 460
Flags: W
HStem: 0 119<179 442> 435 119<48 264>
DStem: 264 435 423 435 20 119 179 119
Fore
20 0 m 1
 20 119 l 1
 264 435 l 1
 48 435 l 1
 48 554 l 1
 423 554 l 1
 423 435 l 1
 179 119 l 1
 442 119 l 1
 442 0 l 1
 20 0 l 1
145 613 m 1
 94 691 l 1
 318 825 l 1
 372 733 l 1
 145 613 l 1
EndSplineSet
Ligature: 0 0 'liga' z acutecomb
EndChar
StartChar: zcaron
Encoding: 370 382 264
Width: 460
Flags: W
HStem: 0 119<179 442> 435 119<48 264> 630 138<38 292>
DStem: 264 435 423 435 20 119 179 119
Fore
20 0 m 1
 20 119 l 1
 264 435 l 1
 48 435 l 1
 48 554 l 1
 423 554 l 1
 423 435 l 1
 179 119 l 1
 442 119 l 1
 442 0 l 1
 20 0 l 1
38 768 m 1
 185 768 l 1
 239 704 l 1
 292 768 l 1
 437 768 l 1
 292 630 l 1
 185 630 l 1
 38 768 l 1
EndSplineSet
Ligature: 0 0 'liga' z uni030C
EndChar
StartChar: zdotaccent
Encoding: 371 380 265
Width: 460
Flags: W
HStem: 0 119<179 442> 435 119<48 264> 630 133<164 297>
VStem: 164 133<630 763>
DStem: 264 435 423 435 20 119 179 119
Fore
20 0 m 1
 20 119 l 1
 264 435 l 1
 48 435 l 1
 48 554 l 1
 423 554 l 1
 423 435 l 1
 179 119 l 1
 442 119 l 1
 442 0 l 1
 20 0 l 1
164 630 m 1
 164 763 l 1
 297 763 l 1
 297 630 l 1
 164 630 l 1
EndSplineSet
Ligature: 0 0 'liga' z uni0307
EndChar
StartChar: ydieresis
Encoding: 372 255 266
Width: 580
Flags: W
HStem: 534 20G<6 158 415 568> 630 133<116 249 326 459>
VStem: 116 133<630 763> 326 133<630 763>
DStem: 209 52 568 554 105 -185 248 -185
Fore
105 -185 m 1
 209 52 l 1
 6 554 l 1
 158 554 l 1
 281 195 l 1
 415 554 l 1
 568 554 l 1
 248 -185 l 1
 105 -185 l 1
116 630 m 1
 116 763 l 1
 249 763 l 1
 249 630 l 1
 116 630 l 1
326 630 m 1
 326 763 l 1
 459 763 l 1
 459 630 l 1
 326 630 l 1
EndSplineSet
Ligature: 0 0 'liga' y uni0308
EndChar
StartChar: tcommaaccent
Encoding: 373 355 267
Width: 300
Flags: W
HStem: 0 21G<74 207> 433 121<9 74 207 287> 719 20G<74 207>
VStem: 74 133<0 433 554 739>
DStem: 104 -53 208 -53 46 -245 150 -245
Fore
74 0 m 1
 74 433 l 1
 9 433 l 1
 9 554 l 1
 74 554 l 1
 74 739 l 1
 207 739 l 1
 207 554 l 1
 287 554 l 1
 287 433 l 1
 207 433 l 1
 207 0 l 1
 74 0 l 1
46 -245 m 1
 104 -53 l 1
 208 -53 l 1
 150 -245 l 1
 46 -245 l 1
EndSplineSet
Ligature: 0 0 'liga' t uni0327
EndChar
StartChar: amacron
Encoding: 374 257 268
Width: 660
Flags: W
HStem: -13 122<307 335> 445 122<307 335> 648 100<194 471>
VStem: 30 134<258 292> 489 126<258 554>
Fore
615 554 m 1
 615 0 l 1
 493 0 l 1
 493 72 l 1
 440 12 387 -13 309 -13 c 0
 147 -13 30 108 30 275 c 0
 30 444 148 567 312 567 c 0
 392 567 447 541 493 480 c 1
 493 554 l 1
 615 554 l 1
326 445 m 0
 231 445 164 373 164 272 c 0
 164 175 231 109 328 109 c 0
 379 109 422 127 449 159 c 0
 473 187 489 233 489 273 c 0
 489 374 421 445 326 445 c 0
194 648 m 1
 194 748 l 1
 471 748 l 1
 471 648 l 1
 194 648 l 1
EndSplineSet
Ligature: 0 0 'liga' a uni0304
EndChar
StartChar: emacron
Encoding: 375 275 269
Width: 640
Flags: W
HStem: -13 122<317 335> 218 117<170 603> 445 122<317 335> 648 100<184 461>
Fore
603 218 m 1
 174 218 l 1
 190 151 248 109 327 109 c 0
 382 109 415 124 449 164 c 1
 594 164 l 1
 585 136 571 113 550 87 c 1
 492 20 421 -13 330 -13 c 0
 161 -13 30 113 30 275 c 0
 30 438 159 567 322 567 c 0
 487 567 608 441 608 269 c 0
 608 249 607 237 603 218 c 1
170 335 m 1
 477 335 l 1
 460 406 406 445 324 445 c 0
 245 445 191 406 170 335 c 1
184 648 m 1
 184 748 l 1
 461 748 l 1
 461 648 l 1
 184 648 l 1
EndSplineSet
Ligature: 0 0 'liga' e uni0304
EndChar
StartChar: imacron
Encoding: 376 299 270
Width: 240
Flags: W
HStem: 0 21G<54 187> 534 20G<54 187> 648 100<-16 261>
VStem: 54 133<0 554>
Fore
54 0 m 1
 54 554 l 1
 187 554 l 1
 187 0 l 1
 54 0 l 1
-16 648 m 1
 -16 748 l 1
 261 748 l 1
 261 648 l 1
 -16 648 l 1
EndSplineSet
Ligature: 0 0 'liga' i uni0304
EndChar
StartChar: kcommaaccent
Encoding: 377 311 271
Width: 580
Flags: W
HStem: 0 21G<54 187 376 555> 534 20G<364 523> 719 20G<54 187>
VStem: 54 133<0 259 0 739>
DStem: 244 -53 348 -53 186 -245 290 -245
Fore
54 0 m 1
 54 739 l 1
 187 739 l 1
 187 293 l 1
 364 554 l 1
 523 554 l 1
 325 283 l 1
 555 0 l 1
 376 0 l 1
 187 259 l 1
 187 0 l 1
 54 0 l 1
186 -245 m 1
 244 -53 l 1
 348 -53 l 1
 290 -245 l 1
 186 -245 l 1
EndSplineSet
Ligature: 0 0 'liga' k uni0327
EndChar
StartChar: lcommaaccent
Encoding: 378 316 272
Width: 240
Flags: W
HStem: 0 21G<54 187> 719 20G<54 187>
VStem: 54 133<0 739>
DStem: 74 -53 178 -53 16 -245 120 -245
Fore
54 0 m 1
 54 739 l 1
 187 739 l 1
 187 0 l 1
 54 0 l 1
16 -245 m 1
 74 -53 l 1
 178 -53 l 1
 120 -245 l 1
 16 -245 l 1
EndSplineSet
Ligature: 0 0 'liga' l uni0327
EndChar
StartChar: ncommaaccent
Encoding: 379 326 273
Width: 600
Flags: W
HStem: 0 21G<54 187 413 546> 445 122<307 333>
VStem: 54 123<0 554> 54 133<0 299> 413 133<0 299>
DStem: 254 -53 358 -53 196 -245 300 -245
Fore
54 0 m 1xe8
 54 554 l 1
 177 554 l 1
 177 501 l 1xe8
 226 548 270 567 333 567 c 0
 410 567 470 539 506 487 c 0
 536 444 546 396 546 297 c 2
 546 0 l 1
 413 0 l 1
 413 271 l 2
 413 345 405 386 387 410 c 0
 369 433 341 445 307 445 c 0
 265 445 230 427 209 394 c 0
 192 367 187 335 187 261 c 2
 187 0 l 1xd8
 54 0 l 1xe8
196 -245 m 1
 254 -53 l 1
 358 -53 l 1
 300 -245 l 1
 196 -245 l 1
EndSplineSet
Ligature: 0 0 'liga' n uni0327
EndChar
StartChar: omacron
Encoding: 380 333 274
Width: 640
Flags: W
HStem: -13 122<317 335> 445 122<317 335> 648 100<184 461>
VStem: 30 134<271 292> 485 134<258 292>
Fore
323 567 m 0
 490 567 619 438 619 273 c 0
 619 117 485 -13 324 -13 c 0
 162 -13 30 117 30 277 c 0
 30 436 162 567 323 567 c 0
324 445 m 0
 237 445 164 370 164 279 c 0
 164 184 235 109 325 109 c 0
 413 109 485 184 485 277 c 0
 485 369 413 445 324 445 c 0
184 648 m 1
 184 748 l 1
 461 748 l 1
 461 648 l 1
 184 648 l 1
EndSplineSet
Ligature: 0 0 'liga' o uni0304
EndChar
StartChar: rcommaaccent
Encoding: 381 343 275
Width: 320
Flags: W
HStem: 0 21G<54 187> 534 20G<54 176>
VStem: 54 122<0 554> 54 133<0 316>
DStem: 114 -53 218 -53 56 -245 160 -245
Fore
54 0 m 1xe0
 54 554 l 1
 176 554 l 1
 176 500 l 1xe0
 211 551 239 567 296 567 c 2
 306 567 l 1
 306 439 l 1
 226 437 187 394 187 308 c 2
 187 0 l 1xd0
 54 0 l 1xe0
56 -245 m 1
 114 -53 l 1
 218 -53 l 1
 160 -245 l 1
 56 -245 l 1
EndSplineSet
Ligature: 0 0 'liga' r uni0327
EndChar
StartChar: umacron
Encoding: 382 363 276
Width: 600
Flags: W
HStem: -13 122<265 292> 534 20G<54 187 414 547> 648 100<164 441>
VStem: 54 133<242 554> 424 123<0 554>
Fore
547 554 m 1
 547 0 l 1
 424 0 l 1
 424 53 l 1
 374 4 332 -13 265 -13 c 0
 193 -13 133 16 96 69 c 0
 65 115 54 163 54 257 c 2
 54 554 l 1
 187 554 l 1
 187 283 l 2
 187 209 195 168 214 144 c 0
 232 120 258 109 292 109 c 0
 337 109 374 128 393 160 c 1
 409 184 414 220 414 293 c 2
 414 554 l 1
 547 554 l 1
164 648 m 1
 164 748 l 1
 441 748 l 1
 441 648 l 1
 164 648 l 1
EndSplineSet
Ligature: 0 0 'liga' u uni0304
EndChar
StartChar: uogonek
Encoding: 383 371 277
Width: 600
Flags: W
HStem: -204 81<507 532> -13 122<265 292> 534 20G<54 187 414 547>
VStem: 54 133<243 554> 391 91<-105 -81> 424 123<-1 554>
Fore
547 554 m 1xf4
 547 0 l 1xf4
 496 -37 482 -54 482 -81 c 0
 482 -105 503 -123 532 -123 c 0
 544 -123 553 -121 573 -113 c 1
 573 -190 l 1
 551 -199 529 -204 507 -204 c 0
 438 -204 391 -164 391 -105 c 0xf8
 391 -62 419 -27 477 0 c 1
 424 0 l 1
 424 53 l 1
 374 4 332 -13 265 -13 c 0
 193 -13 133 16 96 69 c 0
 65 115 54 163 54 257 c 2
 54 554 l 1
 187 554 l 1
 187 283 l 2
 187 209 195 168 214 144 c 0
 232 120 258 109 292 109 c 0
 337 109 374 128 393 160 c 1
 409 184 414 220 414 293 c 2
 414 554 l 1
 547 554 l 1xf4
EndSplineSet
Ligature: 0 0 'liga' u uni0328
EndChar
StartChar: rcaron
Encoding: 384 345 278
Width: 320
Flags: W
HStem: 0 21G<54 187> 534 20G<54 176> 630 138<-36 218>
VStem: 54 122<0 554> 54 133<0 321>
Fore
54 0 m 1xf0
 54 554 l 1
 176 554 l 1
 176 500 l 1xf0
 211 551 239 567 296 567 c 2
 306 567 l 1
 306 439 l 1
 226 437 187 394 187 308 c 2
 187 0 l 1xe8
 54 0 l 1xf0
-36 768 m 1
 111 768 l 1
 165 704 l 1
 218 768 l 1
 363 768 l 1
 218 630 l 1
 111 630 l 1
 -36 768 l 1
EndSplineSet
Ligature: 0 0 'liga' r uni030C
EndChar
StartChar: scedilla
Encoding: 385 351 279
Width: 440
Flags: W
HStem: -251 55<214 230> -106 55<221 231> -13 122<216 231> 445 122<223 231>
VStem: 39 133<398 406> 262 58<-156 -148> 287 133<161 176>
Fore
216 -13 m 1xfa
 200 -58 l 1
 213 -53 220 -51 229 -51 c 0
 278 -51 320 -97 320 -152 c 0
 320 -211 281 -251 224 -251 c 0
 173 -251 132 -216 124 -166 c 1
 185 -166 l 1
 194 -186 206 -196 223 -196 c 0
 244 -196 262 -175 262 -150 c 0xfc
 262 -126 245 -106 223 -106 c 0
 209 -106 199 -113 185 -133 c 1
 133 -107 l 1
 167 -6 l 1
 75 17 26 79 19 176 c 1
 153 176 l 1
 166 129 188 109 227 109 c 0
 261 109 287 132 287 163 c 0xfa
 287 181 278 196 262 206 c 0xfc
 248 215 244 217 193 234 c 0
 83 271 39 317 39 398 c 0
 39 493 120 567 223 567 c 0
 278 567 330 545 365 506 c 0
 392 476 403 448 405 401 c 1
 275 401 l 1
 269 430 251 445 223 445 c 0
 194 445 172 425 172 398 c 0
 172 382 182 369 199 361 c 0
 212 355 212 355 266 338 c 0
 378 304 420 260 420 176 c 0
 420 67 334 -12 216 -13 c 1xfa
EndSplineSet
Ligature: 0 0 'liga' s uni0327
EndChar
StartChar: gcommaaccent
Encoding: 386 291 280
Width: 660
Flags: W
HStem: -221 117<303 351> -13 122<300 326> 445 122<300 329>
VStem: 30 134<258 292> 478 133<258 554>
DStem: 330 799 434 799 272 607 376 607
Fore
484 554 m 1
 611 554 l 1
 611 105 l 2
 611 -1 594 -69 555 -120 c 0
 503 -186 424 -221 324 -221 c 0
 188 -221 84 -156 39 -45 c 1
 190 -45 l 1
 229 -88 267 -104 329 -104 c 0
 428 -104 479 -46 484 73 c 1
 432 12 380 -13 302 -13 c 0
 144 -13 30 110 30 281 c 0
 30 445 146 567 303 567 c 0
 383 567 443 540 484 484 c 1
 484 554 l 1
318 445 m 0
 225 445 164 377 164 275 c 0
 164 174 225 109 320 109 c 0
 415 109 478 175 478 275 c 0
 478 376 413 445 318 445 c 0
272 607 m 1
 330 799 l 1
 434 799 l 1
 376 607 l 1
 272 607 l 1
EndSplineSet
Ligature: 0 0 'liga' g uni0327
EndChar
StartChar: iogonek
Encoding: 387 303 281
Width: 240
Flags: W
HStem: -204 81<147 172> -20 20G<54 117> 534 20G<54 187> 614 125<54 187>
VStem: 54 133<-1 554 614 739>
Fore
187 554 m 1
 187 0 l 1
 136 -37 122 -54 122 -81 c 0
 122 -105 143 -123 172 -123 c 0
 184 -123 193 -121 213 -113 c 1
 213 -190 l 1
 191 -199 169 -204 147 -204 c 0
 78 -204 31 -164 31 -105 c 0
 31 -62 59 -27 117 0 c 1
 54 0 l 1
 54 554 l 1
 187 554 l 1
54 614 m 1
 54 739 l 1
 187 739 l 1
 187 614 l 1
 54 614 l 1
EndSplineSet
Ligature: 0 0 'liga' i uni0328
EndChar
StartChar: Scommaaccent
Encoding: 388 536 282
Width: 520
Flags: W
HStem: -13 132<238.492 271> 620 132<241.327 262>
VStem: 41 138<538 556> 357 136<202 224>
DStem: 214 -53 318 -53 156 -245 260 -245
Fore
14 211 m 1
 157 211 l 1
 163 149 196 119 257 119 c 0
 316 119 357 156 357 209 c 0
 357 240 345 266 323 284 c 0
 300 301 294 304 195 341 c 0
 96 378 41 449 41 542 c 0
 41 659 137 752 256 752 c 0
 325 752 389 723 429 673 c 0
 459 636 472 598 475 542 c 1
 333 542 l 1
 329 592 301 620 255 620 c 0
 210 620 179 589 179 545 c 0
 179 518 193 495 220 478 c 0
 230 472 232 471 302 445 c 0
 374 418 398 405 427 378 c 0
 470 338 493 285 493 224 c 0
 493 90 390 -13 257 -13 c 0
 179 -13 106 20 62 77 c 0
 32 116 19 153 14 211 c 1
156 -245 m 1
 214 -53 l 1
 318 -53 l 1
 260 -245 l 1
 156 -245 l 1
EndSplineSet
Ligature: 0 0 'liga' S uni0326
EndChar
StartChar: Eth
Encoding: 389 208 283
Width: 742
Flags: W
HStem: 0 21G<110 282> 315 107<14 110 247 401> 608 131<110 319>
VStem: 110 137<0 315 422 608> 564 138<351 385>
Fore
110 0 m 1
 110 315 l 1
 14 315 l 1
 14 422 l 1
 110 422 l 1
 110 739 l 1
 279 739 l 2
 395 739 483 721 541 686 c 0
 644 624 702 508 702 367 c 0
 702 218 635 97 521 41 c 0
 461 11 395 0 282 0 c 2
 110 0 l 1
247 131 m 1
 277 131 l 2
 359 131 416 141 457 164 c 0
 523 200 564 278 564 368 c 0
 564 462 521 542 451 578 c 0
 408 600 362 608 274 608 c 2
 247 608 l 1
 247 422 l 1
 401 422 l 1
 401 315 l 1
 247 315 l 1
 247 131 l 1
EndSplineSet
EndChar
StartChar: Dcroat
Encoding: 390 272 284
Width: 742
Flags: W
HStem: 0 21G<110 282> 315 107<14 110 247 401> 608 131<110 319>
VStem: 110 137<0 315 422 608> 564 138<351 385>
Fore
110 0 m 1
 110 315 l 1
 14 315 l 1
 14 422 l 1
 110 422 l 1
 110 739 l 1
 279 739 l 2
 395 739 483 721 541 686 c 0
 644 624 702 508 702 367 c 0
 702 218 635 97 521 41 c 0
 461 11 395 0 282 0 c 2
 110 0 l 1
247 131 m 1
 277 131 l 2
 359 131 416 141 457 164 c 0
 523 200 564 278 564 368 c 0
 564 462 521 542 451 578 c 0
 408 600 362 608 274 608 c 2
 247 608 l 1
 247 422 l 1
 401 422 l 1
 401 315 l 1
 247 315 l 1
 247 131 l 1
EndSplineSet
EndChar
StartChar: Thorn
Encoding: 391 222 285
Width: 560
Flags: W
HStem: 0 21G<68 205> 719 20G<68 205>
VStem: 68 137<0 149 0 477 0 739> 402 138<367 385>
Fore
68 0 m 1
 68 739 l 1
 205 739 l 1
 205 608 l 1
 251 608 l 2
 349 608 398 599 440 574 c 0
 504 535 540 465 540 380 c 0
 540 294 503 220 443 182 c 0
 402 157 354 149 249 149 c 2
 205 149 l 1
 205 0 l 1
 68 0 l 1
205 280 m 1
 245 280 l 2
 299 280 336 286 357 297 c 0
 386 313 402 341 402 377 c 0
 402 424 378 459 338 470 c 0
 317 475 296 477 251 477 c 2
 205 477 l 1
 205 280 l 1
EndSplineSet
EndChar
StartChar: dcroat
Encoding: 392 273 286
Width: 660
Flags: W
HStem: -13 122<308 331> 452 122<307 332> 602 87<354 480 613 660> 719 20G<480 613>
VStem: 30 134<274 292> 491 122<0 602>
Fore
613 689 m 1
 660 689 l 1
 660 602 l 1
 613 602 l 1
 613 0 l 1
 491 0 l 1
 491 72 l 1
 437 12 383 -13 308 -13 c 0
 151 -13 30 114 30 278 c 0
 30 444 152 574 308 574 c 0
 377 574 441 548 480 504 c 1
 480 602 l 1
 354 602 l 1
 354 689 l 1
 480 689 l 1
 480 739 l 1
 613 739 l 1
 613 689 l 1
326 452 m 0
 235 452 164 378 164 284 c 0
 164 186 236 109 329 109 c 0
 419 109 490 184 490 280 c 0
 490 378 419 452 326 452 c 0
EndSplineSet
EndChar
StartChar: eth
Encoding: 393 240 287
Width: 640
Flags: W
HStem: -13 122<325 339> 445 111<298 324>
VStem: 30 134<259.252 292> 485 134<258 292>
Fore
169 721 m 1
 272 756 l 1
 281 750 286 746 288 745 c 2
 318 722 l 1
 321 721 327 716 337 709 c 1
 424 749 l 1
 465 700 l 1
 387 665 l 1
 458 604 483 579 516 538 c 0
 585 452 619 369 619 284 c 0
 619 117 490 -13 325 -13 c 0
 163 -13 30 118 30 278 c 0
 30 378 86 475 171 522 c 0
 206 541 261 556 298 556 c 0
 314 556 338 553 365 547 c 1
 337 575 l 2
 311 601 309 603 288 621 c 1
 201 581 l 1
 161 627 l 1
 239 664 l 1
 195 701 191 704 169 721 c 1
324 445 m 0
 237 445 164 370 164 279 c 0
 164 184 235 109 325 109 c 0
 413 109 485 184 485 277 c 0
 485 369 413 445 324 445 c 0
EndSplineSet
EndChar
StartChar: thorn
Encoding: 394 254 288
Width: 660
Flags: W
HStem: -13 122<339 359> 445 122<339 359> 719 20G<54 187>
VStem: 54 125<-185 296> 54 133<-185 59 -185 739> 500 134<277 296>
Fore
54 739 m 1xec
 187 739 l 1
 187 495 l 1
 230 542 289 567 359 567 c 0
 519 567 634 445 634 277 c 0
 634 108 519 -13 359 -13 c 0
 289 -13 230 12 187 59 c 1
 187 -185 l 1xec
 54 -185 l 1xf4
 54 739 l 1xec
341 445 m 0
 249 445 179 373 179 279 c 0xf4
 179 181 248 109 341 109 c 0
 431 109 500 182 500 277 c 0
 500 372 431 445 341 445 c 0
EndSplineSet
EndChar
StartChar: Euro
Encoding: 395 8364 289
Width: 560
Flags: W
HStem: -11 116<363 384> 260 88<-9 69 195 433> 393 88<-10 62 202 484> 639 111<363 384>
Fore
-33 393 m 1
 -9 481 l 1
 70 481 l 1
 87 554 100 590 124 626 c 0
 180 708 265 750 376 750 c 0
 458 750 512 734 595 684 c 1
 556 581 l 1
 487 622 431 639 373 639 c 0
 324 639 272 616 246 582 c 0
 226 557 217 535 202 481 c 1
 517 481 l 1
 484 393 l 1
 195 393 l 1
 195 348 l 1
 467 348 l 1
 433 260 l 1
 200 260 l 1
 209 224 218 202 235 178 c 0
 265 133 321 105 379 105 c 0
 415 105 452 115 525 145 c 1
 525 22 l 1
 466 -2 424 -11 365 -11 c 0
 308 -11 248 6 200 35 c 0
 131 78 96 138 69 260 c 1
 -32 260 l 1
 -8 348 l 1
 61 348 l 1
 61 367 l 2
 61 371 61 382 62 393 c 1
 -33 393 l 1
EndSplineSet
EndChar
StartChar: onesuperior
Encoding: 396 185 290
Width: 336
Flags: W
HStem: 719 20G<94 241>
VStem: 153 88<296 739>
Fore
153 296 m 1
 153 659 l 1
 94 659 l 1
 94 739 l 1
 241 739 l 1
 241 296 l 1
 153 296 l 1
EndSplineSet
EndChar
StartChar: twosuperior
Encoding: 397 178 291
Width: 336
Flags: W
HStem: 296 80<143 324> 668 79<156.447 183>
VStem: 10 87<582 597.295> 238 88<599 605>
DStem: 183 518 237 451 13 370 143 376
Fore
13 296 m 1
 13 370 l 1
 183 518 l 1
 224 555 238 576 238 603 c 0
 238 640 209 668 170 668 c 0
 125 668 98 637 97 582 c 1
 10 582 l 1
 10 628 17 654 35 682 c 0
 63 722 113 747 169 747 c 0
 259 747 326 684 326 601 c 0
 326 549 296 498 237 451 c 2
 143 376 l 1
 324 376 l 1
 324 296 l 1
 13 296 l 1
EndSplineSet
EndChar
StartChar: threesuperior
Encoding: 398 179 292
Width: 336
Flags: W
HStem: 288 79<170 181> 506 82<128 151> 668 78<163 172>
VStem: 211 88<623 632> 244 87<431 441>
Fore
128 506 m 1xe8
 128 588 l 1
 189 589 211 600 211 630 c 0
 211 652 193 668 168 668 c 0
 143 668 131 657 126 628 c 1
 37 628 l 1
 41 667 49 687 69 708 c 1
 94 732 129 746 167 746 c 0
 243 746 299 695 299 625 c 0xf0
 299 593 287 568 265 551 c 1
 307 531 331 491 331 439 c 0
 331 352 263 288 170 288 c 0
 76 288 9 348 4 435 c 1
 92 435 l 1
 98 393 127 367 170 367 c 0
 212 367 244 396 244 436 c 0
 244 479 207 506 149 506 c 2
 128 506 l 1xe8
EndSplineSet
EndChar
StartChar: degree
Encoding: 399 176 293
Width: 400
Flags: W
HStem: 380 57<200 211> 629 57<193 211>
VStem: 50 56<523 541> 293 57<533 541>
Fore
204 686 m 0
 286 686 350 619 350 533 c 0
 350 447 284 380 200 380 c 0
 116 380 50 448 50 534 c 0
 50 619 118 686 204 686 c 0
202 629 m 0
 148 629 106 586 106 533 c 0
 106 480 149 437 200 437 c 0
 252 437 293 479 293 533 c 0
 293 586 252 629 202 629 c 0
EndSplineSet
EndChar
StartChar: minus
Encoding: 400 8722 294
Width: 600
Flags: W
HStem: 312 118<51 555>
Fore
555 430 m 1
 555 312 l 1
 51 312 l 1
 51 430 l 1
 555 430 l 1
EndSplineSet
EndChar
StartChar: multiply
Encoding: 401 215 295
Width: 600
Flags: W
DStem: 51 536 133 618 221 366 303 448 221 366 303 284 51 196 133 114 303 284 385 366 473 114 555 196 473 618 555 536 303 448 385 366
Fore
385 366 m 1
 555 196 l 1
 473 114 l 1
 303 284 l 1
 133 114 l 1
 51 196 l 1
 221 366 l 1
 51 536 l 1
 133 618 l 1
 303 448 l 1
 473 618 l 1
 555 536 l 1
 385 366 l 1
EndSplineSet
EndChar
StartChar: divide
Encoding: 402 247 296
Width: 600
Flags: W
HStem: 73 131<235 370> 312 118<51 555> 538 131<235 370>
VStem: 235 135<73 204 538 669>
CounterMasks: 1 00
Fore
370 538 m 1
 235 538 l 1
 235 669 l 1
 370 669 l 1
 370 538 l 1
370 73 m 1
 235 73 l 1
 235 204 l 1
 370 204 l 1
 370 73 l 1
555 430 m 1
 555 312 l 1
 51 312 l 1
 51 430 l 1
 555 430 l 1
EndSplineSet
EndChar
StartChar: trademark
Encoding: 403 8482 297
Width: 1000
Flags: W
HStem: 664 75<71 207 71 424>
VStem: 207 81<345 664> 454 81<345 631> 848 81<345 739>
DStem: 535 631 575 739 663 345 689 482 811 739 848 632 689 482 716 345
Fore
929 739 m 1
 929 345 l 1
 848 345 l 1
 848 632 l 1
 716 345 l 1
 663 345 l 1
 535 631 l 1
 535 345 l 1
 454 345 l 1
 454 739 l 1
 575 739 l 1
 689 482 l 1
 811 739 l 1
 929 739 l 1
424 739 m 1
 424 664 l 1
 288 664 l 1
 288 345 l 1
 207 345 l 1
 207 664 l 1
 71 664 l 1
 71 739 l 1
 424 739 l 1
EndSplineSet
Ligature: 0 1 'liga' T M
EndChar
StartChar: plusminus
Encoding: 404 177 298
Width: 600
Flags: W
HStem: 0 118<51 555> 340 118<51 243 363 555>
VStem: 243 120<175 340 458 653>
Fore
243 458 m 1
 243 653 l 1
 363 653 l 1
 363 458 l 1
 555 458 l 1
 555 340 l 1
 363 340 l 1
 363 175 l 1
 243 175 l 1
 243 340 l 1
 51 340 l 1
 51 458 l 1
 243 458 l 1
555 118 m 1
 555 0 l 1
 51 0 l 1
 51 118 l 1
 555 118 l 1
EndSplineSet
EndChar
StartChar: onehalf
Encoding: 405 189 299
Width: 840
Flags: W
HStem: 0 80<647 828> 372 79<669 687> 719 20G<94 241 505 600>
VStem: 153 88<296 739> 514 87<286 301.295> 742 88<295 309>
DStem: 505 739 600 739 199 0 294 0 687 222 741 155 517 74 647 80
Fore
199 0 m 1
 505 739 l 1
 600 739 l 1
 294 0 l 1
 199 0 l 1
153 296 m 1
 153 659 l 1
 94 659 l 1
 94 739 l 1
 241 739 l 1
 241 296 l 1
 153 296 l 1
517 0 m 1
 517 74 l 1
 687 222 l 1
 728 259 742 280 742 307 c 0
 742 344 713 372 674 372 c 0
 629 372 602 341 601 286 c 1
 514 286 l 1
 514 333 521 358 539 386 c 0
 567 426 617 451 673 451 c 0
 763 451 830 388 830 305 c 0
 830 253 800 202 741 155 c 2
 647 80 l 1
 828 80 l 1
 828 0 l 1
 517 0 l 1
EndSplineSet
Ligature: 0 1 'frac' one slash two
Ligature: 0 1 'frac' one fraction two
EndChar
StartChar: onequarter
Encoding: 406 188 300
Width: 840
Flags: W
HStem: 0 21G<220 315 700 788> 66 76<598 700 788 836> 719 20G<94 241 526 621>
VStem: 153 88<296 739> 700 88<0 66 142 443>
DStem: 526 739 621 739 220 0 315 0 714 443 700 296 506 133 598 142
Fore
220 0 m 1
 526 739 l 1
 621 739 l 1
 315 0 l 1
 220 0 l 1
506 133 m 1
 714 443 l 1
 788 443 l 1
 788 142 l 1
 836 142 l 1
 836 66 l 1
 788 66 l 1
 788 0 l 1
 700 0 l 1
 700 66 l 1
 506 66 l 1
 506 133 l 1
700 142 m 1
 700 296 l 1
 598 142 l 1
 700 142 l 1
153 296 m 1
 153 659 l 1
 94 659 l 1
 94 739 l 1
 241 739 l 1
 241 296 l 1
 153 296 l 1
EndSplineSet
Ligature: 0 1 'frac' one slash four
Ligature: 0 1 'frac' one fraction four
EndChar
StartChar: threequarters
Encoding: 407 190 301
Width: 840
Flags: W
HStem: 0 21G<250 345 700 788> 66 76<598 700 788 836> 288 79<170 181> 506 82<128 151> 668 78<163 172>
VStem: 211 88<623 632> 244 87<431 445> 700 88<0 66 142 443>
DStem: 556 739 651 739 250 0 345 0 714 443 700 296 506 133 598 142
Fore
250 0 m 1xf9
 556 739 l 1
 651 739 l 1
 345 0 l 1
 250 0 l 1xf9
506 133 m 1
 714 443 l 1
 788 443 l 1
 788 142 l 1
 836 142 l 1
 836 66 l 1
 788 66 l 1
 788 0 l 1
 700 0 l 1
 700 66 l 1
 506 66 l 1
 506 133 l 1
700 142 m 1
 700 296 l 1
 598 142 l 1
 700 142 l 1
128 506 m 1
 128 588 l 1
 189 589 211 600 211 630 c 0
 211 652 193 668 168 668 c 0
 143 668 131 657 126 628 c 1
 37 628 l 1
 41 667 49 687 69 708 c 1
 94 732 129 746 167 746 c 0
 243 746 299 695 299 625 c 0xfd
 299 593 287 568 265 551 c 1
 307 531 331 491 331 439 c 0
 331 352 263 288 170 288 c 0
 76 288 9 348 4 435 c 1
 92 435 l 1
 98 393 127 367 170 367 c 0
 212 367 244 396 244 436 c 0xfb
 244 479 207 506 149 506 c 2
 128 506 l 1
EndSplineSet
Ligature: 0 1 'frac' three slash four
Ligature: 0 1 'frac' three fraction four
EndChar
StartChar: commaaccent
Encoding: 408 63171 302
Width: 351
Flags: W
DStem: 129 -53 233 -53 71 -245 175 -245
Fore
71 -245 m 1
 129 -53 l 1
 233 -53 l 1
 175 -245 l 1
 71 -245 l 1
EndSplineSet
EndChar
StartChar: copyright
Encoding: 409 169 303
Width: 740
Flags: W
HStem: -13 80<355 389> 157 93<371 389> 495 93<377 389> 675 77<373 389>
VStem: -12 80<370 388> 161 105<363 388> 679 80<354 388>
Fore
477 320 m 1
 588 320 l 1
 564 222 480 157 379 157 c 0
 258 157 161 253 161 373 c 0
 161 493 256 588 377 588 c 0
 480 588 572 515 588 422 c 1
 477 422 l 1
 461 467 422 495 377 495 c 0
 314 495 266 442 266 374 c 0
 266 304 315 250 377 250 c 0
 421 250 455 274 477 320 c 1
373 752 m 0
 589 752 759 581 759 365 c 0
 759 159 584 -13 374 -13 c 0
 161 -13 -12 159 -12 370 c 0
 -12 580 161 752 373 752 c 0
373 675 m 0
 205 675 68 538 68 370 c 0
 68 203 205 67 373 67 c 0
 540 67 679 203 679 366 c 0
 679 539 544 675 373 675 c 0
EndSplineSet
EndChar
StartChar: registered
Encoding: 410 174 304
Width: 740
Flags: W
HStem: -13 80<355 389> 486 93<229 377> 675 77<373 389>
VStem: -12 80<370 388> 229 101<166 300 166 486> 436 101<418 439> 679 80<354 388>
Fore
229 166 m 1
 229 579 l 1
 360 579 l 2
 429 579 458 572 486 549 c 0
 518 524 537 481 537 437 c 0
 537 369 497 318 435 307 c 1
 547 166 l 1
 426 166 l 1
 330 300 l 1
 330 166 l 1
 229 166 l 1
330 372 m 1
 367 372 l 2
 411 372 436 393 436 430 c 0
 436 466 412 486 368 486 c 2
 330 486 l 1
 330 372 l 1
373 752 m 0
 589 752 759 581 759 365 c 0
 759 159 584 -13 374 -13 c 0
 161 -13 -12 159 -12 370 c 0
 -12 580 161 752 373 752 c 0
373 675 m 0
 205 675 68 538 68 370 c 0
 68 203 205 67 373 67 c 0
 540 67 679 203 679 366 c 0
 679 539 544 675 373 675 c 0
EndSplineSet
EndChar
StartChar: lozenge
Encoding: 411 9674 305
Width: 494
Flags: W
HStem: 0 21G<209 269> 720 20G<214 277>
DStem: 18 377 111 376 209 0 240 117 214 740 245 625 18 377 111 376 245 625 277 740 373 374 466 374 373 374 466 374 240 117 269 0
Fore
209 0 m 1
 18 377 l 1
 214 740 l 1
 277 740 l 1
 466 374 l 1
 269 0 l 1
 209 0 l 1
240 117 m 1
 373 374 l 1
 245 625 l 1
 111 376 l 1
 240 117 l 1
EndSplineSet
EndChar
StartChar: Delta
Encoding: 412 8710 306
Width: 612
Flags: W
HStem: 0 51<77 608>
DStem: 290 509 327 688 479 51 608 0 327 688 290 509 6 0 77 51
Fore
6 0 m 1
 327 688 l 1
 608 0 l 1
 6 0 l 1
77 51 m 1
 479 51 l 1
 290 509 l 1
 77 51 l 1
EndSplineSet
EndChar
StartChar: notequal
Encoding: 413 8800 307
Width: 600
Flags: W
HStem: 210 118<51 121 348 555> 405 118<51 258 485 555>
Fore
402 405 m 1
 348 328 l 1
 555 328 l 1
 555 210 l 1
 265 210 l 1
 189 101 l 1
 93 169 l 1
 121 210 l 1
 51 210 l 1
 51 328 l 1
 204 328 l 1
 258 405 l 1
 51 405 l 1
 51 523 l 1
 341 523 l 1
 417 632 l 1
 513 564 l 1
 485 523 l 1
 555 523 l 1
 555 405 l 1
 402 405 l 1
EndSplineSet
Ligature: 0 1 'liga' equal uni0338
EndChar
StartChar: radical
Encoding: 414 8730 308
Width: 549
Flags: W
DStem: 109 425 169 555 334 -35 338 212 452 917 542 904 338 212 390 -35
Fore
334 -35 m 1
 109 425 l 1
 14 378 l 1
 -25 461 l 1
 169 555 l 1
 338 212 l 1
 452 917 l 1
 542 904 l 1
 390 -35 l 1
 334 -35 l 1
EndSplineSet
EndChar
StartChar: lessequal
Encoding: 415 8804 309
Width: 600
Flags: W
HStem: 0 118<45 549>
DStem: 45 385 226 431 549 150 549 280 549 711 549 581 45 476 226 431
Fore
45 476 m 1
 549 711 l 1
 549 581 l 1
 226 431 l 1
 549 280 l 1
 549 150 l 1
 45 385 l 1
 45 476 l 1
549 118 m 1
 549 0 l 1
 45 0 l 1
 45 118 l 1
 549 118 l 1
EndSplineSet
EndChar
StartChar: greaterequal
Encoding: 416 8805 310
Width: 600
Flags: W
HStem: 0 118<51 555>
DStem: 51 581 51 711 374 431 555 476 374 431 555 385 51 280 51 150
Fore
555 476 m 1
 555 385 l 1
 51 150 l 1
 51 280 l 1
 374 431 l 1
 51 581 l 1
 51 711 l 1
 555 476 l 1
555 118 m 1
 555 0 l 1
 51 0 l 1
 51 118 l 1
 555 118 l 1
EndSplineSet
EndChar
StartChar: logicalnot
Encoding: 417 172 311
Width: 600
Flags: W
HStem: 359 114<51 441>
VStem: 441 114<182 473>
Fore
51 473 m 1
 555 473 l 1
 555 182 l 1
 441 182 l 1
 441 359 l 1
 51 359 l 1
 51 473 l 1
EndSplineSet
EndChar
StartChar: summation
Encoding: 418 8721 312
Width: 713
Flags: W
HStem: -123 112<163 641> 587 165<23 632> 711 41<23 479>
DStem: 23 752 176 711 256 285 364 341 256 285 364 341 14 -123 163 -11
Fore
176 711 m 1xa0
 364 341 l 1
 163 -11 l 1
 491 -11 l 2
 607 -11 637 6 669 87 c 1
 695 87 l 1
 641 -123 l 1
 14 -123 l 1
 256 285 l 1
 23 752 l 1
 622 752 l 1
 632 587 l 1
 606 587 l 1xc0
 589 688 559 711 444 711 c 2
 176 711 l 1xa0
EndSplineSet
EndChar
StartChar: partialdiff
Encoding: 419 8706 313
Width: 494
Flags: W
HStem: -10 31<193 215> 367 45<221 261> 706 47<195 219>
VStem: 26 87<159 184> 379 83<403 448>
Fore
107 674 m 1
 66 725 l 1
 121 745 156 753 195 753 c 0
 347 753 462 602 462 403 c 0
 462 286 428 152 383 84 c 0
 341 23 282 -10 213 -10 c 0
 109 -10 26 76 26 184 c 0
 26 246 51 309 95 355 c 0
 131 394 172 412 221 412 c 0
 272 412 308 396 372 346 c 1
 377 396 379 419 379 448 c 0
 379 611 320 706 219 706 c 0
 185 706 151 696 107 674 c 1
366 312 m 1
 362 316 362 316 357 320 c 1
 325 353 295 367 261 367 c 0
 180 367 113 273 113 159 c 0
 113 74 147 21 201 21 c 0
 245 21 288 54 314 107 c 0
 340 158 350 201 366 312 c 1
EndSplineSet
EndChar
StartChar: brokenbar
Encoding: 420 166 314
Width: 600
Flags: W
HStem: 0 21G<243 362> 719 20G<243 362>
VStem: 243 119<0 302 437 739>
Fore
362 739 m 1
 362 437 l 1
 243 437 l 1
 243 739 l 1
 362 739 l 1
362 302 m 1
 362 0 l 1
 243 0 l 1
 243 302 l 1
 362 302 l 1
EndSplineSet
EndChar
StartChar: mu
Encoding: 421 181 315
Width: 576
Flags: W
HStem: -13 122<293 311> 534 20G<54 187 414 547>
VStem: 54 133<-185 52 -185 554> 424 123<0 554>
Fore
187 52 m 1
 187 -185 l 1
 54 -185 l 1
 54 554 l 1
 187 554 l 1
 187 293 l 2
 187 212 190 194 209 164 c 0
 232 129 267 109 306 109 c 0
 344 109 378 128 396 160 c 0
 409 184 414 220 414 293 c 2
 414 554 l 1
 547 554 l 1
 547 0 l 1
 424 0 l 1
 424 53 l 1
 384 5 351 -13 300 -13 c 0
 254 -13 220 6 187 52 c 1
EndSplineSet
EndChar
StartChar: afii10017
Encoding: 422 1040 316
Width: 740
Flags: W
HStem: 0 21G<7 158 582 733> 191 131<290 503> 719 20G<315 423>
DStem: 315 739 240 191 7 0 158 0 503 191 423 739 582 0 733 0
Fore
7 0 m 1
 315 739 l 1
 423 739 l 1
 733 0 l 1
 582 0 l 1
 503 191 l 1
 240 191 l 1
 158 0 l 1
 7 0 l 1
290 322 m 1
 448 322 l 1
 369 546 l 1
 290 322 l 1
EndSplineSet
EndChar
StartChar: afii10018
Encoding: 423 1041 317
Width: 692
Flags: W
HStem: 0 131<205 341> 384 131<205 341> 609 130<68 576>
VStem: 68 137<0 384 0 609> 504 136<262 273>
Fore
205 609 m 1
 205 515 l 1
 315 515 l 18
 507 515 640 442 640 262 c 4
 640 85 531 0 315 0 c 2
 68 0 l 1
 68 739 l 1
 576 739 l 1
 576 609 l 1
 205 609 l 1
205 131 m 1
 321 131 l 26
 409 131 504 174 504 262 c 20
 504 343 409 384 324 384 c 26
 205 384 l 1
 205 131 l 1
EndSplineSet
EndChar
StartChar: afii10019
Encoding: 424 1042 318
Width: 610
Flags: W
HStem: 0 21G<68 301> 605 134<68 309>
VStem: 68 137<0 320 0 605> 396 137<527 544> 439 138<207 224>
Fore
68 0 m 5xe8
 68 739 l 5
 301 739 l 6
 448 739 533 678 533 542 c 4xf0
 533 473 510 414 463 394 c 5
 510 380 577 336 577 220 c 4
 577 76 479 0 301 0 c 6
 68 0 l 5xe8
205 131 m 5
 301 131 l 6
 397 131 439 158 439 222 c 4xe8
 439 288 396 320 301 320 c 6
 205 320 l 5
 205 131 l 5
205 454 m 5
 301 454 l 6
 354 454 396 477 396 530 c 4xf0
 396 583 354 605 301 605 c 6
 205 605 l 5
 205 454 l 5
EndSplineSet
EndChar
StartChar: afii10020
Encoding: 425 1043 319
Width: 517
Flags: W
HStem: 0 21G<68 205> 608 131<68 515>
VStem: 68 137<0 608>
Fore
68 0 m 1
 68 739 l 1
 515 739 l 1
 515 608 l 1
 205 608 l 1
 205 0 l 1
 68 0 l 1
EndSplineSet
EndChar
StartChar: afii10021
Encoding: 426 1044 320
Width: 823
Flags: W
HStem: 0 131<259 664> 719 20G<354 466>
VStem: 37 122<-130 0> 664 122<-130 132>
Fore
664 -130 m 1
 664 0 l 1
 159 0 l 1
 159 -130 l 1
 37 -130 l 1
 37 131 l 1
 119 131 l 1
 354 739 l 1
 466 739 l 1
 704 132 l 1
 786 132 l 1
 786 -130 l 1
 664 -130 l 1
564 131 m 1
 411 562 l 1
 259 131 l 1
 564 131 l 1
EndSplineSet
EndChar
StartChar: afii10022
Encoding: 427 1045 321
Width: 589
Flags: W
HStem: 0 131<205 535> 303 131<205 524> 608 131<68 535>
VStem: 68 137<0 303 0 608>
Fore
68 0 m 1
 68 739 l 1
 535 739 l 5
 535 608 l 5
 205 608 l 1
 205 434 l 1
 524 434 l 5
 524 303 l 5
 205 303 l 1
 205 131 l 1
 535 131 l 5
 535 0 l 5
 68 0 l 1
EndSplineSet
EndChar
StartChar: afii10024
Encoding: 429 1046 323
Width: 939
Flags: W
HStem: 0 21G<15 172 401 538 767 924> 719 20G<15 172 401 538 767 924>
VStem: 401 137<0 325 420 739>
DStem: 15 739 172 739 285 376 401 420 285 376 401 325 15 0 172 0 538 325 654 376 767 0 924 0 767 739 924 739 538 420 654 376
Fore
401 0 m 1
 401 325 l 1
 172 0 l 1
 15 0 l 1
 285 376 l 1
 15 739 l 1
 172 739 l 1
 401 420 l 1
 401 739 l 1
 538 739 l 1
 538 420 l 1
 767 739 l 1
 924 739 l 1
 654 376 l 1
 924 0 l 1
 767 0 l 1
 538 325 l 1
 538 0 l 1
 401 0 l 1
EndSplineSet
EndChar
StartChar: afii10025
Encoding: 430 1047 324
Width: 708
Flags: W
HStem: -13 131<348 382> 615 137<348 382>
VStem: 497 137<530 552> 540 138<210 227>
Fore
29 214 m 1xd0
 165 214 l 1
 182 178 236 118 362 118 c 0
 476 118 540 157 540 225 c 0xd0
 540 291 487 319 402 319 c 2
 289 320 l 1
 289 461 l 1
 401 461 l 2
 464 461 497 487 497 540 c 0
 497 584 430 615 365 615 c 0
 252 615 216 578 195 539 c 1
 58 539 l 1
 58 539 106 752 358 752 c 0
 514 752 634 665 634 552 c 0xe0
 634 483 612 409 552 388 c 1
 626 376 678 306 678 215 c 0
 678 102 598 -13 367 -13 c 0
 100 -13 29 214 29 214 c 1xd0
EndSplineSet
EndChar
StartChar: afii10026
Encoding: 431 1048 325
Width: 735
Flags: W
HStem: 0 21G<68 221 530 667> 719 20G<68 205 511 667>
VStem: 68 137<0 739> 530 137<0 739>
DStem: 511 739 530 537 205 201 221 0
Fore
667 0 m 1
 530 0 l 1
 530 537 l 1
 221 0 l 1
 68 0 l 1
 68 739 l 1
 205 739 l 1
 205 201 l 1
 511 739 l 1
 667 739 l 1
 667 0 l 1
EndSplineSet
EndChar
StartChar: afii10027
Encoding: 432 1049 326
Width: 735
Flags: W
HStem: 0 21G<68 221 530 667> 719 20G<68 205 511 667> 755 96<354 356>
VStem: 68 137<0 739> 530 137<0 739>
DStem: 511 739 530 537 205 201 221 0
Fore
188 894 m 1
 286 894 l 1
 298 865 321 851 354 851 c 0
 389 851 411 866 416 894 c 1
 518 894 l 1
 515 811 449 755 354 755 c 0
 255 755 194 806 188 894 c 1
667 0 m 1
 530 0 l 1
 530 537 l 1
 221 0 l 1
 68 0 l 1
 68 739 l 1
 205 739 l 1
 205 201 l 1
 511 739 l 1
 667 739 l 1
 667 0 l 1
EndSplineSet
LCarets: 0 65535 '    ' 1 0 
Ligature: 0 1 'liga' afii10026 uni0306
EndChar
StartChar: afii10028
Encoding: 433 1050 327
Width: 606
Flags: W
HStem: 0 21G<68 205 434 591> 719 20G<68 205 434 591>
VStem: 68 137<0 325 0 739>
DStem: 205 325 321 376 434 0 591 0 434 739 591 739 205 420 321 376
Fore
68 0 m 1
 68 739 l 1
 205 739 l 1
 205 420 l 1
 434 739 l 1
 591 739 l 1
 321 376 l 1
 591 0 l 5
 434 0 l 1
 205 325 l 1
 205 0 l 1
 68 0 l 1
EndSplineSet
EndChar
StartChar: afii10029
Encoding: 434 1051 328
Width: 700
Flags: W
HStem: 0 21G<7 142 569 693> 719 20G<293 405>
DStem: 293 739 350 562 7 0 142 0 350 562 405 739 569 0 693 0
Fore
570 0 m 1,1,-1
405 739 m 1,0,-1
 693 0 l 1,1,-1
 569 0 l 1,2,-1
 350 562 l 1,3,-1
 142 0 l 1,4,-1
 7 0 l 1,5,-1
 293 739 l 1,6,-1
 405 739 l 1,0,-1
EndSplineSet
EndChar
StartChar: afii10030
Encoding: 435 1052 329
Width: 908
Flags: W
HStem: 0 21G<68 205 398 510 703 840> 719 20G<68 256 652 840>
VStem: 68 137<0 554> 703 137<0 739>
DStem: 205 554 256 739 398 0 455 179 652 739 703 554 455 179 510 0
Fore
68 0 m 1
 68 739 l 1
 256 739 l 1
 455 179 l 1
 652 739 l 1
 840 739 l 1
 840 0 l 1
 703 0 l 1
 703 554 l 1
 510 0 l 1
 398 0 l 1
 205 554 l 1
 205 0 l 1
 68 0 l 1
EndSplineSet
EndChar
StartChar: afii10031
Encoding: 436 1053 330
Width: 674
Flags: W
HStem: 0 21G<68 205 469 606> 310 131<205 469> 719 20G<68 205 469 606>
VStem: 68 137<0 310 0 739> 469 137<0 739>
Fore
68 0 m 1
 68 739 l 1
 205 739 l 1
 205 441 l 1
 469 441 l 1
 469 739 l 1
 606 739 l 1
 606 0 l 1
 469 0 l 1
 469 310 l 1
 205 310 l 1
 205 0 l 1
 68 0 l 1
EndSplineSet
EndChar
StartChar: afii10032
Encoding: 437 1054 331
Width: 850
Flags: W
HStem: -13 132<407 441> 620 132<407 441>
VStem: 40 138<369 388> 672 138<354 388>
Fore
430 752 m 0
 641 752 810 581 810 370 c 0
 810 154 644 -13 429 -13 c 0
 212 -13 40 156 40 369 c 0
 40 585 210 752 430 752 c 0
428 620 m 0
 286 620 178 512 178 369 c 0
 178 229 288 119 428 119 c 0
 568 119 672 226 672 368 c 0
 672 510 565 620 428 620 c 0
EndSplineSet
EndChar
StartChar: afii10033
Encoding: 438 1055 332
Width: 674
Flags: W
HStem: 0 21G<68 205 469 606> 608 131<68 469>
VStem: 68 137<0 608> 469 137<0 739>
Fore
68 0 m 1
 68 739 l 1
 606 739 l 1
 606 0 l 1
 469 0 l 1
 469 608 l 1
 205 608 l 1
 205 0 l 1
 68 0 l 1
EndSplineSet
EndChar
StartChar: afii10034
Encoding: 439 1056 333
Width: 572
Flags: W
HStem: 0 21G<68 205> 608 131<68 293>
VStem: 68 137<0 281 0 608> 402 138<495 513>
Fore
68 0 m 1
 68 739 l 1
 251 739 l 2
 349 739 398 730 440 705 c 0
 504 666 540 596 540 511 c 0
 540 426 503 351 443 314 c 0
 402 289 354 281 249 281 c 2
 205 281 l 1
 205 0 l 1
 68 0 l 1
205 412 m 1
 245 412 l 2
 298 412 336 418 357 429 c 0
 386 445 402 473 402 509 c 0
 402 555 378 590 338 601 c 0
 316 606 296 608 251 608 c 2
 205 608 l 1
 205 412 l 1
EndSplineSet
EndChar
StartChar: afii10035
Encoding: 440 1057 334
Width: 800
Flags: W
HStem: -13 132<407 441> 620 132<407 441>
VStem: 40 138<354 388>
Fore
609 206 m 1
 770 206 l 1
 712 71 580 -13 429 -13 c 0
 213 -13 40 159 40 372 c 0
 40 581 211 752 420 752 c 0
 510 752 597 722 665 667 c 0
 715 626 741 591 770 527 c 1
 617 527 l 1
 567 592 509 620 423 620 c 0
 348 620 284 592 239 539 c 0
 201 495 178 431 178 371 c 0
 178 233 290 119 426 119 c 0
 497 119 549 143 609 206 c 1
EndSplineSet
EndChar
StartChar: afii10036
Encoding: 441 1058 335
Width: 520
Flags: W
HStem: 0 21G<194 331> 608 131<7 194 7 518>
VStem: 194 137<0 608>
Fore
194 0 m 1
 194 608 l 1
 7 608 l 1
 7 739 l 1
 518 739 l 5
 518 608 l 5
 331 608 l 1
 331 0 l 1
 194 0 l 1
EndSplineSet
EndChar
StartChar: afii10037
Encoding: 442 1059 336
Width: 637
Flags: W
HStem: 0 21G<122 276> 719 20G<12 155 482 630>
DStem: 12 739 155 739 250 273 319 399 250 273 630 739 122 0 276 0 482 739 630 739 319 399 276 0
Fore
122 0 m 1
 250 273 l 1
 12 739 l 1
 155 739 l 1
 319 399 l 1
 482 739 l 1
 630 739 l 1
 276 0 l 1
 122 0 l 1
EndSplineSet
EndChar
StartChar: afii10038
Encoding: 443 1060 337
Width: 985
Flags: W
HStem: 0 133<428 428 565 587.797> 634 132<428 428 565 587.178>
VStem: 40 138<383 407> 428 137<-42 0 133 634 765 794> 807 138<373 391>
Fore
565 794 m 1
 565 766 l 1
 775 766 945 594 945 384 c 0
 945 169 779 0 565 0 c 1
 565 -42 l 1
 428 -42 l 1
 428 0 l 1
 212 0 40 171 40 383 c 0
 40 598 209 766 428 766 c 1
 428 794 l 1
 565 794 l 1
565 133 m 1
 704 133 807 241 807 382 c 0
 807 523 701 634 565 634 c 1
 565 133 l 1
428 133 m 1
 428 634 l 1
 286 634 178 526 178 383 c 0
 178 244 289 133 428 133 c 1
EndSplineSet
EndChar
StartChar: afii10039
Encoding: 444 1061 338
Width: 685
Flags: W
HStem: 0 21G<7 170 519 678> 719 20G<7 170 519 678>
DStem: 7 739 170 739 261 368 342 481 261 368 342 255 7 0 170 0 342 255 422 368 519 0 678 0 519 739 678 739 342 481 422 368
Fore
7 0 m 1
 261 368 l 1
 7 739 l 1
 170 739 l 1
 342 481 l 1
 519 739 l 1
 678 739 l 1
 422 368 l 1
 678 0 l 1
 519 0 l 1
 342 255 l 1
 170 0 l 1
 7 0 l 1
EndSplineSet
EndChar
StartChar: afii10040
Encoding: 445 1062 339
Width: 756
Flags: W
HStem: 0 131<204 626> 719 20G<68 205 469 606>
VStem: 68 137<0 739> 469 137<131 739> 626 122<-140 131>
Fore
68 739 m 1
 205 739 l 1
 205 131 l 1
 469 131 l 1
 469 739 l 1
 606 739 l 1
 606 131 l 1
 748 131 l 1
 748 -140 l 1
 626 -140 l 1
 626 0 l 1
 68 0 l 1
 68 739 l 1
EndSplineSet
EndChar
StartChar: afii10041
Encoding: 446 1063 340
Width: 654
Flags: W
HStem: 0 21G<451 588> 254 131<273 451> 719 20G<50 187 451 588>
VStem: 50 137<434 739> 451 137<0 739>
Fore
50 434 m 2
 50 739 l 1
 187 739 l 1
 187 489 l 2
 187 436 232 385 286 385 c 2
 451 385 l 1
 451 739 l 1
 588 739 l 1
 588 0 l 1
 451 0 l 1
 451 254 l 1
 233 254 l 2
 148 254 50 346 50 434 c 2
EndSplineSet
EndChar
StartChar: afii10042
Encoding: 447 1064 341
Width: 913
Flags: W
HStem: 0 131<204 845> 719 20G<68 205 393 530 718 845>
VStem: 68 137<0 739> 393 137<131 739> 718 127<131 739>
Fore
68 739 m 1
 205 739 l 1
 205 131 l 1
 393 131 l 1
 393 739 l 1
 530 739 l 1
 530 131 l 1
 718 131 l 1
 718 739 l 1
 845 739 l 1
 845 0 l 1
 68 0 l 1
 68 739 l 1
EndSplineSet
EndChar
StartChar: afii10043
Encoding: 448 1065 342
Width: 995
Flags: W
HStem: 0 131<204 864> 719 20G<68 205 393 530 718 845>
VStem: 68 137<0 739> 393 137<131 739> 718 127<131 739> 864 123<-140 131>
Fore
864 0 m 1
 68 0 l 1
 68 739 l 1
 205 739 l 1
 205 131 l 1
 393 131 l 1
 393 739 l 1
 530 739 l 1
 530 131 l 1
 718 131 l 1
 718 739 l 1
 845 739 l 1
 845 131 l 1
 987 131 l 1
 987 -140 l 1
 865 -140 l 1
 864 0 l 1
EndSplineSet
EndChar
StartChar: afii10044
Encoding: 449 1066 343
Width: 780
Flags: W
HStem: 0 21G<179 425> 404 131<315 456> 608 131<7 179>
VStem: 179 136<0 404 0 739> 614 136<256.188 275>
Fore
179 0 m 1
 179 608 l 1
 7 608 l 1
 7 739 l 1
 315 739 l 1
 315 535 l 1
 425 535 l 18
 617 535 750 452 750 272 c 0
 750 95 641 0 425 0 c 2
 179 0 l 1
315 131 m 1
 431 131 l 26
 521 131 614 182 614 272 c 16
 614 353 521 404 434 404 c 26
 315 404 l 1
 315 131 l 1
EndSplineSet
EndChar
StartChar: afii10045
Encoding: 450 1067 344
Width: 912
Flags: W
HStem: 0 131<205 341> 404 131<205 341> 719 20G<68 205 707 844>
VStem: 68 137<0 404 0 739> 504 136<256.188 275> 707 137<0 739>
Fore
315 0 m 2
 68 0 l 1
 68 739 l 1
 205 739 l 1
 205 535 l 1
 315 535 l 18
 507 535 640 452 640 272 c 0
 640 95 531 0 315 0 c 2
205 131 m 1
 321 131 l 26
 411 131 504 182 504 272 c 16
 504 353 411 404 324 404 c 26
 205 404 l 1
 205 131 l 1
707 0 m 1
 707 739 l 1
 844 739 l 1
 844 0 l 1
 707 0 l 1
EndSplineSet
EndChar
StartChar: afii10046
Encoding: 451 1068 345
Width: 670
Flags: W
HStem: 0 131<205 341> 404 131<205 341> 719 20G<68 205>
VStem: 68 137<0 404 0 739> 504 136<256.188 275>
Fore
315 0 m 6
 68 0 l 5
 68 739 l 1
 205 739 l 5
 205 535 l 5
 315 535 l 22
 507 535 640 452 640 272 c 4
 640 95 531 0 315 0 c 6
205 131 m 5
 321 131 l 30
 411 131 504 182 504 272 c 20
 504 353 411 404 324 404 c 30
 205 404 l 5
 205 131 l 5
EndSplineSet
EndChar
StartChar: afii10047
Encoding: 452 1069 346
Width: 780
Flags: W
HStem: -13 132<339 372> 310 131<235 605> 620 132<355 389>
Fore
603 441 m 1
 574 545 481 620 367 620 c 1
 281 620 223 592 173 527 c 1
 20 527 l 1
 49 591 75 626 125 667 c 0
 193 722 280 752 370 752 c 0
 579 752 750 581 750 372 c 0
 750 159 577 -13 361 -13 c 0
 210 -13 78 71 20 206 c 1
 181 206 l 1
 241 143 293 119 364 119 c 0
 479 119 578 201 605 310 c 1
 235 310 l 1
 235 441 l 1
 603 441 l 1
EndSplineSet
EndChar
StartChar: afii10048
Encoding: 453 1070 347
Width: 1063
Flags: W
HStem: -13 132<627 661> 620 132<627 661>
VStem: 68 137<0 310 0 739> 68 332<0 388> 894 138<354 388>
Fore
205 310 m 1xe8
 205 0 l 1
 68 0 l 1
 68 739 l 1
 205 739 l 1
 205 441 l 1
 268 441 l 5
 302 620 458 752 652 752 c 4
 863 752 1032 581 1032 370 c 4
 1032 154 866 -13 651 -13 c 4
 454 -13 295 126 267 310 c 5
 205 310 l 1xe8
650 620 m 4
 508 620 400 512 400 369 c 4xd8
 400 229 510 119 650 119 c 4
 790 119 894 226 894 368 c 4
 894 510 787 620 650 620 c 4
EndSplineSet
EndChar
StartChar: afii10049
Encoding: 454 1071 348
Width: 678
Flags: W
HStem: 0 21G<25 194 473 610> 608 131<344 473>
VStem: 38 136<467 481> 473 137<0 739>
DStem: 221 223 363 204 25 0 194 0
Fore
473 608 m 5
 357 608 l 30
 267 608 174 557 174 467 c 20
 174 386 267 335 354 335 c 30
 473 335 l 5
 473 608 l 5
221 223 m 5
 108 256 38 336 38 467 c 4
 38 644 147 739 363 739 c 6
 610 739 l 5
 610 0 l 5
 473 0 l 5
 473 204 l 5
 363 204 l 21
 194 0 l 5
 25 0 l 5
 221 223 l 5
EndSplineSet
EndChar
StartChar: afii10065
Encoding: 455 1072 349
Width: 669
Flags: W
HStem: -13 122<307 335> 445 122<307 335>
VStem: 30 134<258 292> 489 126<258 554>
Fore
615 554 m 1
 615 0 l 1
 493 0 l 1
 493 72 l 1
 440 12 387 -13 309 -13 c 0
 147 -13 30 108 30 275 c 0
 30 444 148 567 312 567 c 0
 392 567 447 541 493 480 c 1
 493 554 l 1
 615 554 l 1
326 445 m 0
 231 445 164 373 164 272 c 0
 164 175 231 109 328 109 c 0
 379 109 422 127 449 159 c 0
 473 187 489 233 489 273 c 0
 489 374 421 445 326 445 c 0
EndSplineSet
EndChar
StartChar: afii10066
Encoding: 456 1073 350
Width: 626
Flags: W
HStem: -13 122<303 337> 445 115<303 327> 631 111<306 337.475>
VStem: 32 126<270 292> 479 124<258 292>
Fore
318 445 m 0
 231 445 158 370 158 279 c 0
 158 184 229 109 319 109 c 0
 407 109 479 184 479 277 c 0
 479 369 407 445 318 445 c 0
319 560 m 0
 483 560 603 439 603 272 c 0
 603 108 485 -13 325 -13 c 0
 155 -13 32 110 32 277 c 0
 32 456 42 702 306 742 c 1
 424 742 552 784 552 784 c 1
 552 676 l 1
 552 676 424 631 306 631 c 1
 192 588 180 534 168 522 c 1
 195 534 243 560 319 560 c 0
EndSplineSet
EndChar
StartChar: afii10067
Encoding: 457 1074 351
Width: 544
Flags: W
HStem: 0 105<187 327> 442 105<54 281>
VStem: 54 133<0 243 0 442> 322 121<396 411> 397 121<166 176>
Fore
186 442 m 25xf0
 186 354 l 25
 267 354 l 2
 298 354 322 369 322 398 c 0
 322 427 298 442 267 442 c 2
 186 442 l 25xf0
187 243 m 13
 187 105 l 25
 312 105 l 2
 361 105 397 129 397 174 c 0xe8
 397 218.133 362.374 243.029 314.819 243.029 c 2
 187 243 l 13
409 322 m 1
 475 296 518 244 518 168 c 0xe8
 518 58 429 0 309 0 c 2
 54 0 l 1
 54 547 l 1
 279 547 l 2
 399 547 443 471 443 411 c 0xf0
 443 382 433 349 409 322 c 1
EndSplineSet
EndChar
StartChar: afii10068
Encoding: 458 1075 352
Width: 416
Flags: W
HStem: 0 21G<54 187> 433 121<54 414>
VStem: 54 133<0 433>
Fore
54 0 m 1
 54 554 l 1
 414 554 l 1
 414 433 l 1
 187 433 l 1
 187 0 l 1
 54 0 l 1
EndSplineSet
EndChar
StartChar: afii10069
Encoding: 459 1076 353
Width: 610
Flags: W
HStem: 0 131<222 471> 534 20G<252 358>
VStem: 471 133<-120 131>
Fore
387 131 m 1
 305 367 l 1
 222 131 l 1
 387 131 l 1
471 0 m 1
 140 0 l 1
 140 -120 l 1
 6 -120 l 1
 6 131 l 1
 82 131 l 1
 252 554 l 1
 358 554 l 1
 528 131 l 1
 604 131 l 1
 604 -120 l 1
 471 -120 l 1
 471 0 l 1
EndSplineSet
EndChar
StartChar: afii10070
Encoding: 460 1077 354
Width: 632
Flags: W
HStem: -13 122<317 335> 218 117<170 603> 445 122<317 335>
Fore
603 218 m 1
 174 218 l 1
 190 151 248 109 327 109 c 0
 382 109 415 124 449 164 c 1
 594 164 l 1
 585 136 571 113 550 87 c 1
 492 20 421 -13 330 -13 c 0
 161 -13 30 113 30 275 c 0
 30 438 159 567 322 567 c 0
 487 567 608 441 608 269 c 0
 608 249 607 237 603 218 c 1
170 335 m 1
 477 335 l 1
 460 406 406 445 324 445 c 0
 245 445 191 406 170 335 c 1
EndSplineSet
EndChar
StartChar: afii10071
Encoding: 461 1105 355
Width: 632
Flags: W
HStem: -13 122<317 335> 218 117<170 603> 445 122<317 335> 630 133<155 288 365 498>
VStem: 155 133<630 763> 365 133<630 763>
Fore
603 218 m 1
 174 218 l 1
 190 151 248 109 327 109 c 0
 382 109 415 124 449 164 c 1
 594 164 l 1
 585 136 571 113 550 87 c 1
 492 20 421 -13 330 -13 c 0
 161 -13 30 113 30 275 c 0
 30 438 159 567 322 567 c 0
 487 567 608 441 608 269 c 0
 608 249 607 237 603 218 c 1
170 335 m 1
 477 335 l 1
 460 406 406 445 324 445 c 0
 245 445 191 406 170 335 c 1
155 630 m 1
 155 763 l 1
 288 763 l 1
 288 630 l 1
 155 630 l 1
365 630 m 1
 365 763 l 1
 498 763 l 1
 498 630 l 1
 365 630 l 1
EndSplineSet
Ligature: 0 1 'liga' afii10070 uni0308
EndChar
StartChar: afii10072
Encoding: 462 1078 356
Width: 874
Flags: W
HStem: 0 21G<3 182 371 504 693 872> 534 20G<35 194 371 504 681 840>
VStem: 371 133<0 259 293 554>
Fore
371 0 m 1
 371 259 l 1
 182 0 l 1
 3 0 l 1
 233 283 l 1
 35 554 l 1
 194 554 l 1
 371 293 l 1
 371 554 l 1
 504 554 l 1
 504 293 l 1
 681 554 l 1
 840 554 l 1
 642 283 l 1
 872 0 l 1
 693 0 l 1
 504 259 l 1
 504 0 l 1
 371 0 l 1
EndSplineSet
EndChar
StartChar: afii10073
Encoding: 463 1079 357
Width: 504
Flags: W
HStem: -13 111<247 281> 457 103<247 281>
VStem: 344 106<402 419> 370 124<149 164>
Fore
24 159 m 1xd0
 148 159 l 1
 148 159 173 98 265 98 c 0
 345 98 370 124 370 159 c 0xd0
 370 203 337 226 272 226 c 2
 184 226 l 1
 184 352 l 1
 271 352 l 2
 321 352 344 369 344 409 c 0
 344 439 322 457 265 457 c 0
 192 457 173 409 173 409 c 1
 64 409 l 1
 64 409 90 560 266 560 c 0
 402 560 450 489 450 417 c 0xe0
 450 359 417 312 382 297 c 1
 445 288 494 227 494 151 c 0
 494 59 422 -13 266 -13 c 4
 64 -13 24 159 24 159 c 1xd0
EndSplineSet
EndChar
StartChar: afii10074
Encoding: 464 1080 358
Width: 601
Flags: W
HStem: 0 21G<54 202 414 547> 534 20G<54 187 399 547>
VStem: 54 133<0 554> 414 133<0 554>
DStem: 399 554 414 363 187 191 202 0
Fore
547 554 m 1
 547 0 l 1
 414 0 l 1
 414 363 l 1
 202 0 l 1
 54 0 l 1
 54 554 l 1
 187 554 l 1
 187 191 l 1
 399 554 l 1
 547 554 l 1
EndSplineSet
EndChar
StartChar: afii10075
Encoding: 465 1081 359
Width: 601
Flags: W
HStem: 0 21G<54 202 414 547> 534 20G<54 187 399 547> 588 96<297 311>
VStem: 54 133<0 554> 414 133<0 554>
DStem: 399 554 414 363 187 191 202 0
Fore
131 727 m 1
 229 727 l 1
 241 698 264 684 297 684 c 0
 332 684 354 699 359 727 c 1
 461 727 l 1
 458 644 392 588 297 588 c 0
 198 588 137 639 131 727 c 1
547 554 m 1
 547 0 l 1
 414 0 l 1
 414 363 l 1
 202 0 l 1
 54 0 l 1
 54 554 l 1
 187 554 l 1
 187 191 l 1
 399 554 l 1
 547 554 l 1
EndSplineSet
LCarets: 0 65535 '    ' 1 0 
Ligature: 0 1 'liga' afii10074 uni0306
EndChar
StartChar: afii10076
Encoding: 466 1082 360
Width: 557
Flags: W
HStem: 0 21G<54 187 376 541> 534 20G<54 187 364 518>
VStem: 54 133<0 259 0 554>
DStem: 187 259 325 283 376 0 541 0 364 554 518 554 187 293 325 283
Fore
54 0 m 1
 54 554 l 1
 187 554 l 1
 187 293 l 1
 364 554 l 1
 518 554 l 1
 325 283 l 1
 541 0 l 5
 376 0 l 1
 187 259 l 1
 187 0 l 1
 54 0 l 1
EndSplineSet
KernsSLIF: 470 -81 0 0
EndChar
StartChar: afii10077
Encoding: 467 1083 361
Width: 557
Flags: W
HStem: 0 21G<3 141 421 555> 534 20G<226 332>
DStem: 226 554 279 367 3 0 141 0 279 367 332 554 421 0 555 0
Fore
226 554 m 5
 332 554 l 1
 555 0 l 1
 421 0 l 1
 279 367 l 5
 141 0 l 5
 3 0 l 5
 226 554 l 5
EndSplineSet
EndChar
StartChar: afii10078
Encoding: 468 1084 362
Width: 775
Flags: W
HStem: 0 21G<54 187 335 441 588 721> 534 20G<54 250 525 721>
VStem: 54 133<0 367> 588 133<0 554>
DStem: 187 367 250 554 335 0 388 187 525 554 588 367 388 187 441 0
Fore
588 0 m 1
 588 367 l 1
 441 0 l 1
 335 0 l 1
 187 367 l 1
 187 0 l 1
 54 0 l 1
 54 554 l 1
 250 554 l 1
 388 187 l 1
 525 554 l 5
 721 554 l 1
 721 0 l 1
 588 0 l 1
EndSplineSet
EndChar
StartChar: afii10079
Encoding: 469 1085 363
Width: 601
Flags: W
HStem: 213 131<187 414> 534 20G<54 187 414 547>
VStem: 54 133<0 213 0 554> 414 133<0 554>
Fore
547 554 m 1
 547 0 l 1
 414 0 l 1
 414 213 l 1
 187 213 l 1
 187 0 l 1
 54 0 l 1
 54 554 l 1
 187 554 l 1
 187 344 l 1
 414 344 l 1
 414 554 l 1
 547 554 l 1
EndSplineSet
EndChar
StartChar: afii10080
Encoding: 470 1086 364
Width: 643
Flags: W
HStem: -13 122<317 335> 445 122<317 335>
VStem: 30 134<271 292> 485 134<258 292>
Fore
323 567 m 0
 490 567 619 438 619 273 c 0
 619 117 485 -13 324 -13 c 0
 162 -13 30 117 30 277 c 0
 30 436 162 567 323 567 c 0
324 445 m 0
 237 445 164 370 164 279 c 0
 164 184 235 109 325 109 c 0
 413 109 485 184 485 277 c 0
 485 369 413 445 324 445 c 0
EndSplineSet
EndChar
StartChar: afii10081
Encoding: 471 1087 365
Width: 601
Flags: W
HStem: 0 21G<54 187 414 547> 423 131<54 414>
VStem: 54 133<0 423> 414 133<0 554>
Fore
547 554 m 1
 547 0 l 1
 414 0 l 1
 414 423 l 1
 187 423 l 1
 187 0 l 1
 54 0 l 1
 54 554 l 1
 547 554 l 1
EndSplineSet
EndChar
StartChar: afii10082
Encoding: 472 1088 366
Width: 658
Flags: W
HStem: -13 122<339 361> 445 122<339 360>
VStem: 54 122<-185 554> 54 133<-185 52> 500 134<262 296>
Fore
54 -185 m 1xe8
 54 554 l 1
 176 554 l 1
 176 489 l 1xe8
 219 539 283 567 358 567 c 0
 518 567 634 446 634 279 c 0
 634 111 517 -13 357 -13 c 0
 289 -13 237 7 187 52 c 1
 187 -185 l 1xd8
 54 -185 l 1xe8
341 445 m 0
 249 445 179 373 179 278 c 0
 179 181 249 109 343 109 c 0
 431 109 500 182 500 276 c 0
 500 372 431 445 341 445 c 0
EndSplineSet
EndChar
StartChar: afii10083
Encoding: 473 1089 367
Width: 623
Flags: W
HStem: -13 122<317 335> 445 122<302.851 335>
VStem: 30 134<258 292>
Fore
451 182 m 1
 601 182 l 1
 555 58 455 -13 326 -13 c 0
 162 -13 30 116 30 277 c 0
 30 440 158 567 322 567 c 0
 399 567 472 539 526 489 c 0
 564 454 582 425 601 369 c 1
 451 369 l 1
 424 420 382 445 322 445 c 0
 230 445 164 375 164 278 c 0
 164 181 233 109 325 109 c 0
 380 109 418 131 451 182 c 1
EndSplineSet
EndChar
StartChar: afii10084
Encoding: 474 1090 368
Width: 473
Flags: W
HStem: 0 21G<168 301> 433 121<7 168 7 466>
VStem: 168 133<0 433>
Fore
168 0 m 1
 168 433 l 1
 7 433 l 1
 7 554 l 1
 466 554 l 5
 466 433 l 5
 301 433 l 1
 301 0 l 1
 168 0 l 1
EndSplineSet
EndChar
StartChar: afii10085
Encoding: 475 1091 369
Width: 566
Flags: W
HStem: 534 20G<12 148 428 564>
DStem: 12 554 148 554 205 52 277 195 205 52 564 554 101 -185 244 -185 428 554 564 554 277 195 244 -185
Fore
101 -185 m 1
 205 52 l 1
 12 554 l 1
 148 554 l 5
 277 195 l 1
 428 554 l 1
 564 554 l 1
 244 -185 l 1
 101 -185 l 1
EndSplineSet
EndChar
StartChar: afii10086
Encoding: 476 1092 370
Width: 772
Flags: W
HStem: 3 122<322 322 455 472.162> 461 122<322 322 455 472.2>
VStem: 30 133<275 309> 322 133<-108 3 125 461 582 634> 614 134<275 309>
Fore
322 634 m 1
 455 634 l 1
 455 583 l 1
 621 583 748 453 748 289 c 0
 748 134 615 3 455 3 c 1
 455 -108 l 1
 322 -108 l 1
 322 3 l 1
 161 3 30 134 30 293 c 0
 30 451 162 583 322 583 c 1
 322 634 l 1
322 125 m 1
 322 461 l 1
 236 461 163 385 163 295 c 0
 163 201 233 125 322 125 c 1
455 125 m 1
 542 125 614 201 614 293 c 0
 614 384 543 461 455 461 c 1
 455 125 l 1
EndSplineSet
EndChar
StartChar: afii10087
Encoding: 477 1093 371
Width: 556
Flags: W
HStem: 0 21G<2 162 380 527> 534 20G<28 178 382 526>
DStem: 28 554 178 554 198 286 274 395 198 286 272 170 2 0 162 0 272 170 345 286 380 0 527 0 382 554 526 554 274 395 345 286
Fore
2 0 m 1
 198 286 l 1
 28 554 l 1
 178 554 l 1
 274 395 l 1
 382 554 l 1
 526 554 l 1
 345 286 l 1
 527 0 l 1
 380 0 l 1
 272 170 l 1
 162 0 l 1
 2 0 l 1
EndSplineSet
EndChar
StartChar: afii10088
Encoding: 478 1094 372
Width: 676
Flags: W
HStem: 0 131<186 556> 534 20G<54 187 414 547>
VStem: 54 133<0 554> 414 133<131 554> 556 112<-129 132>
Fore
54 0 m 1
 54 554 l 1
 187 554 l 1
 187 131 l 1
 414 131 l 1
 414 554 l 1
 547 554 l 1
 547 132 l 1
 668 132 l 1
 668 -129 l 1
 556 -129 l 1
 556 0 l 1
 54 0 l 1
EndSplineSet
EndChar
StartChar: afii10089
Encoding: 479 1095 373
Width: 552
Flags: W
HStem: 0 21G<365 498> 173 121<250 364>
VStem: 27 133<426 544> 365 133<0 544>
Fore
498 544 m 5
 498 0 l 5
 365 0 l 5
 365 173 l 5
 260 173 l 2
 181 173 101 202 64 259 c 0
 37 300 27 345 27 426 c 2
 27 544 l 1
 160 544 l 1
 160 426 l 2
 160 310 219 294 262 294 c 2
 365 294 l 5
 365 544 l 5
 498 544 l 5
EndSplineSet
EndChar
StartChar: afii10090
Encoding: 480 1096 374
Width: 747
Flags: W
HStem: 0 131<186 693> 534 20G<54 187 307 440 560 693>
VStem: 54 133<0 554> 307 133<131 554> 560 133<131 554>
CounterMasks: 1 00
Fore
54 0 m 1
 54 554 l 1
 187 554 l 1
 187 131 l 1
 307 131 l 1
 307 554 l 1
 440 554 l 1
 440 131 l 1
 560 131 l 1
 560 554 l 1
 693 554 l 1
 693 0 l 1
 54 0 l 1
EndSplineSet
EndChar
StartChar: afii10091
Encoding: 481 1097 375
Width: 818
Flags: W
HStem: 0 131<186 701> 534 20G<54 187 307 440 560 693>
VStem: 54 133<0 554> 307 133<131 554> 560 133<131 554> 701 110<-129 132>
Fore
54 0 m 1
 54 554 l 1
 187 554 l 1
 187 131 l 1
 307 131 l 1
 307 554 l 1
 440 554 l 1
 440 131 l 1
 560 131 l 1
 560 554 l 1
 693 554 l 1
 693 132 l 1
 811 132 l 1
 811 -129 l 1
 701 -129 l 1
 701 0 l 1
 54 0 l 1
EndSplineSet
EndChar
StartChar: afii10092
Encoding: 482 1098 376
Width: 666
Flags: W
HStem: 0 21G<194 402> 424 130<7 194>
VStem: 194 133<0 264 0 554> 511 123<185 195>
Fore
194 0 m 5
 194 424 l 5
 7 424 l 5
 7 554 l 5
 327 554 l 5
 327 377 l 5
 402 377 l 6
 543 377 634 316 634 187 c 4
 634 70 543 0 402 0 c 6
 194 0 l 5
327 120 m 5
 438 120 l 6
 499 120 511 171 511 193 c 4
 511 215 497 264 435 264 c 6
 327 264 l 5
 327 120 l 5
EndSplineSet
EndChar
StartChar: afii10093
Encoding: 483 1099 377
Width: 734
Flags: W
HStem: 0 21G<54 262 547 680> 534 20G<54 187 547 680>
VStem: 54 133<0 264 0 554> 371 123<185 195> 547 133<0 554>
Fore
494 187 m 0
 494 70 403 0 262 0 c 2
 54 0 l 1
 54 554 l 1
 187 554 l 1
 187 377 l 1
 262 377 l 2
 403 377 494 316 494 187 c 0
187 120 m 1
 298 120 l 2
 359 120 371 171 371 193 c 0
 371 215 357 264 295 264 c 2
 187 264 l 1
 187 120 l 1
547 0 m 5
 547 554 l 5
 680 554 l 5
 680 0 l 5
 547 0 l 5
EndSplineSet
EndChar
StartChar: afii10094
Encoding: 484 1100 378
Width: 526
Flags: W
HStem: 0 21G<54 262> 534 20G<54 187>
VStem: 54 133<0 264 0 554> 371 123<185 195>
Fore
494 187 m 4
 494 70 403 0 262 0 c 6
 54 0 l 5
 54 554 l 1
 187 554 l 5
 187 377 l 5
 262 377 l 6
 403 377 494 316 494 187 c 4
187 120 m 5
 298 120 l 6
 359 120 371 171 371 193 c 4
 371 215 357 264 295 264 c 6
 187 264 l 5
 187 120 l 5
EndSplineSet
EndChar
StartChar: afii10095
Encoding: 485 1101 379
Width: 617
Flags: W
HStem: -13 122<278.23 311> 213 131<213 448> 445 122<301 311>
Fore
213 213 m 1
 213 344 l 1
 448 344 l 1
 425 405 370 445 301 445 c 0
 241 445 199 420 172 369 c 1
 22 369 l 1
 41 425 59 454 97 489 c 0
 151 539 224 567 301 567 c 0
 465 567 593 440 593 277 c 0
 593 116 461 -13 297 -13 c 0
 168 -13 68 58 22 182 c 1
 172 182 l 1
 205 131 243 109 298 109 c 0
 368 109 424 151 448 213 c 1
 213 213 l 1
EndSplineSet
EndChar
StartChar: afii10096
Encoding: 486 1102 380
Width: 854
Flags: W
HStem: -13 122<516.89 550> 445 122<516 550>
VStem: 53 133<0 213 0 554> 695 134<258 292>
Fore
186 213 m 1
 186 0 l 1
 53 0 l 1
 53 554 l 1
 186 554 l 1
 186 344 l 1
 248 344 l 5
 279 471 395 567 533 567 c 4
 700 567 829 438 829 273 c 4
 829 117 695 -13 534 -13 c 4
 395 -13 278 84 248 213 c 5
 186 213 l 1
534 445 m 4
 447 445 374 370 374 279 c 4
 374 184 445 109 535 109 c 4
 623 109 695 184 695 277 c 4
 695 369 623 445 534 445 c 4
EndSplineSet
EndChar
StartChar: afii10097
Encoding: 487 1103 381
Width: 526
Flags: W
HStem: 0 21G<39 177 361 494> 434 120<262 361>
VStem: 54 123<351 369> 361 133<0 554>
DStem: 194 187 322 177 39 0 177 0
Fore
361 434 m 5
 250 434 l 6
 189 434 177 383 177 361 c 4
 177 339 191 290 253 290 c 6
 361 290 l 5
 361 434 l 5
194 187 m 5
 107 210 54 269 54 367 c 4
 54 484 145 554 286 554 c 6
 494 554 l 5
 494 0 l 5
 361 0 l 5
 361 177 l 5
 322 177 l 5
 177 0 l 5
 39 0 l 5
 194 187 l 5
EndSplineSet
EndChar
StartChar: afii10051
Encoding: 489 1026 383
Width: 717
Flags: W
HStem: 0 21G<144 281> 355 130<281 456> 608 131<7 144 7 418>
VStem: 144 137<0 355 0 608> 545 137<48 305>
Fore
411 -175 m 1
 411 -45 l 1
 446 -45 l 2
 500 -45 545 7 545 60 c 2
 545 250 l 2
 545 303 500 355 446 355 c 2
 281 355 l 1
 281 0 l 1
 144 0 l 1
 144 608 l 1
 7 608 l 1
 7 739 l 1
 418 739 l 1
 418 608 l 1
 281 608 l 1
 281 485 l 1
 499 485 l 2
 584 485 682 393 682 305 c 2
 682 5 l 2
 682 -83 584 -175 499 -175 c 2
 411 -175 l 1
EndSplineSet
EndChar
StartChar: afii10053
Encoding: 491 1028 385
Width: 782
Flags: W
HStem: -13 132<397 431> 310 131<177 545> 620 132<410 438.688>
Fore
177 441 m 1
 545 441 l 1
 545 310 l 1
 175 310 l 1
 202 201 301 119 416 119 c 0
 487 119 539 143 599 206 c 1
 760 206 l 1
 702 71 570 -13 419 -13 c 0
 203 -13 30 159 30 372 c 0
 30 581 201 752 410 752 c 0
 500 752 587 722 655 667 c 0
 705 626 731 591 760 527 c 1
 607 527 l 1
 557 592 499 620 413 620 c 1
 299 624 206 545 177 441 c 1
EndSplineSet
EndChar
